{
.appVersion = "1291";
copyright = "Jingzhe, Chen Yuanhao";
customParameters = (
{
name = Axes;
value = (
{
Name = Weight;
Tag = wght;
}
);
},
{
name = "Variable Font Family Name";
value = "Hundred Xdi8 Variable";
},
{
name = variableStyleName;
value = "12";
},
{
name = "Variable Font File Name";
value = "Hundred Xdi8 Variable";
},
{
name = glyphOrder;
value = (
a,
o,
e,
E,
A,
Y,
L,
six,
two,
b,
p,
m,
w,
j,
q,
x,
y,
n,
z,
D,
s,
r,
H,
i,
one,
V,
three,
N,
l,
d,
t,
g,
k,
h,
four,
eight,
five,
v,
F,
seven,
B,
c,
f,
u,
T,
a.ss01,
o.ss01,
e.ss01,
E.ss01,
A.ss01,
Y.ss01,
L.ss01,
six.ss01,
two.ss01,
b.ss01,
p.ss01,
m.ss01,
w.ss01,
j.ss01,
q.ss01,
x.ss01,
y.ss01,
n.ss01,
z.ss01,
D.ss01,
s.ss01,
r.ss01,
H.ss01,
i.ss01,
one.ss01,
V.ss01,
three.ss01,
N.ss01,
l.ss01,
d.ss01,
t.ss01,
g.ss01,
k.ss01,
h.ss01,
four.ss01,
eight.ss01,
five.ss01,
v.ss01,
F.ss01,
seven.ss01,
B.ss01,
c.ss01,
f.ss01,
u.ss01,
T.ss01,
a.ss02,
o.ss02,
e.ss02,
E.ss02,
A.ss02,
Y.ss02,
L.ss02,
six.ss02,
two.ss02,
b.ss02,
p.ss02,
m.ss02,
w.ss02,
j.ss02,
q.ss02,
x.ss02,
y.ss02,
n.ss02,
z.ss02,
D.ss02,
s.ss02,
r.ss02,
H.ss02,
i.ss02,
one.ss02,
V.ss02,
three.ss02,
N.ss02,
l.ss02,
d.ss02,
t.ss02,
g.ss02,
k.ss02,
h.ss02,
four.ss02,
eight.ss02,
five.ss02,
v.ss02,
F.ss02,
seven.ss02,
B.ss02,
c.ss02,
f.ss02,
u.ss02,
T.ss02,
zero.ss03,
one.ss03,
two.ss03,
three.ss03,
four.ss03,
five.ss03,
six.ss03,
seven.ss03,
eight.ss03,
nine.ss03,
n.ss03,
T.ss03
);
},
{
name = sampleText;
value = "wo de mi3b tiY zyuo, DE mioEyu6 H r8H di3Y? Hu8 de AHL yuL2, wo xo de wi8fHL zEyu6H wo NVVga r8H2ki2, NVVga r8 H Ym2Ym2 Vb8 owiL.";
},
{
name = uniqueID;
value = "Jingzhe, Chen Yuanhao: Hundred Xdi8: 2021";
},
{
name = "新參數";
value = "新值";
}
);
date = "2021-01-30 08:43:03 +0000";
designer = "Jingzhe, Chen Yuanhao";
disablesNiceNames = 1;
familyName = "Hundred Xdi8";
featurePrefixes = (
{
automatic = 1;
code = "languagesystem DFLT dflt;\012";
name = Languagesystems;
}
);
features = (
{
automatic = 1;

glyphs = (
{
glyphname = a;
lastChange = "2021-01-30 08:49:12 +0000";
layers = (
{
layerId = master01;
paths = (
{
closed = 1;
nodes = (
"1153 2953 OFFCURVE",
"1166 2941 OFFCURVE",
"1166 2925 CURVE SMOOTH",
"1166 2909 OFFCURVE",
"1153 2897 OFFCURVE",
"1138 2897 CURVE SMOOTH",
"994 2897 OFFCURVE",
"857 2840 OFFCURVE",
"756 2738 CURVE SMOOTH",
"654 2637 OFFCURVE",
"597 2499 OFFCURVE",
"597 2356 CURVE SMOOTH",
"597 2340 OFFCURVE",
"585 2328 OFFCURVE",
"569 2328 CURVE SMOOTH",
"553 2328 OFFCURVE",
"540 2340 OFFCURVE",
"540 2356 CURVE SMOOTH",
"540 2515 OFFCURVE",
"603 2667 OFFCURVE",
"715 2779 CURVE SMOOTH",
"827 2891 OFFCURVE",
"979 2953 OFFCURVE",
"1138 2953 CURVE SMOOTH"
);
},
{
closed = 1;
nodes = (
"1722 597 OFFCURVE",
"1735 585 OFFCURVE",
"1735 569 CURVE SMOOTH",
"1735 411 OFFCURVE",
"1672 259 OFFCURVE",
"1560 147 CURVE SMOOTH",
"1448 34 OFFCURVE",
"1296 -28 OFFCURVE",
"1138 -28 CURVE SMOOTH",
"1122 -28 OFFCURVE",
"1109 -16 OFFCURVE",
"1109 0 CURVE SMOOTH",
"1109 16 OFFCURVE",
"1122 28 OFFCURVE",
"1138 28 CURVE SMOOTH",
"1281 28 OFFCURVE",
"1419 85 OFFCURVE",
"1520 187 CURVE SMOOTH",
"1621 288 OFFCURVE",
"1678 426 OFFCURVE",
"1678 569 CURVE SMOOTH",
"1678 585 OFFCURVE",
"1691 597 OFFCURVE",
"1707 597 CURVE SMOOTH"
);
},
{
closed = 1;
nodes = (
"1296 2953 OFFCURVE",
"1448 2891 OFFCURVE",
"1560 2778 CURVE SMOOTH",
"1672 2666 OFFCURVE",
"1735 2514 OFFCURVE",
"1735 2356 CURVE SMOOTH",
"1735 2340 OFFCURVE",
"1722 2328 OFFCURVE",
"1707 2328 CURVE SMOOTH",
"1691 2328 OFFCURVE",
"1678 2340 OFFCURVE",
"1678 2356 CURVE SMOOTH",
"1678 2499 OFFCURVE",
"1621 2637 OFFCURVE",
"1520 2738 CURVE SMOOTH",
"1419 2840 OFFCURVE",
"1281 2897 OFFCURVE",
"1138 2897 CURVE SMOOTH",
"1122 2897 OFFCURVE",
"1109 2909 OFFCURVE",
"1109 2925 CURVE SMOOTH",
"1109 2941 OFFCURVE",
"1122 2953 OFFCURVE",
"1138 2953 CURVE SMOOTH"
);
},
{
closed = 1;
nodes = (
"1722 2385 OFFCURVE",
"1735 2372 OFFCURVE",
"1735 2356 CURVE SMOOTH",
"1735 2014 OFFCURVE",
"1442 1726 OFFCURVE",
"1158 1442 CURVE SMOOTH",
"873 1158 OFFCURVE",
"597 878 OFFCURVE",
"597 569 CURVE SMOOTH",
"597 553 OFFCURVE",
"585 541 OFFCURVE",
"569 540 CURVE SMOOTH",
"553 541 OFFCURVE",
"540 553 OFFCURVE",
"540 569 CURVE SMOOTH",
"540 911 OFFCURVE",
"833 1199 OFFCURVE",
"1118 1483 CURVE SMOOTH",
"1402 1767 OFFCURVE",
"1678 2047 OFFCURVE",
"1678 2356 CURVE SMOOTH",
"1678 2372 OFFCURVE",
"1691 2385 OFFCURVE",
"1707 2385 CURVE SMOOTH"
);
},
{
closed = 1;
nodes = (
"585 597 OFFCURVE",
"597 585 OFFCURVE",
"597 569 CURVE SMOOTH",
"597 426 OFFCURVE",
"654 288 OFFCURVE",
"756 187 CURVE SMOOTH",
"857 85 OFFCURVE",
"994 28 OFFCURVE",
"1138 28 CURVE SMOOTH",
"1153 28 OFFCURVE",
"1166 16 OFFCURVE",
"1166 0 CURVE SMOOTH",
"1166 -16 OFFCURVE",
"1153 -28 OFFCURVE",
"1138 -28 CURVE SMOOTH",
"979 -28 OFFCURVE",
"827 34 OFFCURVE",
"715 147 CURVE SMOOTH",
"603 259 OFFCURVE",
"540 411 OFFCURVE",
"540 569 CURVE SMOOTH",
"540 585 OFFCURVE",
"553 597 OFFCURVE",
"569 597 CURVE SMOOTH"
);
},
{
closed = 1;
nodes = (
"1722 2385 OFFCURVE",
"1735 2372 OFFCURVE",
"1735 2356 CURVE SMOOTH",
"1735 569 LINE SMOOTH",
"1735 553 OFFCURVE",
"1722 541 OFFCURVE",
"1707 540 CURVE SMOOTH",
"1691 541 OFFCURVE",
"1678 553 OFFCURVE",
"1678 569 CURVE SMOOTH",
"1678 2356 LINE SMOOTH",
"1678 2372 OFFCURVE",
"1691 2385 OFFCURVE",
"1707 2385 CURVE SMOOTH"
);
},
{
closed = 1;
nodes = (
"1678 585 OFFCURVE",
"1691 598 OFFCURVE",
"1707 598 CURVE SMOOTH",
"1722 598 OFFCURVE",
"1735 585 OFFCURVE",
"1735 569 CURVE SMOOTH",
"1735 426 OFFCURVE",
"1792 288 OFFCURVE",
"1893 187 CURVE SMOOTH",
"1995 86 OFFCURVE",
"2132 29 OFFCURVE",
"2276 29 CURVE SMOOTH",
"2291 29 OFFCURVE",
"2304 16 OFFCURVE",
"2304 0 CURVE SMOOTH",
"2304 -15 OFFCURVE",
"2291 -28 OFFCURVE",
"2276 -28 CURVE SMOOTH",
"2117 -28 OFFCURVE",
"1965 35 OFFCURVE",
"1853 147 CURVE SMOOTH",
"1741 259 OFFCURVE",
"1678 411 OFFCURVE",
"1678 569 CURVE SMOOTH"
);
}
);
width = 2275;
},
{
layerId = "19B6A511-96ED-40AF-BAB7-D1E16DFA4179";
paths = (
{
closed = 1;
nodes = (
"1232 3096 OFFCURVE",
"1308 3019 OFFCURVE",
"1308 2925 CURVE SMOOTH",
"1308 2831 OFFCURVE",
"1232 2754 OFFCURVE",
"1138 2754 CURVE SMOOTH",
"1032 2754 OFFCURVE",
"931 2712 OFFCURVE",
"856 2638 CURVE SMOOTH",
"781 2563 OFFCURVE",
"740 2462 OFFCURVE",
"740 2356 CURVE SMOOTH",
"740 2262 OFFCURVE",
"663 2186 OFFCURVE",
"569 2185 CURVE SMOOTH",
"475 2186 OFFCURVE",
"398 2262 OFFCURVE",
"398 2356 CURVE SMOOTH",
"398 2552 OFFCURVE",
"476 2740 OFFCURVE",
"615 2879 CURVE SMOOTH",
"754 3018 OFFCURVE",
"942 3096 OFFCURVE",
"1138 3096 CURVE SMOOTH"
);
},
{
closed = 1;
nodes = (
"1801 740 OFFCURVE",
"1877 663 OFFCURVE",
"1877 569 CURVE SMOOTH",
"1877 373 OFFCURVE",
"1799 185 OFFCURVE",
"1661 46 CURVE SMOOTH",
"1522 -93 OFFCURVE",
"1334 -171 OFFCURVE",
"1138 -171 CURVE SMOOTH",
"1044 -171 OFFCURVE",
"967 -94 OFFCURVE",
"967 0 CURVE SMOOTH",
"967 94 OFFCURVE",
"1044 171 OFFCURVE",
"1138 171 CURVE SMOOTH",
"1243 171 OFFCURVE",
"1345 213 OFFCURVE",
"1419 287 CURVE SMOOTH",
"1494 362 OFFCURVE",
"1536 463 OFFCURVE",
"1536 569 CURVE SMOOTH",
"1536 663 OFFCURVE",
"1612 740 OFFCURVE",
"1707 740 CURVE SMOOTH"
);
},
{
closed = 1;
nodes = (
"1334 3096 OFFCURVE",
"1522 3018 OFFCURVE",
"1661 2879 CURVE SMOOTH",
"1799 2740 OFFCURVE",
"1877 2552 OFFCURVE",
"1877 2356 CURVE SMOOTH",
"1877 2262 OFFCURVE",
"1801 2186 OFFCURVE",
"1707 2185 CURVE SMOOTH",
"1612 2186 OFFCURVE",
"1536 2262 OFFCURVE",
"1536 2356 CURVE SMOOTH",
"1536 2462 OFFCURVE",
"1494 2563 OFFCURVE",
"1419 2638 CURVE SMOOTH",
"1345 2712 OFFCURVE",
"1243 2754 OFFCURVE",
"1138 2754 CURVE SMOOTH",
"1044 2754 OFFCURVE",
"967 2831 OFFCURVE",
"967 2925 CURVE SMOOTH",
"967 3019 OFFCURVE",
"1044 3096 OFFCURVE",
"1138 3096 CURVE SMOOTH"
);
},
{
closed = 1;
nodes = (
"1801 2527 OFFCURVE",
"1877 2450 OFFCURVE",
"1877 2356 CURVE SMOOTH",
"1877 1931 OFFCURVE",
"1543 1626 OFFCURVE",
"1258 1342 CURVE SMOOTH",
"974 1058 OFFCURVE",
"740 795 OFFCURVE",
"740 569 CURVE SMOOTH",
"740 475 OFFCURVE",
"663 398 OFFCURVE",
"569 398 CURVE SMOOTH",
"475 398 OFFCURVE",
"398 475 OFFCURVE",
"398 569 CURVE SMOOTH",
"398 994 OFFCURVE",
"733 1299 OFFCURVE",
"1017 1583 CURVE SMOOTH",
"1302 1867 OFFCURVE",
"1536 2130 OFFCURVE",
"1536 2356 CURVE SMOOTH",
"1536 2450 OFFCURVE",
"1612 2527 OFFCURVE",
"1707 2527 CURVE SMOOTH"
);
},
{
closed = 1;
nodes = (
"663 740 OFFCURVE",
"740 663 OFFCURVE",
"740 569 CURVE SMOOTH",
"740 463 OFFCURVE",
"781 362 OFFCURVE",
"856 287 CURVE SMOOTH",
"931 213 OFFCURVE",
"1032 171 OFFCURVE",
"1138 171 CURVE SMOOTH",
"1232 171 OFFCURVE",
"1308 94 OFFCURVE",
"1308 0 CURVE SMOOTH",
"1308 -94 OFFCURVE",
"1232 -171 OFFCURVE",
"1138 -171 CURVE SMOOTH",
"942 -171 OFFCURVE",
"754 -93 OFFCURVE",
"615 46 CURVE SMOOTH",
"476 185 OFFCURVE",
"398 373 OFFCURVE",
"398 569 CURVE SMOOTH",
"398 663 OFFCURVE",
"475 740 OFFCURVE",
"569 740 CURVE SMOOTH"
);
},
{
closed = 1;
nodes = (
"1801 2527 OFFCURVE",
"1877 2450 OFFCURVE",
"1877 2356 CURVE SMOOTH",
"1877 569 LINE SMOOTH",
"1877 475 OFFCURVE",
"1801 398 OFFCURVE",
"1707 398 CURVE SMOOTH",
"1612 398 OFFCURVE",
"1536 475 OFFCURVE",
"1536 569 CURVE SMOOTH",
"1536 2356 LINE SMOOTH",
"1536 2450 OFFCURVE",
"1612 2527 OFFCURVE",
"1707 2527 CURVE SMOOTH"
);
},
{
closed = 1;
nodes = (
"1536 663 OFFCURVE",
"1612 740 OFFCURVE",
"1707 740 CURVE SMOOTH",
"1801 740 OFFCURVE",
"1877 663 OFFCURVE",
"1877 569 CURVE SMOOTH",
"1877 463 OFFCURVE",
"1919 362 OFFCURVE",
"1994 287 CURVE SMOOTH",
"2069 213 OFFCURVE",
"2170 171 OFFCURVE",
"2276 171 CURVE SMOOTH",
"2370 171 OFFCURVE",
"2446 94 OFFCURVE",
"2446 0 CURVE SMOOTH",
"2446 -94 OFFCURVE",
"2370 -171 OFFCURVE",
"2276 -171 CURVE SMOOTH",
"2080 -171 OFFCURVE",
"1891 -93 OFFCURVE",
"1753 46 CURVE SMOOTH",
"1614 185 OFFCURVE",
"1536 373 OFFCURVE",
"1536 569 CURVE SMOOTH"
);
}
);
width = 2276;
}
);
leftKerningGroup = c;
unicode = 0061;
},
{
glyphname = o;
lastChange = "2021-01-30 08:49:12 +0000";
layers = (
{
layerId = master01;
paths = (
{
closed = 1;
nodes = (
"585 2385 OFFCURVE",
"597 2372 OFFCURVE",
"597 2356 CURVE SMOOTH",
"597 569 LINE SMOOTH",
"597 553 OFFCURVE",
"585 541 OFFCURVE",
"569 540 CURVE SMOOTH",
"553 541 OFFCURVE",
"540 553 OFFCURVE",
"540 569 CURVE SMOOTH",
"540 2356 LINE SMOOTH",
"540 2372 OFFCURVE",
"553 2385 OFFCURVE",
"569 2385 CURVE SMOOTH"
);
},
{
closed = 1;
nodes = (
"1153 2953 OFFCURVE",
"1166 2941 OFFCURVE",
"1166 2925 CURVE SMOOTH",
"1166 2909 OFFCURVE",
"1153 2897 OFFCURVE",
"1138 2897 CURVE SMOOTH",
"994 2897 OFFCURVE",
"857 2840 OFFCURVE",
"756 2738 CURVE SMOOTH",
"654 2637 OFFCURVE",
"597 2499 OFFCURVE",
"597 2356 CURVE SMOOTH",
"597 2340 OFFCURVE",
"585 2328 OFFCURVE",
"569 2328 CURVE SMOOTH",
"553 2328 OFFCURVE",
"540 2340 OFFCURVE",
"540 2356 CURVE SMOOTH",
"540 2515 OFFCURVE",
"603 2667 OFFCURVE",
"715 2779 CURVE SMOOTH",
"827 2891 OFFCURVE",
"979 2953 OFFCURVE",
"1138 2953 CURVE SMOOTH"
);
},
{
closed = 1;
nodes = (
"1722 597 OFFCURVE",
"1735 585 OFFCURVE",
"1735 569 CURVE SMOOTH",
"1735 411 OFFCURVE",
"1672 259 OFFCURVE",
"1560 147 CURVE SMOOTH",
"1448 34 OFFCURVE",
"1296 -28 OFFCURVE",
"1138 -28 CURVE SMOOTH",
"1122 -28 OFFCURVE",
"1109 -16 OFFCURVE",
"1109 0 CURVE SMOOTH",
"1109 16 OFFCURVE",
"1122 28 OFFCURVE",
"1138 28 CURVE SMOOTH",
"1281 28 OFFCURVE",
"1419 85 OFFCURVE",
"1520 187 CURVE SMOOTH",
"1621 288 OFFCURVE",
"1678 426 OFFCURVE",
"1678 569 CURVE SMOOTH",
"1678 585 OFFCURVE",
"1691 597 OFFCURVE",
"1707 597 CURVE SMOOTH"
);
},
{
closed = 1;
nodes = (
"1296 2953 OFFCURVE",
"1448 2891 OFFCURVE",
"1560 2778 CURVE SMOOTH",
"1672 2666 OFFCURVE",
"1735 2514 OFFCURVE",
"1735 2356 CURVE SMOOTH",
"1735 2340 OFFCURVE",
"1722 2328 OFFCURVE",
"1707 2328 CURVE SMOOTH",
"1691 2328 OFFCURVE",
"1678 2340 OFFCURVE",
"1678 2356 CURVE SMOOTH",
"1678 2499 OFFCURVE",
"1621 2637 OFFCURVE",
"1520 2738 CURVE SMOOTH",
"1419 2840 OFFCURVE",
"1281 2897 OFFCURVE",
"1138 2897 CURVE SMOOTH",
"1122 2897 OFFCURVE",
"1109 2909 OFFCURVE",
"1109 2925 CURVE SMOOTH",
"1109 2941 OFFCURVE",
"1122 2953 OFFCURVE",
"1138 2953 CURVE SMOOTH"
);
},
{
closed = 1;
nodes = (
"585 597 OFFCURVE",
"597 585 OFFCURVE",
"597 569 CURVE SMOOTH",
"597 426 OFFCURVE",
"654 288 OFFCURVE",
"756 187 CURVE SMOOTH",
"857 85 OFFCURVE",
"994 28 OFFCURVE",
"1138 28 CURVE SMOOTH",
"1153 28 OFFCURVE",
"1166 16 OFFCURVE",
"1166 0 CURVE SMOOTH",
"1166 -16 OFFCURVE",
"1153 -28 OFFCURVE",
"1138 -28 CURVE SMOOTH",
"979 -28 OFFCURVE",
"827 34 OFFCURVE",
"715 147 CURVE SMOOTH",
"603 259 OFFCURVE",
"540 411 OFFCURVE",
"540 569 CURVE SMOOTH",
"540 585 OFFCURVE",
"553 597 OFFCURVE",
"569 597 CURVE SMOOTH"
);
},
{
closed = 1;
nodes = (
"1678 2356 LINE SMOOTH",
"1678 2372 OFFCURVE",
"1691 2385 OFFCURVE",
"1707 2385 CURVE SMOOTH",
"1722 2385 OFFCURVE",
"1735 2372 OFFCURVE",
"1735 2356 CURVE SMOOTH",
"1735 569 LINE SMOOTH",
"1735 554 OFFCURVE",
"1722 541 OFFCURVE",
"1707 541 CURVE SMOOTH",
"1691 541 OFFCURVE",
"1678 554 OFFCURVE",
"1678 569 CURVE SMOOTH"
);
}
);
width = 2275;
},
{
layerId = "19B6A511-96ED-40AF-BAB7-D1E16DFA4179";
paths = (
{
closed = 1;
nodes = (
"663 2527 OFFCURVE",
"740 2450 OFFCURVE",
"740 2356 CURVE SMOOTH",
"740 569 LINE SMOOTH",
"740 475 OFFCURVE",
"663 398 OFFCURVE",
"569 398 CURVE SMOOTH",
"475 398 OFFCURVE",
"398 475 OFFCURVE",
"398 569 CURVE SMOOTH",
"398 2356 LINE SMOOTH",
"398 2450 OFFCURVE",
"475 2527 OFFCURVE",
"569 2527 CURVE SMOOTH"
);
},
{
closed = 1;
nodes = (
"1232 3096 OFFCURVE",
"1308 3019 OFFCURVE",
"1308 2925 CURVE SMOOTH",
"1308 2831 OFFCURVE",
"1232 2754 OFFCURVE",
"1138 2754 CURVE SMOOTH",
"1032 2754 OFFCURVE",
"931 2712 OFFCURVE",
"856 2638 CURVE SMOOTH",
"781 2563 OFFCURVE",
"740 2462 OFFCURVE",
"740 2356 CURVE SMOOTH",
"740 2262 OFFCURVE",
"663 2186 OFFCURVE",
"569 2185 CURVE SMOOTH",
"475 2186 OFFCURVE",
"398 2262 OFFCURVE",
"398 2356 CURVE SMOOTH",
"398 2552 OFFCURVE",
"476 2740 OFFCURVE",
"615 2879 CURVE SMOOTH",
"754 3018 OFFCURVE",
"942 3096 OFFCURVE",
"1138 3096 CURVE SMOOTH"
);
},
{
closed = 1;
nodes = (
"1801 740 OFFCURVE",
"1877 663 OFFCURVE",
"1877 569 CURVE SMOOTH",
"1877 373 OFFCURVE",
"1799 185 OFFCURVE",
"1661 46 CURVE SMOOTH",
"1522 -93 OFFCURVE",
"1334 -171 OFFCURVE",
"1138 -171 CURVE SMOOTH",
"1044 -171 OFFCURVE",
"967 -94 OFFCURVE",
"967 0 CURVE SMOOTH",
"967 94 OFFCURVE",
"1044 171 OFFCURVE",
"1138 171 CURVE SMOOTH",
"1243 171 OFFCURVE",
"1345 213 OFFCURVE",
"1419 287 CURVE SMOOTH",
"1494 362 OFFCURVE",
"1536 463 OFFCURVE",
"1536 569 CURVE SMOOTH",
"1536 663 OFFCURVE",
"1612 740 OFFCURVE",
"1707 740 CURVE SMOOTH"
);
},
{
closed = 1;
nodes = (
"1334 3096 OFFCURVE",
"1522 3018 OFFCURVE",
"1661 2879 CURVE SMOOTH",
"1799 2740 OFFCURVE",
"1877 2552 OFFCURVE",
"1877 2356 CURVE SMOOTH",
"1877 2262 OFFCURVE",
"1801 2186 OFFCURVE",
"1707 2185 CURVE SMOOTH",
"1612 2186 OFFCURVE",
"1536 2262 OFFCURVE",
"1536 2356 CURVE SMOOTH",
"1536 2462 OFFCURVE",
"1494 2563 OFFCURVE",
"1419 2638 CURVE SMOOTH",
"1345 2712 OFFCURVE",
"1243 2754 OFFCURVE",
"1138 2754 CURVE SMOOTH",
"1044 2754 OFFCURVE",
"967 2831 OFFCURVE",
"967 2925 CURVE SMOOTH",
"967 3019 OFFCURVE",
"1044 3096 OFFCURVE",
"1138 3096 CURVE SMOOTH"
);
},
{
closed = 1;
nodes = (
"663 740 OFFCURVE",
"740 663 OFFCURVE",
"740 569 CURVE SMOOTH",
"740 463 OFFCURVE",
"781 362 OFFCURVE",
"856 287 CURVE SMOOTH",
"931 213 OFFCURVE",
"1032 171 OFFCURVE",
"1138 171 CURVE SMOOTH",
"1232 171 OFFCURVE",
"1308 94 OFFCURVE",
"1308 0 CURVE SMOOTH",
"1308 -94 OFFCURVE",
"1232 -171 OFFCURVE",
"1138 -171 CURVE SMOOTH",
"942 -171 OFFCURVE",
"754 -93 OFFCURVE",
"615 46 CURVE SMOOTH",
"476 185 OFFCURVE",
"398 373 OFFCURVE",
"398 569 CURVE SMOOTH",
"398 663 OFFCURVE",
"475 740 OFFCURVE",
"569 740 CURVE SMOOTH"
);
},
{
closed = 1;
nodes = (
"1536 2356 LINE SMOOTH",
"1536 2450 OFFCURVE",
"1612 2527 OFFCURVE",
"1707 2527 CURVE SMOOTH",
"1801 2527 OFFCURVE",
"1877 2450 OFFCURVE",
"1877 2356 CURVE SMOOTH",
"1877 569 LINE SMOOTH",
"1877 475 OFFCURVE",
"1801 398 OFFCURVE",
"1707 398 CURVE SMOOTH",
"1612 398 OFFCURVE",
"1536 475 OFFCURVE",
"1536 569 CURVE SMOOTH"
);
}
);
width = 2275;
}
);
leftKerningGroup = c;
rightKerningGroup = c;
unicode = 006F;
},
{
glyphname = e;
lastChange = "2021-01-30 08:49:12 +0000";
layers = (
{
layerId = master01;
paths = (
{
closed = 1;
nodes = (
"585 2385 OFFCURVE",
"597 2372 OFFCURVE",
"597 2356 CURVE SMOOTH",
"597 569 LINE SMOOTH",
"597 553 OFFCURVE",
"585 541 OFFCURVE",
"569 540 CURVE SMOOTH",
"553 541 OFFCURVE",
"540 553 OFFCURVE",
"540 569 CURVE SMOOTH",
"540 2356 LINE SMOOTH",
"540 2372 OFFCURVE",
"553 2385 OFFCURVE",
"569 2385 CURVE SMOOTH"
);
},
{
closed = 1;
nodes = (
"1153 2953 OFFCURVE",
"1166 2941 OFFCURVE",
"1166 2925 CURVE SMOOTH",
"1166 2909 OFFCURVE",
"1153 2897 OFFCURVE",
"1138 2897 CURVE SMOOTH",
"994 2897 OFFCURVE",
"857 2840 OFFCURVE",
"756 2738 CURVE SMOOTH",
"654 2637 OFFCURVE",
"597 2499 OFFCURVE",
"597 2356 CURVE SMOOTH",
"597 2340 OFFCURVE",
"585 2328 OFFCURVE",
"569 2328 CURVE SMOOTH",
"553 2328 OFFCURVE",
"540 2340 OFFCURVE",
"540 2356 CURVE SMOOTH",
"540 2515 OFFCURVE",
"603 2667 OFFCURVE",
"715 2779 CURVE SMOOTH",
"827 2891 OFFCURVE",
"979 2953 OFFCURVE",
"1138 2953 CURVE SMOOTH"
);
},
{
closed = 1;
nodes = (
"1722 597 OFFCURVE",
"1735 585 OFFCURVE",
"1735 569 CURVE SMOOTH",
"1735 411 OFFCURVE",
"1672 259 OFFCURVE",
"1560 147 CURVE SMOOTH",
"1448 34 OFFCURVE",
"1296 -28 OFFCURVE",
"1138 -28 CURVE SMOOTH",
"1122 -28 OFFCURVE",
"1109 -16 OFFCURVE",
"1109 0 CURVE SMOOTH",
"1109 16 OFFCURVE",
"1122 28 OFFCURVE",
"1138 28 CURVE SMOOTH",
"1281 28 OFFCURVE",
"1419 85 OFFCURVE",
"1520 187 CURVE SMOOTH",
"1621 288 OFFCURVE",
"1678 426 OFFCURVE",
"1678 569 CURVE SMOOTH",
"1678 585 OFFCURVE",
"1691 597 OFFCURVE",
"1707 597 CURVE SMOOTH"
);
},
{
closed = 1;
nodes = (
"1296 2953 OFFCURVE",
"1448 2891 OFFCURVE",
"1560 2778 CURVE SMOOTH",
"1672 2666 OFFCURVE",
"1735 2514 OFFCURVE",
"1735 2356 CURVE SMOOTH",
"1735 2340 OFFCURVE",
"1722 2328 OFFCURVE",
"1707 2328 CURVE SMOOTH",
"1691 2328 OFFCURVE",
"1678 2340 OFFCURVE",
"1678 2356 CURVE SMOOTH",
"1678 2499 OFFCURVE",
"1621 2637 OFFCURVE",
"1520 2738 CURVE SMOOTH",
"1419 2840 OFFCURVE",
"1281 2897 OFFCURVE",
"1138 2897 CURVE SMOOTH",
"1122 2897 OFFCURVE",
"1109 2909 OFFCURVE",
"1109 2925 CURVE SMOOTH",
"1109 2941 OFFCURVE",
"1122 2953 OFFCURVE",
"1138 2953 CURVE SMOOTH"
);
},
{
closed = 1;
nodes = (
"1722 2385 OFFCURVE",
"1735 2372 OFFCURVE",
"1735 2356 CURVE SMOOTH",
"1735 2014 OFFCURVE",
"1442 1726 OFFCURVE",
"1158 1442 CURVE SMOOTH",
"873 1158 OFFCURVE",
"597 878 OFFCURVE",
"597 569 CURVE SMOOTH",
"597 553 OFFCURVE",
"585 541 OFFCURVE",
"569 540 CURVE SMOOTH",
"553 541 OFFCURVE",
"540 553 OFFCURVE",
"540 569 CURVE SMOOTH",
"540 911 OFFCURVE",
"833 1199 OFFCURVE",
"1118 1483 CURVE SMOOTH",
"1402 1767 OFFCURVE",
"1678 2047 OFFCURVE",
"1678 2356 CURVE SMOOTH",
"1678 2372 OFFCURVE",
"1691 2385 OFFCURVE",
"1707 2385 CURVE SMOOTH"
);
},
{
closed = 1;
nodes = (
"540 585 OFFCURVE",
"553 598 OFFCURVE",
"569 598 CURVE SMOOTH",
"585 598 OFFCURVE",
"597 585 OFFCURVE",
"597 569 CURVE SMOOTH",
"597 426 OFFCURVE",
"654 288 OFFCURVE",
"756 187 CURVE SMOOTH",
"857 86 OFFCURVE",
"994 29 OFFCURVE",
"1138 29 CURVE SMOOTH",
"1153 29 OFFCURVE",
"1166 16 OFFCURVE",
"1166 0 CURVE SMOOTH",
"1166 -15 OFFCURVE",
"1153 -28 OFFCURVE",
"1138 -28 CURVE SMOOTH",
"979 -28 OFFCURVE",
"827 35 OFFCURVE",
"715 147 CURVE SMOOTH",
"603 259 OFFCURVE",
"540 411 OFFCURVE",
"540 569 CURVE SMOOTH"
);
}
);
width = 2275;
},
{
layerId = "19B6A511-96ED-40AF-BAB7-D1E16DFA4179";
paths = (
{
closed = 1;
nodes = (
"663 2527 OFFCURVE",
"740 2450 OFFCURVE",
"740 2356 CURVE SMOOTH",
"740 569 LINE SMOOTH",
"740 475 OFFCURVE",
"663 398 OFFCURVE",
"569 398 CURVE SMOOTH",
"475 398 OFFCURVE",
"398 475 OFFCURVE",
"398 569 CURVE SMOOTH",
"398 2356 LINE SMOOTH",
"398 2450 OFFCURVE",
"475 2527 OFFCURVE",
"569 2527 CURVE SMOOTH"
);
},
{
closed = 1;
nodes = (
"1232 3096 OFFCURVE",
"1308 3019 OFFCURVE",
"1308 2925 CURVE SMOOTH",
"1308 2831 OFFCURVE",
"1232 2754 OFFCURVE",
"1138 2754 CURVE SMOOTH",
"1032 2754 OFFCURVE",
"931 2712 OFFCURVE",
"856 2638 CURVE SMOOTH",
"781 2563 OFFCURVE",
"740 2462 OFFCURVE",
"740 2356 CURVE SMOOTH",
"740 2262 OFFCURVE",
"663 2186 OFFCURVE",
"569 2185 CURVE SMOOTH",
"475 2186 OFFCURVE",
"398 2262 OFFCURVE",
"398 2356 CURVE SMOOTH",
"398 2552 OFFCURVE",
"476 2740 OFFCURVE",
"615 2879 CURVE SMOOTH",
"754 3018 OFFCURVE",
"942 3096 OFFCURVE",
"1138 3096 CURVE SMOOTH"
);
},
{
closed = 1;
nodes = (
"1801 740 OFFCURVE",
"1877 663 OFFCURVE",
"1877 569 CURVE SMOOTH",
"1877 373 OFFCURVE",
"1799 185 OFFCURVE",
"1661 46 CURVE SMOOTH",
"1522 -93 OFFCURVE",
"1334 -171 OFFCURVE",
"1138 -171 CURVE SMOOTH",
"1044 -171 OFFCURVE",
"967 -94 OFFCURVE",
"967 0 CURVE SMOOTH",
"967 94 OFFCURVE",
"1044 171 OFFCURVE",
"1138 171 CURVE SMOOTH",
"1243 171 OFFCURVE",
"1345 213 OFFCURVE",
"1419 287 CURVE SMOOTH",
"1494 362 OFFCURVE",
"1536 463 OFFCURVE",
"1536 569 CURVE SMOOTH",
"1536 663 OFFCURVE",
"1612 740 OFFCURVE",
"1707 740 CURVE SMOOTH"
);
},
{
closed = 1;
nodes = (
"1334 3096 OFFCURVE",
"1522 3018 OFFCURVE",
"1661 2879 CURVE SMOOTH",
"1799 2740 OFFCURVE",
"1877 2552 OFFCURVE",
"1877 2356 CURVE SMOOTH",
"1877 2262 OFFCURVE",
"1801 2186 OFFCURVE",
"1707 2185 CURVE SMOOTH",
"1612 2186 OFFCURVE",
"1536 2262 OFFCURVE",
"1536 2356 CURVE SMOOTH",
"1536 2462 OFFCURVE",
"1494 2563 OFFCURVE",
"1419 2638 CURVE SMOOTH",
"1345 2712 OFFCURVE",
"1243 2754 OFFCURVE",
"1138 2754 CURVE SMOOTH",
"1044 2754 OFFCURVE",
"967 2831 OFFCURVE",
"967 2925 CURVE SMOOTH",
"967 3019 OFFCURVE",
"1044 3096 OFFCURVE",
"1138 3096 CURVE SMOOTH"
);
},
{
closed = 1;
nodes = (
"1801 2527 OFFCURVE",
"1877 2450 OFFCURVE",
"1877 2356 CURVE SMOOTH",
"1877 1931 OFFCURVE",
"1543 1626 OFFCURVE",
"1258 1342 CURVE SMOOTH",
"974 1058 OFFCURVE",
"740 795 OFFCURVE",
"740 569 CURVE SMOOTH",
"740 475 OFFCURVE",
"663 398 OFFCURVE",
"569 398 CURVE SMOOTH",
"475 398 OFFCURVE",
"398 475 OFFCURVE",
"398 569 CURVE SMOOTH",
"398 994 OFFCURVE",
"733 1299 OFFCURVE",
"1017 1583 CURVE SMOOTH",
"1302 1867 OFFCURVE",
"1536 2130 OFFCURVE",
"1536 2356 CURVE SMOOTH",
"1536 2450 OFFCURVE",
"1612 2527 OFFCURVE",
"1707 2527 CURVE SMOOTH"
);
},
{
closed = 1;
nodes = (
"398 663 OFFCURVE",
"475 740 OFFCURVE",
"569 740 CURVE SMOOTH",
"663 740 OFFCURVE",
"740 663 OFFCURVE",
"740 569 CURVE SMOOTH",
"740 463 OFFCURVE",
"781 362 OFFCURVE",
"856 287 CURVE SMOOTH",
"931 213 OFFCURVE",
"1032 171 OFFCURVE",
"1138 171 CURVE SMOOTH",
"1232 171 OFFCURVE",
"1308 94 OFFCURVE",
"1308 0 CURVE SMOOTH",
"1308 -94 OFFCURVE",
"1232 -171 OFFCURVE",
"1138 -171 CURVE SMOOTH",
"942 -171 OFFCURVE",
"754 -93 OFFCURVE",
"615 46 CURVE SMOOTH",
"476 185 OFFCURVE",
"398 373 OFFCURVE",
"398 569 CURVE SMOOTH"
);
}
);
width = 2275;
}
);
leftKerningGroup = c;
rightKerningGroup = c;
unicode = 0065;
},
{
glyphname = E;
lastChange = "2021-01-30 08:49:12 +0000";
layers = (
{
layerId = master01;
paths = (
{
closed = 1;
nodes = (
"585 2385 OFFCURVE",
"597 2372 OFFCURVE",
"597 2356 CURVE SMOOTH",
"597 569 LINE SMOOTH",
"597 553 OFFCURVE",
"585 541 OFFCURVE",
"569 540 CURVE SMOOTH",
"553 541 OFFCURVE",
"540 553 OFFCURVE",
"540 569 CURVE SMOOTH",
"540 2356 LINE SMOOTH",
"540 2372 OFFCURVE",
"553 2385 OFFCURVE",
"569 2385 CURVE SMOOTH"
);
},
{
closed = 1;
nodes = (
"1153 2953 OFFCURVE",
"1166 2941 OFFCURVE",
"1166 2925 CURVE SMOOTH",
"1166 2909 OFFCURVE",
"1153 2897 OFFCURVE",
"1138 2897 CURVE SMOOTH",
"994 2897 OFFCURVE",
"857 2840 OFFCURVE",
"756 2738 CURVE SMOOTH",
"654 2637 OFFCURVE",
"597 2499 OFFCURVE",
"597 2356 CURVE SMOOTH",
"597 2340 OFFCURVE",
"585 2328 OFFCURVE",
"569 2328 CURVE SMOOTH",
"553 2328 OFFCURVE",
"540 2340 OFFCURVE",
"540 2356 CURVE SMOOTH",
"540 2515 OFFCURVE",
"603 2667 OFFCURVE",
"715 2779 CURVE SMOOTH",
"827 2891 OFFCURVE",
"979 2953 OFFCURVE",
"1138 2953 CURVE SMOOTH"
);
},
{
closed = 1;
nodes = (
"1722 597 OFFCURVE",
"1735 585 OFFCURVE",
"1735 569 CURVE SMOOTH",
"1735 411 OFFCURVE",
"1672 259 OFFCURVE",
"1560 147 CURVE SMOOTH",
"1448 34 OFFCURVE",
"1296 -28 OFFCURVE",
"1138 -28 CURVE SMOOTH",
"1122 -28 OFFCURVE",
"1109 -16 OFFCURVE",
"1109 0 CURVE SMOOTH",
"1109 16 OFFCURVE",
"1122 28 OFFCURVE",
"1138 28 CURVE SMOOTH",
"1281 28 OFFCURVE",
"1419 85 OFFCURVE",
"1520 187 CURVE SMOOTH",
"1621 288 OFFCURVE",
"1678 426 OFFCURVE",
"1678 569 CURVE SMOOTH",
"1678 585 OFFCURVE",
"1691 597 OFFCURVE",
"1707 597 CURVE SMOOTH"
);
},
{
closed = 1;
nodes = (
"1296 2953 OFFCURVE",
"1448 2891 OFFCURVE",
"1560 2778 CURVE SMOOTH",
"1672 2666 OFFCURVE",
"1735 2514 OFFCURVE",
"1735 2356 CURVE SMOOTH",
"1735 2340 OFFCURVE",
"1722 2328 OFFCURVE",
"1707 2328 CURVE SMOOTH",
"1691 2328 OFFCURVE",
"1678 2340 OFFCURVE",
"1678 2356 CURVE SMOOTH",
"1678 2499 OFFCURVE",
"1621 2637 OFFCURVE",
"1520 2738 CURVE SMOOTH",
"1419 2840 OFFCURVE",
"1281 2897 OFFCURVE",
"1138 2897 CURVE SMOOTH",
"1122 2897 OFFCURVE",
"1109 2909 OFFCURVE",
"1109 2925 CURVE SMOOTH",
"1109 2941 OFFCURVE",
"1122 2953 OFFCURVE",
"1138 2953 CURVE SMOOTH"
);
},
{
closed = 1;
nodes = (
"585 597 OFFCURVE",
"597 585 OFFCURVE",
"597 569 CURVE SMOOTH",
"597 426 OFFCURVE",
"654 288 OFFCURVE",
"756 187 CURVE SMOOTH",
"857 85 OFFCURVE",
"994 28 OFFCURVE",
"1138 28 CURVE SMOOTH",
"1153 28 OFFCURVE",
"1166 16 OFFCURVE",
"1166 0 CURVE SMOOTH",
"1166 -16 OFFCURVE",
"1153 -28 OFFCURVE",
"1138 -28 CURVE SMOOTH",
"979 -28 OFFCURVE",
"827 34 OFFCURVE",
"715 147 CURVE SMOOTH",
"603 259 OFFCURVE",
"540 411 OFFCURVE",
"540 569 CURVE SMOOTH",
"540 585 OFFCURVE",
"553 597 OFFCURVE",
"569 597 CURVE SMOOTH"
);
},
{
closed = 1;
nodes = (
"540 1479 OFFCURVE",
"553 1491 OFFCURVE",
"569 1491 CURVE SMOOTH",
"1138 1491 LINE SMOOTH",
"1153 1491 OFFCURVE",
"1166 1479 OFFCURVE",
"1166 1463 CURVE SMOOTH",
"1166 1447 OFFCURVE",
"1153 1434 OFFCURVE",
"1138 1434 CURVE SMOOTH",
"569 1434 LINE SMOOTH",
"553 1434 OFFCURVE",
"540 1447 OFFCURVE",
"540 1463 CURVE SMOOTH"
);
}
);
width = 2275;
},
{
layerId = "19B6A511-96ED-40AF-BAB7-D1E16DFA4179";
paths = (
{
closed = 1;
nodes = (
"663 2527 OFFCURVE",
"740 2450 OFFCURVE",
"740 2356 CURVE SMOOTH",
"740 569 LINE SMOOTH",
"740 475 OFFCURVE",
"663 398 OFFCURVE",
"569 398 CURVE SMOOTH",
"475 398 OFFCURVE",
"398 475 OFFCURVE",
"398 569 CURVE SMOOTH",
"398 2356 LINE SMOOTH",
"398 2450 OFFCURVE",
"475 2527 OFFCURVE",
"569 2527 CURVE SMOOTH"
);
},
{
closed = 1;
nodes = (
"1232 3096 OFFCURVE",
"1308 3019 OFFCURVE",
"1308 2925 CURVE SMOOTH",
"1308 2831 OFFCURVE",
"1232 2754 OFFCURVE",
"1138 2754 CURVE SMOOTH",
"1032 2754 OFFCURVE",
"931 2712 OFFCURVE",
"856 2638 CURVE SMOOTH",
"781 2563 OFFCURVE",
"740 2462 OFFCURVE",
"740 2356 CURVE SMOOTH",
"740 2262 OFFCURVE",
"663 2186 OFFCURVE",
"569 2185 CURVE SMOOTH",
"475 2186 OFFCURVE",
"398 2262 OFFCURVE",
"398 2356 CURVE SMOOTH",
"398 2552 OFFCURVE",
"476 2740 OFFCURVE",
"615 2879 CURVE SMOOTH",
"754 3018 OFFCURVE",
"942 3096 OFFCURVE",
"1138 3096 CURVE SMOOTH"
);
},
{
closed = 1;
nodes = (
"1801 740 OFFCURVE",
"1877 663 OFFCURVE",
"1877 569 CURVE SMOOTH",
"1877 373 OFFCURVE",
"1799 185 OFFCURVE",
"1661 46 CURVE SMOOTH",
"1522 -93 OFFCURVE",
"1334 -171 OFFCURVE",
"1138 -171 CURVE SMOOTH",
"1044 -171 OFFCURVE",
"967 -94 OFFCURVE",
"967 0 CURVE SMOOTH",
"967 94 OFFCURVE",
"1044 171 OFFCURVE",
"1138 171 CURVE SMOOTH",
"1243 171 OFFCURVE",
"1345 213 OFFCURVE",
"1419 287 CURVE SMOOTH",
"1494 362 OFFCURVE",
"1536 463 OFFCURVE",
"1536 569 CURVE SMOOTH",
"1536 663 OFFCURVE",
"1612 740 OFFCURVE",
"1707 740 CURVE SMOOTH"
);
},
{
closed = 1;
nodes = (
"1334 3096 OFFCURVE",
"1522 3018 OFFCURVE",
"1661 2879 CURVE SMOOTH",
"1799 2740 OFFCURVE",
"1877 2552 OFFCURVE",
"1877 2356 CURVE SMOOTH",
"1877 2262 OFFCURVE",
"1801 2186 OFFCURVE",
"1707 2185 CURVE SMOOTH",
"1612 2186 OFFCURVE",
"1536 2262 OFFCURVE",
"1536 2356 CURVE SMOOTH",
"1536 2462 OFFCURVE",
"1494 2563 OFFCURVE",
"1419 2638 CURVE SMOOTH",
"1345 2712 OFFCURVE",
"1243 2754 OFFCURVE",
"1138 2754 CURVE SMOOTH",
"1044 2754 OFFCURVE",
"967 2831 OFFCURVE",
"967 2925 CURVE SMOOTH",
"967 3019 OFFCURVE",
"1044 3096 OFFCURVE",
"1138 3096 CURVE SMOOTH"
);
},
{
closed = 1;
nodes = (
"663 740 OFFCURVE",
"740 663 OFFCURVE",
"740 569 CURVE SMOOTH",
"740 463 OFFCURVE",
"781 362 OFFCURVE",
"856 287 CURVE SMOOTH",
"931 213 OFFCURVE",
"1032 171 OFFCURVE",
"1138 171 CURVE SMOOTH",
"1232 171 OFFCURVE",
"1308 94 OFFCURVE",
"1308 0 CURVE SMOOTH",
"1308 -94 OFFCURVE",
"1232 -171 OFFCURVE",
"1138 -171 CURVE SMOOTH",
"942 -171 OFFCURVE",
"754 -93 OFFCURVE",
"615 46 CURVE SMOOTH",
"476 185 OFFCURVE",
"398 373 OFFCURVE",
"398 569 CURVE SMOOTH",
"398 663 OFFCURVE",
"475 740 OFFCURVE",
"569 740 CURVE SMOOTH"
);
},
{
closed = 1;
nodes = (
"398 1557 OFFCURVE",
"475 1633 OFFCURVE",
"569 1633 CURVE SMOOTH",
"1138 1633 LINE SMOOTH",
"1232 1633 OFFCURVE",
"1308 1557 OFFCURVE",
"1308 1463 CURVE SMOOTH",
"1308 1368 OFFCURVE",
"1232 1292 OFFCURVE",
"1138 1292 CURVE SMOOTH",
"569 1292 LINE SMOOTH",
"475 1292 OFFCURVE",
"398 1368 OFFCURVE",
"398 1463 CURVE SMOOTH"
);
}
);
width = 2275;
}
);
leftKerningGroup = c;
rightKerningGroup = c;
unicode = 0045;
},
{
glyphname = A;
lastChange = "2021-01-30 08:49:12 +0000";
layers = (
{
layerId = master01;
paths = (
{
closed = 1;
nodes = (
"540 2925 LINE SMOOTH",
"540 2941 OFFCURVE",
"553 2953 OFFCURVE",
"569 2953 CURVE SMOOTH",
"585 2953 OFFCURVE",
"597 2941 OFFCURVE",
"597 2925 CURVE SMOOTH",
"597 1491 LINE",
"1678 1491 LINE",
"1678 2925 LINE SMOOTH",
"1678 2941 OFFCURVE",
"1691 2953 OFFCURVE",
"1707 2953 CURVE SMOOTH",
"1722 2953 OFFCURVE",
"1735 2941 OFFCURVE",
"1735 2925 CURVE SMOOTH",
"1735 569 LINE SMOOTH",
"1735 411 OFFCURVE",
"1672 259 OFFCURVE",
"1560 147 CURVE SMOOTH",
"1448 34 OFFCURVE",
"1296 -28 OFFCURVE",
"1138 -28 CURVE SMOOTH",
"979 -28 OFFCURVE",
"827 34 OFFCURVE",
"715 147 CURVE SMOOTH",
"603 259 OFFCURVE",
"540 411 OFFCURVE",
"540 569 CURVE SMOOTH"
);
},
{
closed = 1;
nodes = (
"597 426 OFFCURVE",
"654 288 OFFCURVE",
"756 187 CURVE SMOOTH",
"857 85 OFFCURVE",
"994 28 OFFCURVE",
"1138 28 CURVE SMOOTH",
"1281 28 OFFCURVE",
"1419 85 OFFCURVE",
"1520 187 CURVE SMOOTH",
"1621 288 OFFCURVE",
"1678 426 OFFCURVE",
"1678 569 CURVE SMOOTH",
"1678 1434 LINE",
"597 1434 LINE",
"597 569 LINE SMOOTH"
);
}
);
width = 2275;
},
{
layerId = "19B6A511-96ED-40AF-BAB7-D1E16DFA4179";
paths = (
{
closed = 1;
nodes = (
"398 2925 LINE SMOOTH",
"398 3019 OFFCURVE",
"475 3096 OFFCURVE",
"569 3096 CURVE SMOOTH",
"663 3096 OFFCURVE",
"740 3019 OFFCURVE",
"740 2925 CURVE SMOOTH",
"740 1633 LINE",
"1536 1633 LINE",
"1536 2925 LINE SMOOTH",
"1536 3019 OFFCURVE",
"1612 3096 OFFCURVE",
"1707 3096 CURVE SMOOTH",
"1801 3096 OFFCURVE",
"1877 3019 OFFCURVE",
"1877 2925 CURVE SMOOTH",
"1877 569 LINE SMOOTH",
"1877 373 OFFCURVE",
"1799 185 OFFCURVE",
"1661 46 CURVE SMOOTH",
"1522 -93 OFFCURVE",
"1334 -171 OFFCURVE",
"1138 -171 CURVE SMOOTH",
"942 -171 OFFCURVE",
"754 -93 OFFCURVE",
"615 46 CURVE SMOOTH",
"476 185 OFFCURVE",
"398 373 OFFCURVE",
"398 569 CURVE SMOOTH"
);
},
{
closed = 1;
nodes = (
"740 463 OFFCURVE",
"781 362 OFFCURVE",
"856 287 CURVE SMOOTH",
"931 213 OFFCURVE",
"1032 171 OFFCURVE",
"1138 171 CURVE SMOOTH",
"1243 171 OFFCURVE",
"1345 213 OFFCURVE",
"1419 287 CURVE SMOOTH",
"1494 362 OFFCURVE",
"1536 463 OFFCURVE",
"1536 569 CURVE SMOOTH",
"1536 1292 LINE",
"740 1292 LINE",
"740 569 LINE SMOOTH"
);
}
);
width = 2275;
}
);
leftKerningGroup = c;
rightKerningGroup = c;
unicode = 0041;
},
{
glyphname = Y;
lastChange = "2021-01-30 08:49:12 +0000";
layers = (
{
layerId = master01;
paths = (
{
closed = 1;
nodes = (
"585 2953 OFFCURVE",
"597 2941 OFFCURVE",
"597 2925 CURVE SMOOTH",
"597 2356 LINE SMOOTH",
"597 2340 OFFCURVE",
"585 2328 OFFCURVE",
"569 2328 CURVE SMOOTH",
"553 2328 OFFCURVE",
"540 2340 OFFCURVE",
"540 2356 CURVE SMOOTH",
"540 2925 LINE SMOOTH",
"540 2941 OFFCURVE",
"553 2953 OFFCURVE",
"569 2953 CURVE SMOOTH"
);
},
{
closed = 1;
nodes = (
"585 2385 OFFCURVE",
"597 2372 OFFCURVE",
"597 2356 CURVE SMOOTH",
"597 2047 OFFCURVE",
"873 1767 OFFCURVE",
"1158 1483 CURVE SMOOTH",
"1442 1199 OFFCURVE",
"1735 911 OFFCURVE",
"1735 569 CURVE SMOOTH",
"1735 553 OFFCURVE",
"1722 541 OFFCURVE",
"1707 540 CURVE SMOOTH",
"1691 541 OFFCURVE",
"1678 553 OFFCURVE",
"1678 569 CURVE SMOOTH",
"1678 878 OFFCURVE",
"1402 1158 OFFCURVE",
"1118 1442 CURVE SMOOTH",
"833 1726 OFFCURVE",
"540 2014 OFFCURVE",
"540 2356 CURVE SMOOTH",
"540 2372 OFFCURVE",
"553 2385 OFFCURVE",
"569 2385 CURVE SMOOTH"
);
},
{
closed = 1;
nodes = (
"1722 597 OFFCURVE",
"1735 585 OFFCURVE",
"1735 569 CURVE SMOOTH",
"1735 411 OFFCURVE",
"1672 259 OFFCURVE",
"1560 147 CURVE SMOOTH",
"1448 34 OFFCURVE",
"1296 -28 OFFCURVE",
"1138 -28 CURVE SMOOTH",
"1122 -28 OFFCURVE",
"1109 -16 OFFCURVE",
"1109 0 CURVE SMOOTH",
"1109 16 OFFCURVE",
"1122 28 OFFCURVE",
"1138 28 CURVE SMOOTH",
"1281 28 OFFCURVE",
"1419 85 OFFCURVE",
"1520 187 CURVE SMOOTH",
"1621 288 OFFCURVE",
"1678 426 OFFCURVE",
"1678 569 CURVE SMOOTH",
"1678 585 OFFCURVE",
"1691 597 OFFCURVE",
"1707 597 CURVE SMOOTH"
);
},
{
closed = 1;
nodes = (
"1722 2385 OFFCURVE",
"1735 2372 OFFCURVE",
"1735 2356 CURVE SMOOTH",
"1735 2014 OFFCURVE",
"1442 1726 OFFCURVE",
"1158 1442 CURVE SMOOTH",
"873 1158 OFFCURVE",
"597 878 OFFCURVE",
"597 569 CURVE SMOOTH",
"597 553 OFFCURVE",
"585 541 OFFCURVE",
"569 540 CURVE SMOOTH",
"553 541 OFFCURVE",
"540 553 OFFCURVE",
"540 569 CURVE SMOOTH",
"540 911 OFFCURVE",
"833 1199 OFFCURVE",
"1118 1483 CURVE SMOOTH",
"1402 1767 OFFCURVE",
"1678 2047 OFFCURVE",
"1678 2356 CURVE SMOOTH",
"1678 2372 OFFCURVE",
"1691 2385 OFFCURVE",
"1707 2385 CURVE SMOOTH"
);
},
{
closed = 1;
nodes = (
"585 597 OFFCURVE",
"597 585 OFFCURVE",
"597 569 CURVE SMOOTH",
"597 426 OFFCURVE",
"654 288 OFFCURVE",
"756 187 CURVE SMOOTH",
"857 85 OFFCURVE",
"994 28 OFFCURVE",
"1138 28 CURVE SMOOTH",
"1153 28 OFFCURVE",
"1166 16 OFFCURVE",
"1166 0 CURVE SMOOTH",
"1166 -16 OFFCURVE",
"1153 -28 OFFCURVE",
"1138 -28 CURVE SMOOTH",
"979 -28 OFFCURVE",
"827 34 OFFCURVE",
"715 147 CURVE SMOOTH",
"603 259 OFFCURVE",
"540 411 OFFCURVE",
"540 569 CURVE SMOOTH",
"540 585 OFFCURVE",
"553 597 OFFCURVE",
"569 597 CURVE SMOOTH"
);
},
{
closed = 1;
nodes = (
"1678 2925 LINE SMOOTH",
"1678 2941 OFFCURVE",
"1691 2954 OFFCURVE",
"1707 2954 CURVE SMOOTH",
"1722 2954 OFFCURVE",
"1735 2941 OFFCURVE",
"1735 2925 CURVE SMOOTH",
"1735 2356 LINE SMOOTH",
"1735 2341 OFFCURVE",
"1722 2328 OFFCURVE",
"1707 2328 CURVE SMOOTH",
"1691 2328 OFFCURVE",
"1678 2341 OFFCURVE",
"1678 2356 CURVE SMOOTH"
);
}
);
width = 2275;
},
{
layerId = "19B6A511-96ED-40AF-BAB7-D1E16DFA4179";
paths = (
{
closed = 1;
nodes = (
"663 3096 OFFCURVE",
"740 3019 OFFCURVE",
"740 2925 CURVE SMOOTH",
"740 2356 LINE SMOOTH",
"740 2262 OFFCURVE",
"663 2186 OFFCURVE",
"569 2185 CURVE SMOOTH",
"475 2186 OFFCURVE",
"398 2262 OFFCURVE",
"398 2356 CURVE SMOOTH",
"398 2925 LINE SMOOTH",
"398 3019 OFFCURVE",
"475 3096 OFFCURVE",
"569 3096 CURVE SMOOTH"
);
},
{
closed = 1;
nodes = (
"663 2527 OFFCURVE",
"740 2450 OFFCURVE",
"740 2356 CURVE SMOOTH",
"740 2130 OFFCURVE",
"974 1867 OFFCURVE",
"1258 1583 CURVE SMOOTH",
"1543 1299 OFFCURVE",
"1877 994 OFFCURVE",
"1877 569 CURVE SMOOTH",
"1877 475 OFFCURVE",
"1801 398 OFFCURVE",
"1707 398 CURVE SMOOTH",
"1612 398 OFFCURVE",
"1536 475 OFFCURVE",
"1536 569 CURVE SMOOTH",
"1536 795 OFFCURVE",
"1302 1058 OFFCURVE",
"1017 1342 CURVE SMOOTH",
"733 1626 OFFCURVE",
"398 1931 OFFCURVE",
"398 2356 CURVE SMOOTH",
"398 2450 OFFCURVE",
"475 2527 OFFCURVE",
"569 2527 CURVE SMOOTH"
);
},
{
closed = 1;
nodes = (
"1801 740 OFFCURVE",
"1877 663 OFFCURVE",
"1877 569 CURVE SMOOTH",
"1877 373 OFFCURVE",
"1799 185 OFFCURVE",
"1661 46 CURVE SMOOTH",
"1522 -93 OFFCURVE",
"1334 -171 OFFCURVE",
"1138 -171 CURVE SMOOTH",
"1044 -171 OFFCURVE",
"967 -94 OFFCURVE",
"967 0 CURVE SMOOTH",
"967 94 OFFCURVE",
"1044 171 OFFCURVE",
"1138 171 CURVE SMOOTH",
"1243 171 OFFCURVE",
"1345 213 OFFCURVE",
"1419 287 CURVE SMOOTH",
"1494 362 OFFCURVE",
"1536 463 OFFCURVE",
"1536 569 CURVE SMOOTH",
"1536 663 OFFCURVE",
"1612 740 OFFCURVE",
"1707 740 CURVE SMOOTH"
);
},
{
closed = 1;
nodes = (
"1801 2527 OFFCURVE",
"1877 2450 OFFCURVE",
"1877 2356 CURVE SMOOTH",
"1877 1931 OFFCURVE",
"1543 1626 OFFCURVE",
"1258 1342 CURVE SMOOTH",
"974 1058 OFFCURVE",
"740 795 OFFCURVE",
"740 569 CURVE SMOOTH",
"740 475 OFFCURVE",
"663 398 OFFCURVE",
"569 398 CURVE SMOOTH",
"475 398 OFFCURVE",
"398 475 OFFCURVE",
"398 569 CURVE SMOOTH",
"398 994 OFFCURVE",
"733 1299 OFFCURVE",
"1017 1583 CURVE SMOOTH",
"1302 1867 OFFCURVE",
"1536 2130 OFFCURVE",
"1536 2356 CURVE SMOOTH",
"1536 2450 OFFCURVE",
"1612 2527 OFFCURVE",
"1707 2527 CURVE SMOOTH"
);
},
{
closed = 1;
nodes = (
"663 740 OFFCURVE",
"740 663 OFFCURVE",
"740 569 CURVE SMOOTH",
"740 463 OFFCURVE",
"781 362 OFFCURVE",
"856 287 CURVE SMOOTH",
"931 213 OFFCURVE",
"1032 171 OFFCURVE",
"1138 171 CURVE SMOOTH",
"1232 171 OFFCURVE",
"1308 94 OFFCURVE",
"1308 0 CURVE SMOOTH",
"1308 -94 OFFCURVE",
"1232 -171 OFFCURVE",
"1138 -171 CURVE SMOOTH",
"942 -171 OFFCURVE",
"754 -93 OFFCURVE",
"615 46 CURVE SMOOTH",
"476 185 OFFCURVE",
"398 373 OFFCURVE",
"398 569 CURVE SMOOTH",
"398 663 OFFCURVE",
"475 740 OFFCURVE",
"569 740 CURVE SMOOTH"
);
},
{
closed = 1;
nodes = (
"1536 2925 LINE SMOOTH",
"1536 3019 OFFCURVE",
"1612 3096 OFFCURVE",
"1707 3096 CURVE SMOOTH",
"1801 3096 OFFCURVE",
"1877 3019 OFFCURVE",
"1877 2925 CURVE SMOOTH",
"1877 2356 LINE SMOOTH",
"1877 2262 OFFCURVE",
"1801 2186 OFFCURVE",
"1707 2185 CURVE SMOOTH",
"1612 2186 OFFCURVE",
"1536 2262 OFFCURVE",
"1536 2356 CURVE SMOOTH"
);
}
);
width = 2275;
}
);
leftKerningGroup = c;
rightKerningGroup = c;
unicode = 0059;
},
{
glyphname = L;
lastChange = "2021-01-30 08:49:12 +0000";
layers = (
{
layerId = master01;
paths = (
{
closed = 1;
nodes = (
"585 597 OFFCURVE",
"597 585 OFFCURVE",
"597 569 CURVE SMOOTH",
"597 0 LINE SMOOTH",
"597 -16 OFFCURVE",
"585 -28 OFFCURVE",
"569 -28 CURVE SMOOTH",
"553 -28 OFFCURVE",
"540 -16 OFFCURVE",
"540 0 CURVE SMOOTH",
"540 569 LINE SMOOTH",
"540 585 OFFCURVE",
"553 597 OFFCURVE",
"569 597 CURVE SMOOTH"
);
},
{
closed = 1;
nodes = (
"1153 2953 OFFCURVE",
"1166 2941 OFFCURVE",
"1166 2925 CURVE SMOOTH",
"1166 2909 OFFCURVE",
"1153 2897 OFFCURVE",
"1138 2897 CURVE SMOOTH",
"994 2897 OFFCURVE",
"857 2840 OFFCURVE",
"756 2738 CURVE SMOOTH",
"654 2637 OFFCURVE",
"597 2499 OFFCURVE",
"597 2356 CURVE SMOOTH",
"597 2340 OFFCURVE",
"585 2328 OFFCURVE",
"569 2328 CURVE SMOOTH",
"553 2328 OFFCURVE",
"540 2340 OFFCURVE",
"540 2356 CURVE SMOOTH",
"540 2515 OFFCURVE",
"603 2667 OFFCURVE",
"715 2779 CURVE SMOOTH",
"827 2891 OFFCURVE",
"979 2953 OFFCURVE",
"1138 2953 CURVE SMOOTH"
);
},
{
closed = 1;
nodes = (
"1296 2953 OFFCURVE",
"1448 2891 OFFCURVE",
"1560 2778 CURVE SMOOTH",
"1672 2666 OFFCURVE",
"1735 2514 OFFCURVE",
"1735 2356 CURVE SMOOTH",
"1735 2340 OFFCURVE",
"1722 2328 OFFCURVE",
"1707 2328 CURVE SMOOTH",
"1691 2328 OFFCURVE",
"1678 2340 OFFCURVE",
"1678 2356 CURVE SMOOTH",
"1678 2499 OFFCURVE",
"1621 2637 OFFCURVE",
"1520 2738 CURVE SMOOTH",
"1419 2840 OFFCURVE",
"1281 2897 OFFCURVE",
"1138 2897 CURVE SMOOTH",
"1122 2897 OFFCURVE",
"1109 2909 OFFCURVE",
"1109 2925 CURVE SMOOTH",
"1109 2941 OFFCURVE",
"1122 2953 OFFCURVE",
"1138 2953 CURVE SMOOTH"
);
},
{
closed = 1;
nodes = (
"1722 2385 OFFCURVE",
"1735 2372 OFFCURVE",
"1735 2356 CURVE SMOOTH",
"1735 2014 OFFCURVE",
"1442 1726 OFFCURVE",
"1158 1442 CURVE SMOOTH",
"873 1158 OFFCURVE",
"597 878 OFFCURVE",
"597 569 CURVE SMOOTH",
"597 553 OFFCURVE",
"585 541 OFFCURVE",
"569 540 CURVE SMOOTH",
"553 541 OFFCURVE",
"540 553 OFFCURVE",
"540 569 CURVE SMOOTH",
"540 911 OFFCURVE",
"833 1199 OFFCURVE",
"1118 1483 CURVE SMOOTH",
"1402 1767 OFFCURVE",
"1678 2047 OFFCURVE",
"1678 2356 CURVE SMOOTH",
"1678 2372 OFFCURVE",
"1691 2385 OFFCURVE",
"1707 2385 CURVE SMOOTH"
);
},
{
closed = 1;
nodes = (
"1722 2385 OFFCURVE",
"1735 2372 OFFCURVE",
"1735 2356 CURVE SMOOTH",
"1735 569 LINE SMOOTH",
"1735 553 OFFCURVE",
"1722 541 OFFCURVE",
"1707 540 CURVE SMOOTH",
"1691 541 OFFCURVE",
"1678 553 OFFCURVE",
"1678 569 CURVE SMOOTH",
"1678 2356 LINE SMOOTH",
"1678 2372 OFFCURVE",
"1691 2385 OFFCURVE",
"1707 2385 CURVE SMOOTH"
);
},
{
closed = 1;
nodes = (
"1678 569 LINE SMOOTH",
"1678 585 OFFCURVE",
"1691 598 OFFCURVE",
"1707 598 CURVE SMOOTH",
"1722 598 OFFCURVE",
"1735 585 OFFCURVE",
"1735 569 CURVE SMOOTH",
"1735 0 LINE SMOOTH",
"1735 -15 OFFCURVE",
"1722 -28 OFFCURVE",
"1707 -28 CURVE SMOOTH",
"1691 -28 OFFCURVE",
"1678 -15 OFFCURVE",
"1678 0 CURVE SMOOTH"
);
}
);
width = 2275;
},
{
layerId = "19B6A511-96ED-40AF-BAB7-D1E16DFA4179";
paths = (
{
closed = 1;
nodes = (
"663 740 OFFCURVE",
"740 663 OFFCURVE",
"740 569 CURVE SMOOTH",
"740 0 LINE SMOOTH",
"740 -94 OFFCURVE",
"663 -171 OFFCURVE",
"569 -171 CURVE SMOOTH",
"475 -171 OFFCURVE",
"398 -94 OFFCURVE",
"398 0 CURVE SMOOTH",
"398 569 LINE SMOOTH",
"398 663 OFFCURVE",
"475 740 OFFCURVE",
"569 740 CURVE SMOOTH"
);
},
{
closed = 1;
nodes = (
"1232 3096 OFFCURVE",
"1308 3019 OFFCURVE",
"1308 2925 CURVE SMOOTH",
"1308 2831 OFFCURVE",
"1232 2754 OFFCURVE",
"1138 2754 CURVE SMOOTH",
"1032 2754 OFFCURVE",
"931 2712 OFFCURVE",
"856 2638 CURVE SMOOTH",
"781 2563 OFFCURVE",
"740 2462 OFFCURVE",
"740 2356 CURVE SMOOTH",
"740 2262 OFFCURVE",
"663 2186 OFFCURVE",
"569 2185 CURVE SMOOTH",
"475 2186 OFFCURVE",
"398 2262 OFFCURVE",
"398 2356 CURVE SMOOTH",
"398 2552 OFFCURVE",
"476 2740 OFFCURVE",
"615 2879 CURVE SMOOTH",
"754 3018 OFFCURVE",
"942 3096 OFFCURVE",
"1138 3096 CURVE SMOOTH"
);
},
{
closed = 1;
nodes = (
"1334 3096 OFFCURVE",
"1522 3018 OFFCURVE",
"1661 2879 CURVE SMOOTH",
"1799 2740 OFFCURVE",
"1877 2552 OFFCURVE",
"1877 2356 CURVE SMOOTH",
"1877 2262 OFFCURVE",
"1801 2186 OFFCURVE",
"1707 2185 CURVE SMOOTH",
"1612 2186 OFFCURVE",
"1536 2262 OFFCURVE",
"1536 2356 CURVE SMOOTH",
"1536 2462 OFFCURVE",
"1494 2563 OFFCURVE",
"1419 2638 CURVE SMOOTH",
"1345 2712 OFFCURVE",
"1243 2754 OFFCURVE",
"1138 2754 CURVE SMOOTH",
"1044 2754 OFFCURVE",
"967 2831 OFFCURVE",
"967 2925 CURVE SMOOTH",
"967 3019 OFFCURVE",
"1044 3096 OFFCURVE",
"1138 3096 CURVE SMOOTH"
);
},
{
closed = 1;
nodes = (
"1801 2527 OFFCURVE",
"1877 2450 OFFCURVE",
"1877 2356 CURVE SMOOTH",
"1877 1931 OFFCURVE",
"1543 1626 OFFCURVE",
"1258 1342 CURVE SMOOTH",
"974 1058 OFFCURVE",
"740 795 OFFCURVE",
"740 569 CURVE SMOOTH",
"740 475 OFFCURVE",
"663 398 OFFCURVE",
"569 398 CURVE SMOOTH",
"475 398 OFFCURVE",
"398 475 OFFCURVE",
"398 569 CURVE SMOOTH",
"398 994 OFFCURVE",
"733 1299 OFFCURVE",
"1017 1583 CURVE SMOOTH",
"1302 1867 OFFCURVE",
"1536 2130 OFFCURVE",
"1536 2356 CURVE SMOOTH",
"1536 2450 OFFCURVE",
"1612 2527 OFFCURVE",
"1707 2527 CURVE SMOOTH"
);
},
{
closed = 1;
nodes = (
"1801 2527 OFFCURVE",
"1877 2450 OFFCURVE",
"1877 2356 CURVE SMOOTH",
"1877 569 LINE SMOOTH",
"1877 475 OFFCURVE",
"1801 398 OFFCURVE",
"1707 398 CURVE SMOOTH",
"1612 398 OFFCURVE",
"1536 475 OFFCURVE",
"1536 569 CURVE SMOOTH",
"1536 2356 LINE SMOOTH",
"1536 2450 OFFCURVE",
"1612 2527 OFFCURVE",
"1707 2527 CURVE SMOOTH"
);
},
{
closed = 1;
nodes = (
"1536 569 LINE SMOOTH",
"1536 663 OFFCURVE",
"1612 740 OFFCURVE",
"1707 740 CURVE SMOOTH",
"1801 740 OFFCURVE",
"1877 663 OFFCURVE",
"1877 569 CURVE SMOOTH",
"1877 0 LINE SMOOTH",
"1877 -94 OFFCURVE",
"1801 -171 OFFCURVE",
"1707 -171 CURVE SMOOTH",
"1612 -171 OFFCURVE",
"1536 -94 OFFCURVE",
"1536 0 CURVE SMOOTH"
);
}
);
width = 2275;
}
);
leftKerningGroup = h;
rightKerningGroup = h;
unicode = 004C;
},
{
glyphname = six;
lastChange = "2021-01-30 08:49:12 +0000";
layers = (
{
layerId = master01;
paths = (
{
closed = 1;
nodes = (
"585 2385 OFFCURVE",
"597 2372 OFFCURVE",
"597 2356 CURVE SMOOTH",
"597 569 LINE SMOOTH",
"597 553 OFFCURVE",
"585 541 OFFCURVE",
"569 540 CURVE SMOOTH",
"553 541 OFFCURVE",
"540 553 OFFCURVE",
"540 569 CURVE SMOOTH",
"540 2356 LINE SMOOTH",
"540 2372 OFFCURVE",
"553 2385 OFFCURVE",
"569 2385 CURVE SMOOTH"
);
},
{
closed = 1;
nodes = (
"1153 2953 OFFCURVE",
"1166 2941 OFFCURVE",
"1166 2925 CURVE SMOOTH",
"1166 2909 OFFCURVE",
"1153 2897 OFFCURVE",
"1138 2897 CURVE SMOOTH",
"994 2897 OFFCURVE",
"857 2840 OFFCURVE",
"756 2738 CURVE SMOOTH",
"654 2637 OFFCURVE",
"597 2499 OFFCURVE",
"597 2356 CURVE SMOOTH",
"597 2340 OFFCURVE",
"585 2328 OFFCURVE",
"569 2328 CURVE SMOOTH",
"553 2328 OFFCURVE",
"540 2340 OFFCURVE",
"540 2356 CURVE SMOOTH",
"540 2515 OFFCURVE",
"603 2667 OFFCURVE",
"715 2779 CURVE SMOOTH",
"827 2891 OFFCURVE",
"979 2953 OFFCURVE",
"1138 2953 CURVE SMOOTH"
);
},
{
closed = 1;
nodes = (
"585 2385 OFFCURVE",
"597 2372 OFFCURVE",
"597 2356 CURVE SMOOTH",
"597 2047 OFFCURVE",
"873 1767 OFFCURVE",
"1158 1483 CURVE SMOOTH",
"1442 1199 OFFCURVE",
"1735 911 OFFCURVE",
"1735 569 CURVE SMOOTH",
"1735 553 OFFCURVE",
"1722 541 OFFCURVE",
"1707 540 CURVE SMOOTH",
"1691 541 OFFCURVE",
"1678 553 OFFCURVE",
"1678 569 CURVE SMOOTH",
"1678 878 OFFCURVE",
"1402 1158 OFFCURVE",
"1118 1442 CURVE SMOOTH",
"833 1726 OFFCURVE",
"540 2014 OFFCURVE",
"540 2356 CURVE SMOOTH",
"540 2372 OFFCURVE",
"553 2385 OFFCURVE",
"569 2385 CURVE SMOOTH"
);
},
{
closed = 1;
nodes = (
"1722 597 OFFCURVE",
"1735 585 OFFCURVE",
"1735 569 CURVE SMOOTH",
"1735 411 OFFCURVE",
"1672 259 OFFCURVE",
"1560 147 CURVE SMOOTH",
"1448 34 OFFCURVE",
"1296 -28 OFFCURVE",
"1138 -28 CURVE SMOOTH",
"1122 -28 OFFCURVE",
"1109 -16 OFFCURVE",
"1109 0 CURVE SMOOTH",
"1109 16 OFFCURVE",
"1122 28 OFFCURVE",
"1138 28 CURVE SMOOTH",
"1281 28 OFFCURVE",
"1419 85 OFFCURVE",
"1520 187 CURVE SMOOTH",
"1621 288 OFFCURVE",
"1678 426 OFFCURVE",
"1678 569 CURVE SMOOTH",
"1678 585 OFFCURVE",
"1691 597 OFFCURVE",
"1707 597 CURVE SMOOTH"
);
},
{
closed = 1;
nodes = (
"1296 2953 OFFCURVE",
"1448 2891 OFFCURVE",
"1560 2778 CURVE SMOOTH",
"1672 2666 OFFCURVE",
"1735 2514 OFFCURVE",
"1735 2356 CURVE SMOOTH",
"1735 2340 OFFCURVE",
"1722 2328 OFFCURVE",
"1707 2328 CURVE SMOOTH",
"1691 2328 OFFCURVE",
"1678 2340 OFFCURVE",
"1678 2356 CURVE SMOOTH",
"1678 2499 OFFCURVE",
"1621 2637 OFFCURVE",
"1520 2738 CURVE SMOOTH",
"1419 2840 OFFCURVE",
"1281 2897 OFFCURVE",
"1138 2897 CURVE SMOOTH",
"1122 2897 OFFCURVE",
"1109 2909 OFFCURVE",
"1109 2925 CURVE SMOOTH",
"1109 2941 OFFCURVE",
"1122 2953 OFFCURVE",
"1138 2953 CURVE SMOOTH"
);
},
{
closed = 1;
nodes = (
"540 585 OFFCURVE",
"553 598 OFFCURVE",
"569 598 CURVE SMOOTH",
"585 598 OFFCURVE",
"597 585 OFFCURVE",
"597 569 CURVE SMOOTH",
"597 426 OFFCURVE",
"654 288 OFFCURVE",
"756 187 CURVE SMOOTH",
"857 86 OFFCURVE",
"994 29 OFFCURVE",
"1138 29 CURVE SMOOTH",
"1153 29 OFFCURVE",
"1166 16 OFFCURVE",
"1166 0 CURVE SMOOTH",
"1166 -15 OFFCURVE",
"1153 -28 OFFCURVE",
"1138 -28 CURVE SMOOTH",
"979 -28 OFFCURVE",
"827 35 OFFCURVE",
"715 147 CURVE SMOOTH",
"603 259 OFFCURVE",
"540 411 OFFCURVE",
"540 569 CURVE SMOOTH"
);
}
);
width = 2275;
},
{
layerId = "19B6A511-96ED-40AF-BAB7-D1E16DFA4179";
paths = (
{
closed = 1;
nodes = (
"663 2527 OFFCURVE",
"740 2450 OFFCURVE",
"740 2356 CURVE SMOOTH",
"740 569 LINE SMOOTH",
"740 475 OFFCURVE",
"663 398 OFFCURVE",
"569 398 CURVE SMOOTH",
"475 398 OFFCURVE",
"398 475 OFFCURVE",
"398 569 CURVE SMOOTH",
"398 2356 LINE SMOOTH",
"398 2450 OFFCURVE",
"475 2527 OFFCURVE",
"569 2527 CURVE SMOOTH"
);
},
{
closed = 1;
nodes = (
"1232 3096 OFFCURVE",
"1308 3019 OFFCURVE",
"1308 2925 CURVE SMOOTH",
"1308 2831 OFFCURVE",
"1232 2754 OFFCURVE",
"1138 2754 CURVE SMOOTH",
"1032 2754 OFFCURVE",
"931 2712 OFFCURVE",
"856 2638 CURVE SMOOTH",
"781 2563 OFFCURVE",
"740 2462 OFFCURVE",
"740 2356 CURVE SMOOTH",
"740 2262 OFFCURVE",
"663 2186 OFFCURVE",
"569 2185 CURVE SMOOTH",
"475 2186 OFFCURVE",
"398 2262 OFFCURVE",
"398 2356 CURVE SMOOTH",
"398 2552 OFFCURVE",
"476 2740 OFFCURVE",
"615 2879 CURVE SMOOTH",
"754 3018 OFFCURVE",
"942 3096 OFFCURVE",
"1138 3096 CURVE SMOOTH"
);
},
{
closed = 1;
nodes = (
"663 2527 OFFCURVE",
"740 2450 OFFCURVE",
"740 2356 CURVE SMOOTH",
"740 2130 OFFCURVE",
"974 1867 OFFCURVE",
"1258 1583 CURVE SMOOTH",
"1543 1299 OFFCURVE",
"1877 994 OFFCURVE",
"1877 569 CURVE SMOOTH",
"1877 475 OFFCURVE",
"1801 398 OFFCURVE",
"1707 398 CURVE SMOOTH",
"1612 398 OFFCURVE",
"1536 475 OFFCURVE",
"1536 569 CURVE SMOOTH",
"1536 795 OFFCURVE",
"1302 1058 OFFCURVE",
"1017 1342 CURVE SMOOTH",
"733 1626 OFFCURVE",
"398 1931 OFFCURVE",
"398 2356 CURVE SMOOTH",
"398 2450 OFFCURVE",
"475 2527 OFFCURVE",
"569 2527 CURVE SMOOTH"
);
},
{
closed = 1;
nodes = (
"1801 740 OFFCURVE",
"1877 663 OFFCURVE",
"1877 569 CURVE SMOOTH",
"1877 373 OFFCURVE",
"1799 185 OFFCURVE",
"1661 46 CURVE SMOOTH",
"1522 -93 OFFCURVE",
"1334 -171 OFFCURVE",
"1138 -171 CURVE SMOOTH",
"1044 -171 OFFCURVE",
"967 -94 OFFCURVE",
"967 0 CURVE SMOOTH",
"967 94 OFFCURVE",
"1044 171 OFFCURVE",
"1138 171 CURVE SMOOTH",
"1243 171 OFFCURVE",
"1345 213 OFFCURVE",
"1419 287 CURVE SMOOTH",
"1494 362 OFFCURVE",
"1536 463 OFFCURVE",
"1536 569 CURVE SMOOTH",
"1536 663 OFFCURVE",
"1612 740 OFFCURVE",
"1707 740 CURVE SMOOTH"
);
},
{
closed = 1;
nodes = (
"1334 3096 OFFCURVE",
"1522 3018 OFFCURVE",
"1661 2879 CURVE SMOOTH",
"1799 2740 OFFCURVE",
"1877 2552 OFFCURVE",
"1877 2356 CURVE SMOOTH",
"1877 2262 OFFCURVE",
"1801 2186 OFFCURVE",
"1707 2185 CURVE SMOOTH",
"1612 2186 OFFCURVE",
"1536 2262 OFFCURVE",
"1536 2356 CURVE SMOOTH",
"1536 2462 OFFCURVE",
"1494 2563 OFFCURVE",
"1419 2638 CURVE SMOOTH",
"1345 2712 OFFCURVE",
"1243 2754 OFFCURVE",
"1138 2754 CURVE SMOOTH",
"1044 2754 OFFCURVE",
"967 2831 OFFCURVE",
"967 2925 CURVE SMOOTH",
"967 3019 OFFCURVE",
"1044 3096 OFFCURVE",
"1138 3096 CURVE SMOOTH"
);
},
{
closed = 1;
nodes = (
"398 663 OFFCURVE",
"475 740 OFFCURVE",
"569 740 CURVE SMOOTH",
"663 740 OFFCURVE",
"740 663 OFFCURVE",
"740 569 CURVE SMOOTH",
"740 463 OFFCURVE",
"781 362 OFFCURVE",
"856 287 CURVE SMOOTH",
"931 213 OFFCURVE",
"1032 171 OFFCURVE",
"1138 171 CURVE SMOOTH",
"1232 171 OFFCURVE",
"1308 94 OFFCURVE",
"1308 0 CURVE SMOOTH",
"1308 -94 OFFCURVE",
"1232 -171 OFFCURVE",
"1138 -171 CURVE SMOOTH",
"942 -171 OFFCURVE",
"754 -93 OFFCURVE",
"615 46 CURVE SMOOTH",
"476 185 OFFCURVE",
"398 373 OFFCURVE",
"398 569 CURVE SMOOTH"
);
}
);
width = 2275;
}
);
unicode = 0036;
},
{
glyphname = two;
lastChange = "2021-01-30 08:49:12 +0000";
layers = (
{
layerId = master01;
paths = (
{
closed = 1;
nodes = (
"1153 2953 OFFCURVE",
"1166 2941 OFFCURVE",
"1166 2925 CURVE SMOOTH",
"1166 2909 OFFCURVE",
"1153 2897 OFFCURVE",
"1138 2897 CURVE SMOOTH",
"994 2897 OFFCURVE",
"857 2840 OFFCURVE",
"756 2738 CURVE SMOOTH",
"654 2637 OFFCURVE",
"597 2499 OFFCURVE",
"597 2356 CURVE SMOOTH",
"597 2340 OFFCURVE",
"585 2328 OFFCURVE",
"569 2328 CURVE SMOOTH",
"553 2328 OFFCURVE",
"540 2340 OFFCURVE",
"540 2356 CURVE SMOOTH",
"540 2515 OFFCURVE",
"603 2667 OFFCURVE",
"715 2779 CURVE SMOOTH",
"827 2891 OFFCURVE",
"979 2953 OFFCURVE",
"1138 2953 CURVE SMOOTH"
);
},
{
closed = 1;
nodes = (
"1722 597 OFFCURVE",
"1735 585 OFFCURVE",
"1735 569 CURVE SMOOTH",
"1735 411 OFFCURVE",
"1672 259 OFFCURVE",
"1560 147 CURVE SMOOTH",
"1448 34 OFFCURVE",
"1296 -28 OFFCURVE",
"1138 -28 CURVE SMOOTH",
"1122 -28 OFFCURVE",
"1109 -16 OFFCURVE",
"1109 0 CURVE SMOOTH",
"1109 16 OFFCURVE",
"1122 28 OFFCURVE",
"1138 28 CURVE SMOOTH",
"1281 28 OFFCURVE",
"1419 85 OFFCURVE",
"1520 187 CURVE SMOOTH",
"1621 288 OFFCURVE",
"1678 426 OFFCURVE",
"1678 569 CURVE SMOOTH",
"1678 585 OFFCURVE",
"1691 597 OFFCURVE",
"1707 597 CURVE SMOOTH"
);
},
{
closed = 1;
nodes = (
"1296 2953 OFFCURVE",
"1448 2891 OFFCURVE",
"1560 2778 CURVE SMOOTH",
"1672 2666 OFFCURVE",
"1735 2514 OFFCURVE",
"1735 2356 CURVE SMOOTH",
"1735 2340 OFFCURVE",
"1722 2328 OFFCURVE",
"1707 2328 CURVE SMOOTH",
"1691 2328 OFFCURVE",
"1678 2340 OFFCURVE",
"1678 2356 CURVE SMOOTH",
"1678 2499 OFFCURVE",
"1621 2637 OFFCURVE",
"1520 2738 CURVE SMOOTH",
"1419 2840 OFFCURVE",
"1281 2897 OFFCURVE",
"1138 2897 CURVE SMOOTH",
"1122 2897 OFFCURVE",
"1109 2909 OFFCURVE",
"1109 2925 CURVE SMOOTH",
"1109 2941 OFFCURVE",
"1122 2953 OFFCURVE",
"1138 2953 CURVE SMOOTH"
);
},
{
closed = 1;
nodes = (
"1722 2385 OFFCURVE",
"1735 2372 OFFCURVE",
"1735 2356 CURVE SMOOTH",
"1735 2014 OFFCURVE",
"1442 1726 OFFCURVE",
"1158 1442 CURVE SMOOTH",
"873 1158 OFFCURVE",
"597 878 OFFCURVE",
"597 569 CURVE SMOOTH",
"597 553 OFFCURVE",
"585 541 OFFCURVE",
"569 540 CURVE SMOOTH",
"553 541 OFFCURVE",
"540 553 OFFCURVE",
"540 569 CURVE SMOOTH",
"540 911 OFFCURVE",
"833 1199 OFFCURVE",
"1118 1483 CURVE SMOOTH",
"1402 1767 OFFCURVE",
"1678 2047 OFFCURVE",
"1678 2356 CURVE SMOOTH",
"1678 2372 OFFCURVE",
"1691 2385 OFFCURVE",
"1707 2385 CURVE SMOOTH"
);
},
{
closed = 1;
nodes = (
"585 597 OFFCURVE",
"597 585 OFFCURVE",
"597 569 CURVE SMOOTH",
"597 426 OFFCURVE",
"654 288 OFFCURVE",
"756 187 CURVE SMOOTH",
"857 85 OFFCURVE",
"994 28 OFFCURVE",
"1138 28 CURVE SMOOTH",
"1153 28 OFFCURVE",
"1166 16 OFFCURVE",
"1166 0 CURVE SMOOTH",
"1166 -16 OFFCURVE",
"1153 -28 OFFCURVE",
"1138 -28 CURVE SMOOTH",
"979 -28 OFFCURVE",
"827 34 OFFCURVE",
"715 147 CURVE SMOOTH",
"603 259 OFFCURVE",
"540 411 OFFCURVE",
"540 569 CURVE SMOOTH",
"540 585 OFFCURVE",
"553 597 OFFCURVE",
"569 597 CURVE SMOOTH"
);
},
{
closed = 1;
nodes = (
"1678 2356 LINE SMOOTH",
"1678 2372 OFFCURVE",
"1691 2385 OFFCURVE",
"1707 2385 CURVE SMOOTH",
"1722 2385 OFFCURVE",
"1735 2372 OFFCURVE",
"1735 2356 CURVE SMOOTH",
"1735 569 LINE SMOOTH",
"1735 554 OFFCURVE",
"1722 541 OFFCURVE",
"1707 541 CURVE SMOOTH",
"1691 541 OFFCURVE",
"1678 554 OFFCURVE",
"1678 569 CURVE SMOOTH"
);
}
);
width = 2275;
},
{
layerId = "19B6A511-96ED-40AF-BAB7-D1E16DFA4179";
paths = (
{
closed = 1;
nodes = (
"1232 3096 OFFCURVE",
"1308 3019 OFFCURVE",
"1308 2925 CURVE SMOOTH",
"1308 2831 OFFCURVE",
"1232 2754 OFFCURVE",
"1138 2754 CURVE SMOOTH",
"1032 2754 OFFCURVE",
"931 2712 OFFCURVE",
"856 2638 CURVE SMOOTH",
"781 2563 OFFCURVE",
"740 2462 OFFCURVE",
"740 2356 CURVE SMOOTH",
"740 2262 OFFCURVE",
"663 2186 OFFCURVE",
"569 2185 CURVE SMOOTH",
"475 2186 OFFCURVE",
"398 2262 OFFCURVE",
"398 2356 CURVE SMOOTH",
"398 2552 OFFCURVE",
"476 2740 OFFCURVE",
"615 2879 CURVE SMOOTH",
"754 3018 OFFCURVE",
"942 3096 OFFCURVE",
"1138 3096 CURVE SMOOTH"
);
},
{
closed = 1;
nodes = (
"1801 740 OFFCURVE",
"1877 663 OFFCURVE",
"1877 569 CURVE SMOOTH",
"1877 373 OFFCURVE",
"1799 185 OFFCURVE",
"1661 46 CURVE SMOOTH",
"1522 -93 OFFCURVE",
"1334 -171 OFFCURVE",
"1138 -171 CURVE SMOOTH",
"1044 -171 OFFCURVE",
"967 -94 OFFCURVE",
"967 0 CURVE SMOOTH",
"967 94 OFFCURVE",
"1044 171 OFFCURVE",
"1138 171 CURVE SMOOTH",
"1243 171 OFFCURVE",
"1345 213 OFFCURVE",
"1419 287 CURVE SMOOTH",
"1494 362 OFFCURVE",
"1536 463 OFFCURVE",
"1536 569 CURVE SMOOTH",
"1536 663 OFFCURVE",
"1612 740 OFFCURVE",
"1707 740 CURVE SMOOTH"
);
},
{
closed = 1;
nodes = (
"1334 3096 OFFCURVE",
"1522 3018 OFFCURVE",
"1661 2879 CURVE SMOOTH",
"1799 2740 OFFCURVE",
"1877 2552 OFFCURVE",
"1877 2356 CURVE SMOOTH",
"1877 2262 OFFCURVE",
"1801 2186 OFFCURVE",
"1707 2185 CURVE SMOOTH",
"1612 2186 OFFCURVE",
"1536 2262 OFFCURVE",
"1536 2356 CURVE SMOOTH",
"1536 2462 OFFCURVE",
"1494 2563 OFFCURVE",
"1419 2638 CURVE SMOOTH",
"1345 2712 OFFCURVE",
"1243 2754 OFFCURVE",
"1138 2754 CURVE SMOOTH",
"1044 2754 OFFCURVE",
"967 2831 OFFCURVE",
"967 2925 CURVE SMOOTH",
"967 3019 OFFCURVE",
"1044 3096 OFFCURVE",
"1138 3096 CURVE SMOOTH"
);
},
{
closed = 1;
nodes = (
"1801 2527 OFFCURVE",
"1877 2450 OFFCURVE",
"1877 2356 CURVE SMOOTH",
"1877 1931 OFFCURVE",
"1543 1626 OFFCURVE",
"1258 1342 CURVE SMOOTH",
"974 1058 OFFCURVE",
"740 795 OFFCURVE",
"740 569 CURVE SMOOTH",
"740 475 OFFCURVE",
"663 398 OFFCURVE",
"569 398 CURVE SMOOTH",
"475 398 OFFCURVE",
"398 475 OFFCURVE",
"398 569 CURVE SMOOTH",
"398 994 OFFCURVE",
"733 1299 OFFCURVE",
"1017 1583 CURVE SMOOTH",
"1302 1867 OFFCURVE",
"1536 2130 OFFCURVE",
"1536 2356 CURVE SMOOTH",
"1536 2450 OFFCURVE",
"1612 2527 OFFCURVE",
"1707 2527 CURVE SMOOTH"
);
},
{
closed = 1;
nodes = (
"663 740 OFFCURVE",
"740 663 OFFCURVE",
"740 569 CURVE SMOOTH",
"740 463 OFFCURVE",
"781 362 OFFCURVE",
"856 287 CURVE SMOOTH",
"931 213 OFFCURVE",
"1032 171 OFFCURVE",
"1138 171 CURVE SMOOTH",
"1232 171 OFFCURVE",
"1308 94 OFFCURVE",
"1308 0 CURVE SMOOTH",
"1308 -94 OFFCURVE",
"1232 -171 OFFCURVE",
"1138 -171 CURVE SMOOTH",
"942 -171 OFFCURVE",
"754 -93 OFFCURVE",
"615 46 CURVE SMOOTH",
"476 185 OFFCURVE",
"398 373 OFFCURVE",
"398 569 CURVE SMOOTH",
"398 663 OFFCURVE",
"475 740 OFFCURVE",
"569 740 CURVE SMOOTH"
);
},
{
closed = 1;
nodes = (
"1536 2356 LINE SMOOTH",
"1536 2450 OFFCURVE",
"1612 2527 OFFCURVE",
"1707 2527 CURVE SMOOTH",
"1801 2527 OFFCURVE",
"1877 2450 OFFCURVE",
"1877 2356 CURVE SMOOTH",
"1877 569 LINE SMOOTH",
"1877 475 OFFCURVE",
"1801 398 OFFCURVE",
"1707 398 CURVE SMOOTH",
"1612 398 OFFCURVE",
"1536 475 OFFCURVE",
"1536 569 CURVE SMOOTH"
);
}
);
width = 2275;
}
);
unicode = 0032;
},
{
glyphname = b;
lastChange = "2021-01-30 08:49:12 +0000";
layers = (
{
layerId = master01;
paths = (
{
closed = 1;
nodes = (
"585 5878 OFFCURVE",
"597 5866 OFFCURVE",
"597 5850 CURVE SMOOTH",
"597 5281 LINE SMOOTH",
"597 5265 OFFCURVE",
"585 5253 OFFCURVE",
"569 5253 CURVE SMOOTH",
"553 5253 OFFCURVE",
"540 5265 OFFCURVE",
"540 5281 CURVE SMOOTH",
"540 5850 LINE SMOOTH",
"540 5866 OFFCURVE",
"553 5878 OFFCURVE",
"569 5878 CURVE SMOOTH"
);
},
{
closed = 1;
nodes = (
"585 5310 OFFCURVE",
"597 5297 OFFCURVE",
"597 5281 CURVE SMOOTH",
"597 3494 LINE SMOOTH",
"597 3478 OFFCURVE",
"585 3466 OFFCURVE",
"569 3465 CURVE SMOOTH",
"553 3466 OFFCURVE",
"540 3478 OFFCURVE",
"540 3494 CURVE SMOOTH",
"540 5281 LINE SMOOTH",
"540 5297 OFFCURVE",
"553 5310 OFFCURVE",
"569 5310 CURVE SMOOTH"
);
},
{
closed = 1;
nodes = (
"585 3522 OFFCURVE",
"597 3510 OFFCURVE",
"597 3494 CURVE SMOOTH",
"597 2925 LINE SMOOTH",
"597 2909 OFFCURVE",
"585 2897 OFFCURVE",
"569 2897 CURVE SMOOTH",
"553 2897 OFFCURVE",
"540 2909 OFFCURVE",
"540 2925 CURVE SMOOTH",
"540 3494 LINE SMOOTH",
"540 3510 OFFCURVE",
"553 3522 OFFCURVE",
"569 3522 CURVE SMOOTH"
);
},
{
closed = 1;
nodes = (
"585 2953 OFFCURVE",
"597 2941 OFFCURVE",
"597 2925 CURVE SMOOTH",
"597 2356 LINE SMOOTH",
"597 2340 OFFCURVE",
"585 2328 OFFCURVE",
"569 2328 CURVE SMOOTH",
"553 2328 OFFCURVE",
"540 2340 OFFCURVE",
"540 2356 CURVE SMOOTH",
"540 2925 LINE SMOOTH",
"540 2941 OFFCURVE",
"553 2953 OFFCURVE",
"569 2953 CURVE SMOOTH"
);
},
{
closed = 1;
nodes = (
"585 2385 OFFCURVE",
"597 2372 OFFCURVE",
"597 2356 CURVE SMOOTH",
"597 569 LINE SMOOTH",
"597 553 OFFCURVE",
"585 541 OFFCURVE",
"569 540 CURVE SMOOTH",
"553 541 OFFCURVE",
"540 553 OFFCURVE",
"540 569 CURVE SMOOTH",
"540 2356 LINE SMOOTH",
"540 2372 OFFCURVE",
"553 2385 OFFCURVE",
"569 2385 CURVE SMOOTH"
);
},
{
closed = 1;
nodes = (
"1153 2953 OFFCURVE",
"1166 2941 OFFCURVE",
"1166 2925 CURVE SMOOTH",
"1166 2909 OFFCURVE",
"1153 2897 OFFCURVE",
"1138 2897 CURVE SMOOTH",
"994 2897 OFFCURVE",
"857 2840 OFFCURVE",
"756 2738 CURVE SMOOTH",
"654 2637 OFFCURVE",
"597 2499 OFFCURVE",
"597 2356 CURVE SMOOTH",
"597 2340 OFFCURVE",
"585 2328 OFFCURVE",
"569 2328 CURVE SMOOTH",
"553 2328 OFFCURVE",
"540 2340 OFFCURVE",
"540 2356 CURVE SMOOTH",
"540 2515 OFFCURVE",
"603 2667 OFFCURVE",
"715 2779 CURVE SMOOTH",
"827 2891 OFFCURVE",
"979 2953 OFFCURVE",
"1138 2953 CURVE SMOOTH"
);
},
{
closed = 1;
nodes = (
"1722 597 OFFCURVE",
"1735 585 OFFCURVE",
"1735 569 CURVE SMOOTH",
"1735 411 OFFCURVE",
"1672 259 OFFCURVE",
"1560 147 CURVE SMOOTH",
"1448 34 OFFCURVE",
"1296 -28 OFFCURVE",
"1138 -28 CURVE SMOOTH",
"1122 -28 OFFCURVE",
"1109 -16 OFFCURVE",
"1109 0 CURVE SMOOTH",
"1109 16 OFFCURVE",
"1122 28 OFFCURVE",
"1138 28 CURVE SMOOTH",
"1281 28 OFFCURVE",
"1419 85 OFFCURVE",
"1520 187 CURVE SMOOTH",
"1621 288 OFFCURVE",
"1678 426 OFFCURVE",
"1678 569 CURVE SMOOTH",
"1678 585 OFFCURVE",
"1691 597 OFFCURVE",
"1707 597 CURVE SMOOTH"
);
},
{
closed = 1;
nodes = (
"1296 2953 OFFCURVE",
"1448 2891 OFFCURVE",
"1560 2778 CURVE SMOOTH",
"1672 2666 OFFCURVE",
"1735 2514 OFFCURVE",
"1735 2356 CURVE SMOOTH",
"1735 2340 OFFCURVE",
"1722 2328 OFFCURVE",
"1707 2328 CURVE SMOOTH",
"1691 2328 OFFCURVE",
"1678 2340 OFFCURVE",
"1678 2356 CURVE SMOOTH",
"1678 2499 OFFCURVE",
"1621 2637 OFFCURVE",
"1520 2738 CURVE SMOOTH",
"1419 2840 OFFCURVE",
"1281 2897 OFFCURVE",
"1138 2897 CURVE SMOOTH",
"1122 2897 OFFCURVE",
"1109 2909 OFFCURVE",
"1109 2925 CURVE SMOOTH",
"1109 2941 OFFCURVE",
"1122 2953 OFFCURVE",
"1138 2953 CURVE SMOOTH"
);
},
{
closed = 1;
nodes = (
"585 597 OFFCURVE",
"597 585 OFFCURVE",
"597 569 CURVE SMOOTH",
"597 426 OFFCURVE",
"654 288 OFFCURVE",
"756 187 CURVE SMOOTH",
"857 85 OFFCURVE",
"994 28 OFFCURVE",
"1138 28 CURVE SMOOTH",
"1153 28 OFFCURVE",
"1166 16 OFFCURVE",
"1166 0 CURVE SMOOTH",
"1166 -16 OFFCURVE",
"1153 -28 OFFCURVE",
"1138 -28 CURVE SMOOTH",
"979 -28 OFFCURVE",
"827 34 OFFCURVE",
"715 147 CURVE SMOOTH",
"603 259 OFFCURVE",
"540 411 OFFCURVE",
"540 569 CURVE SMOOTH",
"540 585 OFFCURVE",
"553 597 OFFCURVE",
"569 597 CURVE SMOOTH"
);
},
{
closed = 1;
nodes = (
"1678 2356 LINE SMOOTH",
"1678 2372 OFFCURVE",
"1691 2385 OFFCURVE",
"1707 2385 CURVE SMOOTH",
"1722 2385 OFFCURVE",
"1735 2372 OFFCURVE",
"1735 2356 CURVE SMOOTH",
"1735 569 LINE SMOOTH",
"1735 554 OFFCURVE",
"1722 541 OFFCURVE",
"1707 541 CURVE SMOOTH",
"1691 541 OFFCURVE",
"1678 554 OFFCURVE",
"1678 569 CURVE SMOOTH"
);
}
);
width = 2275;
},
{
layerId = "19B6A511-96ED-40AF-BAB7-D1E16DFA4179";
paths = (
{
closed = 1;
nodes = (
"663 6021 OFFCURVE",
"740 5944 OFFCURVE",
"740 5850 CURVE SMOOTH",
"740 5281 LINE SMOOTH",
"740 5187 OFFCURVE",
"663 5111 OFFCURVE",
"569 5110 CURVE SMOOTH",
"475 5111 OFFCURVE",
"398 5187 OFFCURVE",
"398 5281 CURVE SMOOTH",
"398 5850 LINE SMOOTH",
"398 5944 OFFCURVE",
"475 6021 OFFCURVE",
"569 6021 CURVE SMOOTH"
);
},
{
closed = 1;
nodes = (
"663 5452 OFFCURVE",
"740 5375 OFFCURVE",
"740 5281 CURVE SMOOTH",
"740 3494 LINE SMOOTH",
"740 3400 OFFCURVE",
"663 3323 OFFCURVE",
"569 3323 CURVE SMOOTH",
"475 3323 OFFCURVE",
"398 3400 OFFCURVE",
"398 3494 CURVE SMOOTH",
"398 5281 LINE SMOOTH",
"398 5375 OFFCURVE",
"475 5452 OFFCURVE",
"569 5452 CURVE SMOOTH"
);
},
{
closed = 1;
nodes = (
"663 3665 OFFCURVE",
"740 3588 OFFCURVE",
"740 3494 CURVE SMOOTH",
"740 2925 LINE SMOOTH",
"740 2831 OFFCURVE",
"663 2754 OFFCURVE",
"569 2754 CURVE SMOOTH",
"475 2754 OFFCURVE",
"398 2831 OFFCURVE",
"398 2925 CURVE SMOOTH",
"398 3494 LINE SMOOTH",
"398 3588 OFFCURVE",
"475 3665 OFFCURVE",
"569 3665 CURVE SMOOTH"
);
},
{
closed = 1;
nodes = (
"663 3096 OFFCURVE",
"740 3019 OFFCURVE",
"740 2925 CURVE SMOOTH",
"740 2356 LINE SMOOTH",
"740 2262 OFFCURVE",
"663 2186 OFFCURVE",
"569 2185 CURVE SMOOTH",
"475 2186 OFFCURVE",
"398 2262 OFFCURVE",
"398 2356 CURVE SMOOTH",
"398 2925 LINE SMOOTH",
"398 3019 OFFCURVE",
"475 3096 OFFCURVE",
"569 3096 CURVE SMOOTH"
);
},
{
closed = 1;
nodes = (
"663 2527 OFFCURVE",
"740 2450 OFFCURVE",
"740 2356 CURVE SMOOTH",
"740 569 LINE SMOOTH",
"740 475 OFFCURVE",
"663 398 OFFCURVE",
"569 398 CURVE SMOOTH",
"475 398 OFFCURVE",
"398 475 OFFCURVE",
"398 569 CURVE SMOOTH",
"398 2356 LINE SMOOTH",
"398 2450 OFFCURVE",
"475 2527 OFFCURVE",
"569 2527 CURVE SMOOTH"
);
},
{
closed = 1;
nodes = (
"1232 3096 OFFCURVE",
"1308 3019 OFFCURVE",
"1308 2925 CURVE SMOOTH",
"1308 2831 OFFCURVE",
"1232 2754 OFFCURVE",
"1138 2754 CURVE SMOOTH",
"1032 2754 OFFCURVE",
"931 2712 OFFCURVE",
"856 2638 CURVE SMOOTH",
"781 2563 OFFCURVE",
"740 2462 OFFCURVE",
"740 2356 CURVE SMOOTH",
"740 2262 OFFCURVE",
"663 2186 OFFCURVE",
"569 2185 CURVE SMOOTH",
"475 2186 OFFCURVE",
"398 2262 OFFCURVE",
"398 2356 CURVE SMOOTH",
"398 2552 OFFCURVE",
"476 2740 OFFCURVE",
"615 2879 CURVE SMOOTH",
"754 3018 OFFCURVE",
"942 3096 OFFCURVE",
"1138 3096 CURVE SMOOTH"
);
},
{
closed = 1;
nodes = (
"1801 740 OFFCURVE",
"1877 663 OFFCURVE",
"1877 569 CURVE SMOOTH",
"1877 373 OFFCURVE",
"1799 185 OFFCURVE",
"1661 46 CURVE SMOOTH",
"1522 -93 OFFCURVE",
"1334 -171 OFFCURVE",
"1138 -171 CURVE SMOOTH",
"1044 -171 OFFCURVE",
"967 -94 OFFCURVE",
"967 0 CURVE SMOOTH",
"967 94 OFFCURVE",
"1044 171 OFFCURVE",
"1138 171 CURVE SMOOTH",
"1243 171 OFFCURVE",
"1345 213 OFFCURVE",
"1419 287 CURVE SMOOTH",
"1494 362 OFFCURVE",
"1536 463 OFFCURVE",
"1536 569 CURVE SMOOTH",
"1536 663 OFFCURVE",
"1612 740 OFFCURVE",
"1707 740 CURVE SMOOTH"
);
},
{
closed = 1;
nodes = (
"1334 3096 OFFCURVE",
"1522 3018 OFFCURVE",
"1661 2879 CURVE SMOOTH",
"1799 2740 OFFCURVE",
"1877 2552 OFFCURVE",
"1877 2356 CURVE SMOOTH",
"1877 2262 OFFCURVE",
"1801 2186 OFFCURVE",
"1707 2185 CURVE SMOOTH",
"1612 2186 OFFCURVE",
"1536 2262 OFFCURVE",
"1536 2356 CURVE SMOOTH",
"1536 2462 OFFCURVE",
"1494 2563 OFFCURVE",
"1419 2638 CURVE SMOOTH",
"1345 2712 OFFCURVE",
"1243 2754 OFFCURVE",
"1138 2754 CURVE SMOOTH",
"1044 2754 OFFCURVE",
"967 2831 OFFCURVE",
"967 2925 CURVE SMOOTH",
"967 3019 OFFCURVE",
"1044 3096 OFFCURVE",
"1138 3096 CURVE SMOOTH"
);
},
{
closed = 1;
nodes = (
"663 740 OFFCURVE",
"740 663 OFFCURVE",
"740 569 CURVE SMOOTH",
"740 463 OFFCURVE",
"781 362 OFFCURVE",
"856 287 CURVE SMOOTH",
"931 213 OFFCURVE",
"1032 171 OFFCURVE",
"1138 171 CURVE SMOOTH",
"1232 171 OFFCURVE",
"1308 94 OFFCURVE",
"1308 0 CURVE SMOOTH",
"1308 -94 OFFCURVE",
"1232 -171 OFFCURVE",
"1138 -171 CURVE SMOOTH",
"942 -171 OFFCURVE",
"754 -93 OFFCURVE",
"615 46 CURVE SMOOTH",
"476 185 OFFCURVE",
"398 373 OFFCURVE",
"398 569 CURVE SMOOTH",
"398 663 OFFCURVE",
"475 740 OFFCURVE",
"569 740 CURVE SMOOTH"
);
},
{
closed = 1;
nodes = (
"1536 2356 LINE SMOOTH",
"1536 2450 OFFCURVE",
"1612 2527 OFFCURVE",
"1707 2527 CURVE SMOOTH",
"1801 2527 OFFCURVE",
"1877 2450 OFFCURVE",
"1877 2356 CURVE SMOOTH",
"1877 569 LINE SMOOTH",
"1877 475 OFFCURVE",
"1801 398 OFFCURVE",
"1707 398 CURVE SMOOTH",
"1612 398 OFFCURVE",
"1536 475 OFFCURVE",
"1536 569 CURVE SMOOTH"
);
}
);
width = 2275;
}
);
leftKerningGroup = c;
rightKerningGroup = c;
unicode = 0062;
},
{
glyphname = p;
lastChange = "2021-01-30 08:49:12 +0000";
layers = (
{
layerId = master01;
paths = (
{
closed = 1;
nodes = (
"585 2385 OFFCURVE",
"597 2372 OFFCURVE",
"597 2356 CURVE SMOOTH",
"597 569 LINE SMOOTH",
"597 553 OFFCURVE",
"585 541 OFFCURVE",
"569 540 CURVE SMOOTH",
"553 541 OFFCURVE",
"540 553 OFFCURVE",
"540 569 CURVE SMOOTH",
"540 2356 LINE SMOOTH",
"540 2372 OFFCURVE",
"553 2385 OFFCURVE",
"569 2385 CURVE SMOOTH"
);
},
{
closed = 1;
nodes = (
"585 597 OFFCURVE",
"597 585 OFFCURVE",
"597 569 CURVE SMOOTH",
"597 0 LINE SMOOTH",
"597 -16 OFFCURVE",
"585 -28 OFFCURVE",
"569 -28 CURVE SMOOTH",
"553 -28 OFFCURVE",
"540 -16 OFFCURVE",
"540 0 CURVE SMOOTH",
"540 569 LINE SMOOTH",
"540 585 OFFCURVE",
"553 597 OFFCURVE",
"569 597 CURVE SMOOTH"
);
},
{
closed = 1;
nodes = (
"585 28 OFFCURVE",
"597 16 OFFCURVE",
"597 0 CURVE SMOOTH",
"597 -569 LINE SMOOTH",
"597 -585 OFFCURVE",
"585 -597 OFFCURVE",
"569 -597 CURVE SMOOTH",
"553 -597 OFFCURVE",
"540 -585 OFFCURVE",
"540 -569 CURVE SMOOTH",
"540 0 LINE SMOOTH",
"540 16 OFFCURVE",
"553 28 OFFCURVE",
"569 28 CURVE SMOOTH"
);
},
{
closed = 1;
nodes = (
"585 -540 OFFCURVE",
"597 -553 OFFCURVE",
"597 -569 CURVE SMOOTH",
"597 -2356 LINE SMOOTH",
"597 -2372 OFFCURVE",
"585 -2384 OFFCURVE",
"569 -2385 CURVE SMOOTH",
"553 -2384 OFFCURVE",
"540 -2372 OFFCURVE",
"540 -2356 CURVE SMOOTH",
"540 -569 LINE SMOOTH",
"540 -553 OFFCURVE",
"553 -540 OFFCURVE",
"569 -540 CURVE SMOOTH"
);
},
{
closed = 1;
nodes = (
"585 -2328 OFFCURVE",
"597 -2340 OFFCURVE",
"597 -2356 CURVE SMOOTH",
"597 -2925 LINE SMOOTH",
"597 -2941 OFFCURVE",
"585 -2953 OFFCURVE",
"569 -2953 CURVE SMOOTH",
"553 -2953 OFFCURVE",
"540 -2941 OFFCURVE",
"540 -2925 CURVE SMOOTH",
"540 -2356 LINE SMOOTH",
"540 -2340 OFFCURVE",
"553 -2328 OFFCURVE",
"569 -2328 CURVE SMOOTH"
);
},
{
closed = 1;
nodes = (
"1153 2953 OFFCURVE",
"1166 2941 OFFCURVE",
"1166 2925 CURVE SMOOTH",
"1166 2909 OFFCURVE",
"1153 2897 OFFCURVE",
"1138 2897 CURVE SMOOTH",
"994 2897 OFFCURVE",
"857 2840 OFFCURVE",
"756 2738 CURVE SMOOTH",
"654 2637 OFFCURVE",
"597 2499 OFFCURVE",
"597 2356 CURVE SMOOTH",
"597 2340 OFFCURVE",
"585 2328 OFFCURVE",
"569 2328 CURVE SMOOTH",
"553 2328 OFFCURVE",
"540 2340 OFFCURVE",
"540 2356 CURVE SMOOTH",
"540 2515 OFFCURVE",
"603 2667 OFFCURVE",
"715 2779 CURVE SMOOTH",
"827 2891 OFFCURVE",
"979 2953 OFFCURVE",
"1138 2953 CURVE SMOOTH"
);
},
{
closed = 1;
nodes = (
"1722 597 OFFCURVE",
"1735 585 OFFCURVE",
"1735 569 CURVE SMOOTH",
"1735 411 OFFCURVE",
"1672 259 OFFCURVE",
"1560 147 CURVE SMOOTH",
"1448 34 OFFCURVE",
"1296 -28 OFFCURVE",
"1138 -28 CURVE SMOOTH",
"1122 -28 OFFCURVE",
"1109 -16 OFFCURVE",
"1109 0 CURVE SMOOTH",
"1109 16 OFFCURVE",
"1122 28 OFFCURVE",
"1138 28 CURVE SMOOTH",
"1281 28 OFFCURVE",
"1419 85 OFFCURVE",
"1520 187 CURVE SMOOTH",
"1621 288 OFFCURVE",
"1678 426 OFFCURVE",
"1678 569 CURVE SMOOTH",
"1678 585 OFFCURVE",
"1691 597 OFFCURVE",
"1707 597 CURVE SMOOTH"
);
},
{
closed = 1;
nodes = (
"1296 2953 OFFCURVE",
"1448 2891 OFFCURVE",
"1560 2778 CURVE SMOOTH",
"1672 2666 OFFCURVE",
"1735 2514 OFFCURVE",
"1735 2356 CURVE SMOOTH",
"1735 2340 OFFCURVE",
"1722 2328 OFFCURVE",
"1707 2328 CURVE SMOOTH",
"1691 2328 OFFCURVE",
"1678 2340 OFFCURVE",
"1678 2356 CURVE SMOOTH",
"1678 2499 OFFCURVE",
"1621 2637 OFFCURVE",
"1520 2738 CURVE SMOOTH",
"1419 2840 OFFCURVE",
"1281 2897 OFFCURVE",
"1138 2897 CURVE SMOOTH",
"1122 2897 OFFCURVE",
"1109 2909 OFFCURVE",
"1109 2925 CURVE SMOOTH",
"1109 2941 OFFCURVE",
"1122 2953 OFFCURVE",
"1138 2953 CURVE SMOOTH"
);
},
{
closed = 1;
nodes = (
"585 597 OFFCURVE",
"597 585 OFFCURVE",
"597 569 CURVE SMOOTH",
"597 426 OFFCURVE",
"654 288 OFFCURVE",
"756 187 CURVE SMOOTH",
"857 85 OFFCURVE",
"994 28 OFFCURVE",
"1138 28 CURVE SMOOTH",
"1153 28 OFFCURVE",
"1166 16 OFFCURVE",
"1166 0 CURVE SMOOTH",
"1166 -16 OFFCURVE",
"1153 -28 OFFCURVE",
"1138 -28 CURVE SMOOTH",
"979 -28 OFFCURVE",
"827 34 OFFCURVE",
"715 147 CURVE SMOOTH",
"603 259 OFFCURVE",
"540 411 OFFCURVE",
"540 569 CURVE SMOOTH",
"540 585 OFFCURVE",
"553 597 OFFCURVE",
"569 597 CURVE SMOOTH"
);
},
{
closed = 1;
nodes = (
"1678 2356 LINE SMOOTH",
"1678 2372 OFFCURVE",
"1691 2385 OFFCURVE",
"1707 2385 CURVE SMOOTH",
"1722 2385 OFFCURVE",
"1735 2372 OFFCURVE",
"1735 2356 CURVE SMOOTH",
"1735 569 LINE SMOOTH",
"1735 554 OFFCURVE",
"1722 541 OFFCURVE",
"1707 541 CURVE SMOOTH",
"1691 541 OFFCURVE",
"1678 554 OFFCURVE",
"1678 569 CURVE SMOOTH"
);
}
);
width = 2275;
},
{
layerId = "19B6A511-96ED-40AF-BAB7-D1E16DFA4179";
paths = (
{
closed = 1;
nodes = (
"663 2527 OFFCURVE",
"740 2450 OFFCURVE",
"740 2356 CURVE SMOOTH",
"740 569 LINE SMOOTH",
"740 475 OFFCURVE",
"663 398 OFFCURVE",
"569 398 CURVE SMOOTH",
"475 398 OFFCURVE",
"398 475 OFFCURVE",
"398 569 CURVE SMOOTH",
"398 2356 LINE SMOOTH",
"398 2450 OFFCURVE",
"475 2527 OFFCURVE",
"569 2527 CURVE SMOOTH"
);
},
{
closed = 1;
nodes = (
"663 740 OFFCURVE",
"740 663 OFFCURVE",
"740 569 CURVE SMOOTH",
"740 0 LINE SMOOTH",
"740 -94 OFFCURVE",
"663 -171 OFFCURVE",
"569 -171 CURVE SMOOTH",
"475 -171 OFFCURVE",
"398 -94 OFFCURVE",
"398 0 CURVE SMOOTH",
"398 569 LINE SMOOTH",
"398 663 OFFCURVE",
"475 740 OFFCURVE",
"569 740 CURVE SMOOTH"
);
},
{
closed = 1;
nodes = (
"663 171 OFFCURVE",
"740 94 OFFCURVE",
"740 0 CURVE SMOOTH",
"740 -569 LINE SMOOTH",
"740 -663 OFFCURVE",
"663 -739 OFFCURVE",
"569 -740 CURVE SMOOTH",
"475 -739 OFFCURVE",
"398 -663 OFFCURVE",
"398 -569 CURVE SMOOTH",
"398 0 LINE SMOOTH",
"398 94 OFFCURVE",
"475 171 OFFCURVE",
"569 171 CURVE SMOOTH"
);
},
{
closed = 1;
nodes = (
"663 -398 OFFCURVE",
"740 -475 OFFCURVE",
"740 -569 CURVE SMOOTH",
"740 -2356 LINE SMOOTH",
"740 -2450 OFFCURVE",
"663 -2527 OFFCURVE",
"569 -2527 CURVE SMOOTH",
"475 -2527 OFFCURVE",
"398 -2450 OFFCURVE",
"398 -2356 CURVE SMOOTH",
"398 -569 LINE SMOOTH",
"398 -475 OFFCURVE",
"475 -398 OFFCURVE",
"569 -398 CURVE SMOOTH"
);
},
{
closed = 1;
nodes = (
"663 -2185 OFFCURVE",
"740 -2262 OFFCURVE",
"740 -2356 CURVE SMOOTH",
"740 -2925 LINE SMOOTH",
"740 -3019 OFFCURVE",
"663 -3096 OFFCURVE",
"569 -3096 CURVE SMOOTH",
"475 -3096 OFFCURVE",
"398 -3019 OFFCURVE",
"398 -2925 CURVE SMOOTH",
"398 -2356 LINE SMOOTH",
"398 -2262 OFFCURVE",
"475 -2185 OFFCURVE",
"569 -2185 CURVE SMOOTH"
);
},
{
closed = 1;
nodes = (
"1232 3096 OFFCURVE",
"1308 3019 OFFCURVE",
"1308 2925 CURVE SMOOTH",
"1308 2831 OFFCURVE",
"1232 2754 OFFCURVE",
"1138 2754 CURVE SMOOTH",
"1032 2754 OFFCURVE",
"931 2712 OFFCURVE",
"856 2638 CURVE SMOOTH",
"781 2563 OFFCURVE",
"740 2462 OFFCURVE",
"740 2356 CURVE SMOOTH",
"740 2262 OFFCURVE",
"663 2186 OFFCURVE",
"569 2185 CURVE SMOOTH",
"475 2186 OFFCURVE",
"398 2262 OFFCURVE",
"398 2356 CURVE SMOOTH",
"398 2552 OFFCURVE",
"476 2740 OFFCURVE",
"615 2879 CURVE SMOOTH",
"754 3018 OFFCURVE",
"942 3096 OFFCURVE",
"1138 3096 CURVE SMOOTH"
);
},
{
closed = 1;
nodes = (
"1801 740 OFFCURVE",
"1877 663 OFFCURVE",
"1877 569 CURVE SMOOTH",
"1877 373 OFFCURVE",
"1799 185 OFFCURVE",
"1661 46 CURVE SMOOTH",
"1522 -93 OFFCURVE",
"1334 -171 OFFCURVE",
"1138 -171 CURVE SMOOTH",
"1044 -171 OFFCURVE",
"967 -94 OFFCURVE",
"967 0 CURVE SMOOTH",
"967 94 OFFCURVE",
"1044 171 OFFCURVE",
"1138 171 CURVE SMOOTH",
"1243 171 OFFCURVE",
"1345 213 OFFCURVE",
"1419 287 CURVE SMOOTH",
"1494 362 OFFCURVE",
"1536 463 OFFCURVE",
"1536 569 CURVE SMOOTH",
"1536 663 OFFCURVE",
"1612 740 OFFCURVE",
"1707 740 CURVE SMOOTH"
);
},
{
closed = 1;
nodes = (
"1334 3096 OFFCURVE",
"1522 3018 OFFCURVE",
"1661 2879 CURVE SMOOTH",
"1799 2740 OFFCURVE",
"1877 2552 OFFCURVE",
"1877 2356 CURVE SMOOTH",
"1877 2262 OFFCURVE",
"1801 2186 OFFCURVE",
"1707 2185 CURVE SMOOTH",
"1612 2186 OFFCURVE",
"1536 2262 OFFCURVE",
"1536 2356 CURVE SMOOTH",
"1536 2462 OFFCURVE",
"1494 2563 OFFCURVE",
"1419 2638 CURVE SMOOTH",
"1345 2712 OFFCURVE",
"1243 2754 OFFCURVE",
"1138 2754 CURVE SMOOTH",
"1044 2754 OFFCURVE",
"967 2831 OFFCURVE",
"967 2925 CURVE SMOOTH",
"967 3019 OFFCURVE",
"1044 3096 OFFCURVE",
"1138 3096 CURVE SMOOTH"
);
},
{
closed = 1;
nodes = (
"663 740 OFFCURVE",
"740 663 OFFCURVE",
"740 569 CURVE SMOOTH",
"740 463 OFFCURVE",
"781 362 OFFCURVE",
"856 287 CURVE SMOOTH",
"931 213 OFFCURVE",
"1032 171 OFFCURVE",
"1138 171 CURVE SMOOTH",
"1232 171 OFFCURVE",
"1308 94 OFFCURVE",
"1308 0 CURVE SMOOTH",
"1308 -94 OFFCURVE",
"1232 -171 OFFCURVE",
"1138 -171 CURVE SMOOTH",
"942 -171 OFFCURVE",
"754 -93 OFFCURVE",
"615 46 CURVE SMOOTH",
"476 185 OFFCURVE",
"398 373 OFFCURVE",
"398 569 CURVE SMOOTH",
"398 663 OFFCURVE",
"475 740 OFFCURVE",
"569 740 CURVE SMOOTH"
);
},
{
closed = 1;
nodes = (
"1536 2356 LINE SMOOTH",
"1536 2450 OFFCURVE",
"1612 2527 OFFCURVE",
"1707 2527 CURVE SMOOTH",
"1801 2527 OFFCURVE",
"1877 2450 OFFCURVE",
"1877 2356 CURVE SMOOTH",
"1877 569 LINE SMOOTH",
"1877 475 OFFCURVE",
"1801 398 OFFCURVE",
"1707 398 CURVE SMOOTH",
"1612 398 OFFCURVE",
"1536 475 OFFCURVE",
"1536 569 CURVE SMOOTH"
);
}
);
width = 2275;
}
);
rightKerningGroup = c;
unicode = 0070;
},
{
glyphname = m;
lastChange = "2021-01-30 08:49:12 +0000";
layers = (
{
layerId = master01;
paths = (
{
closed = 1;
nodes = (
"585 2385 OFFCURVE",
"597 2372 OFFCURVE",
"597 2356 CURVE SMOOTH",
"597 569 LINE SMOOTH",
"597 553 OFFCURVE",
"585 541 OFFCURVE",
"569 540 CURVE SMOOTH",
"553 541 OFFCURVE",
"540 553 OFFCURVE",
"540 569 CURVE SMOOTH",
"540 2356 LINE SMOOTH",
"540 2372 OFFCURVE",
"553 2385 OFFCURVE",
"569 2385 CURVE SMOOTH"
);
},
{
closed = 1;
nodes = (
"585 597 OFFCURVE",
"597 585 OFFCURVE",
"597 569 CURVE SMOOTH",
"597 0 LINE SMOOTH",
"597 -16 OFFCURVE",
"585 -28 OFFCURVE",
"569 -28 CURVE SMOOTH",
"553 -28 OFFCURVE",
"540 -16 OFFCURVE",
"540 0 CURVE SMOOTH",
"540 569 LINE SMOOTH",
"540 585 OFFCURVE",
"553 597 OFFCURVE",
"569 597 CURVE SMOOTH"
);
},
{
closed = 1;
nodes = (
"1153 2953 OFFCURVE",
"1166 2941 OFFCURVE",
"1166 2925 CURVE SMOOTH",
"1166 2909 OFFCURVE",
"1153 2897 OFFCURVE",
"1138 2897 CURVE SMOOTH",
"994 2897 OFFCURVE",
"857 2840 OFFCURVE",
"756 2738 CURVE SMOOTH",
"654 2637 OFFCURVE",
"597 2499 OFFCURVE",
"597 2356 CURVE SMOOTH",
"597 2340 OFFCURVE",
"585 2328 OFFCURVE",
"569 2328 CURVE SMOOTH",
"553 2328 OFFCURVE",
"540 2340 OFFCURVE",
"540 2356 CURVE SMOOTH",
"540 2515 OFFCURVE",
"603 2667 OFFCURVE",
"715 2779 CURVE SMOOTH",
"827 2891 OFFCURVE",
"979 2953 OFFCURVE",
"1138 2953 CURVE SMOOTH"
);
},
{
closed = 1;
nodes = (
"1296 2953 OFFCURVE",
"1448 2891 OFFCURVE",
"1560 2778 CURVE SMOOTH",
"1672 2666 OFFCURVE",
"1735 2514 OFFCURVE",
"1735 2356 CURVE SMOOTH",
"1735 2340 OFFCURVE",
"1722 2328 OFFCURVE",
"1707 2328 CURVE SMOOTH",
"1691 2328 OFFCURVE",
"1678 2340 OFFCURVE",
"1678 2356 CURVE SMOOTH",
"1678 2499 OFFCURVE",
"1621 2637 OFFCURVE",
"1520 2738 CURVE SMOOTH",
"1419 2840 OFFCURVE",
"1281 2897 OFFCURVE",
"1138 2897 CURVE SMOOTH",
"1122 2897 OFFCURVE",
"1109 2909 OFFCURVE",
"1109 2925 CURVE SMOOTH",
"1109 2941 OFFCURVE",
"1122 2953 OFFCURVE",
"1138 2953 CURVE SMOOTH"
);
},
{
closed = 1;
nodes = (
"1722 2385 OFFCURVE",
"1735 2372 OFFCURVE",
"1735 2356 CURVE SMOOTH",
"1735 569 LINE SMOOTH",
"1735 553 OFFCURVE",
"1722 541 OFFCURVE",
"1707 540 CURVE SMOOTH",
"1691 541 OFFCURVE",
"1678 553 OFFCURVE",
"1678 569 CURVE SMOOTH",
"1678 2356 LINE SMOOTH",
"1678 2372 OFFCURVE",
"1691 2385 OFFCURVE",
"1707 2385 CURVE SMOOTH"
);
},
{
closed = 1;
nodes = (
"1722 597 OFFCURVE",
"1735 585 OFFCURVE",
"1735 569 CURVE SMOOTH",
"1735 0 LINE SMOOTH",
"1735 -16 OFFCURVE",
"1722 -28 OFFCURVE",
"1707 -28 CURVE SMOOTH",
"1691 -28 OFFCURVE",
"1678 -16 OFFCURVE",
"1678 0 CURVE SMOOTH",
"1678 569 LINE SMOOTH",
"1678 585 OFFCURVE",
"1691 597 OFFCURVE",
"1707 597 CURVE SMOOTH"
);
},
{
closed = 1;
nodes = (
"2291 2953 OFFCURVE",
"2304 2941 OFFCURVE",
"2304 2925 CURVE SMOOTH",
"2304 2909 OFFCURVE",
"2291 2897 OFFCURVE",
"2276 2897 CURVE SMOOTH",
"2132 2897 OFFCURVE",
"1995 2840 OFFCURVE",
"1893 2738 CURVE SMOOTH",
"1792 2637 OFFCURVE",
"1735 2499 OFFCURVE",
"1735 2356 CURVE SMOOTH",
"1735 2340 OFFCURVE",
"1722 2328 OFFCURVE",
"1707 2328 CURVE SMOOTH",
"1691 2328 OFFCURVE",
"1678 2340 OFFCURVE",
"1678 2356 CURVE SMOOTH",
"1678 2515 OFFCURVE",
"1741 2667 OFFCURVE",
"1853 2779 CURVE SMOOTH",
"1965 2891 OFFCURVE",
"2117 2953 OFFCURVE",
"2276 2953 CURVE SMOOTH"
);
},
{
closed = 1;
nodes = (
"2434 2953 OFFCURVE",
"2586 2891 OFFCURVE",
"2698 2778 CURVE SMOOTH",
"2810 2666 OFFCURVE",
"2873 2514 OFFCURVE",
"2873 2356 CURVE SMOOTH",
"2873 2340 OFFCURVE",
"2860 2328 OFFCURVE",
"2844 2328 CURVE SMOOTH",
"2829 2328 OFFCURVE",
"2816 2340 OFFCURVE",
"2816 2356 CURVE SMOOTH",
"2816 2499 OFFCURVE",
"2759 2637 OFFCURVE",
"2658 2738 CURVE SMOOTH",
"2556 2840 OFFCURVE",
"2419 2897 OFFCURVE",
"2276 2897 CURVE SMOOTH",
"2260 2897 OFFCURVE",
"2247 2909 OFFCURVE",
"2247 2925 CURVE SMOOTH",
"2247 2941 OFFCURVE",
"2260 2953 OFFCURVE",
"2276 2953 CURVE SMOOTH"
);
},
{
closed = 1;
nodes = (
"2860 2385 OFFCURVE",
"2873 2372 OFFCURVE",
"2873 2356 CURVE SMOOTH",
"2873 569 LINE SMOOTH",
"2873 553 OFFCURVE",
"2860 541 OFFCURVE",
"2844 540 CURVE SMOOTH",
"2829 541 OFFCURVE",
"2816 553 OFFCURVE",
"2816 569 CURVE SMOOTH",
"2816 2356 LINE SMOOTH",
"2816 2372 OFFCURVE",
"2829 2385 OFFCURVE",
"2844 2385 CURVE SMOOTH"
);
},
{
closed = 1;
nodes = (
"2816 569 LINE SMOOTH",
"2816 585 OFFCURVE",
"2829 598 OFFCURVE",
"2844 598 CURVE SMOOTH",
"2860 598 OFFCURVE",
"2873 585 OFFCURVE",
"2873 569 CURVE SMOOTH",
"2873 0 LINE SMOOTH",
"2873 -15 OFFCURVE",
"2860 -28 OFFCURVE",
"2844 -28 CURVE SMOOTH",
"2829 -28 OFFCURVE",
"2816 -15 OFFCURVE",
"2816 0 CURVE SMOOTH"
);
}
);
width = 3413;
},
{
layerId = "19B6A511-96ED-40AF-BAB7-D1E16DFA4179";
paths = (
{
closed = 1;
nodes = (
"663 2527 OFFCURVE",
"740 2450 OFFCURVE",
"740 2356 CURVE SMOOTH",
"740 569 LINE SMOOTH",
"740 475 OFFCURVE",
"663 398 OFFCURVE",
"569 398 CURVE SMOOTH",
"475 398 OFFCURVE",
"398 475 OFFCURVE",
"398 569 CURVE SMOOTH",
"398 2356 LINE SMOOTH",
"398 2450 OFFCURVE",
"475 2527 OFFCURVE",
"569 2527 CURVE SMOOTH"
);
},
{
closed = 1;
nodes = (
"663 740 OFFCURVE",
"740 663 OFFCURVE",
"740 569 CURVE SMOOTH",
"740 0 LINE SMOOTH",
"740 -94 OFFCURVE",
"663 -171 OFFCURVE",
"569 -171 CURVE SMOOTH",
"475 -171 OFFCURVE",
"398 -94 OFFCURVE",
"398 0 CURVE SMOOTH",
"398 569 LINE SMOOTH",
"398 663 OFFCURVE",
"475 740 OFFCURVE",
"569 740 CURVE SMOOTH"
);
},
{
closed = 1;
nodes = (
"1232 3096 OFFCURVE",
"1308 3019 OFFCURVE",
"1308 2925 CURVE SMOOTH",
"1308 2831 OFFCURVE",
"1232 2754 OFFCURVE",
"1138 2754 CURVE SMOOTH",
"1032 2754 OFFCURVE",
"931 2712 OFFCURVE",
"856 2638 CURVE SMOOTH",
"781 2563 OFFCURVE",
"740 2462 OFFCURVE",
"740 2356 CURVE SMOOTH",
"740 2262 OFFCURVE",
"663 2186 OFFCURVE",
"569 2185 CURVE SMOOTH",
"475 2186 OFFCURVE",
"398 2262 OFFCURVE",
"398 2356 CURVE SMOOTH",
"398 2552 OFFCURVE",
"476 2740 OFFCURVE",
"615 2879 CURVE SMOOTH",
"754 3018 OFFCURVE",
"942 3096 OFFCURVE",
"1138 3096 CURVE SMOOTH"
);
},
{
closed = 1;
nodes = (
"1334 3096 OFFCURVE",
"1522 3018 OFFCURVE",
"1661 2879 CURVE SMOOTH",
"1799 2740 OFFCURVE",
"1877 2552 OFFCURVE",
"1877 2356 CURVE SMOOTH",
"1877 2262 OFFCURVE",
"1801 2186 OFFCURVE",
"1707 2185 CURVE SMOOTH",
"1612 2186 OFFCURVE",
"1536 2262 OFFCURVE",
"1536 2356 CURVE SMOOTH",
"1536 2462 OFFCURVE",
"1494 2563 OFFCURVE",
"1419 2638 CURVE SMOOTH",
"1345 2712 OFFCURVE",
"1243 2754 OFFCURVE",
"1138 2754 CURVE SMOOTH",
"1044 2754 OFFCURVE",
"967 2831 OFFCURVE",
"967 2925 CURVE SMOOTH",
"967 3019 OFFCURVE",
"1044 3096 OFFCURVE",
"1138 3096 CURVE SMOOTH"
);
},
{
closed = 1;
nodes = (
"1801 2527 OFFCURVE",
"1877 2450 OFFCURVE",
"1877 2356 CURVE SMOOTH",
"1877 569 LINE SMOOTH",
"1877 475 OFFCURVE",
"1801 398 OFFCURVE",
"1707 398 CURVE SMOOTH",
"1612 398 OFFCURVE",
"1536 475 OFFCURVE",
"1536 569 CURVE SMOOTH",
"1536 2356 LINE SMOOTH",
"1536 2450 OFFCURVE",
"1612 2527 OFFCURVE",
"1707 2527 CURVE SMOOTH"
);
},
{
closed = 1;
nodes = (
"1801 740 OFFCURVE",
"1877 663 OFFCURVE",
"1877 569 CURVE SMOOTH",
"1877 0 LINE SMOOTH",
"1877 -94 OFFCURVE",
"1801 -171 OFFCURVE",
"1707 -171 CURVE SMOOTH",
"1612 -171 OFFCURVE",
"1536 -94 OFFCURVE",
"1536 0 CURVE SMOOTH",
"1536 569 LINE SMOOTH",
"1536 663 OFFCURVE",
"1612 740 OFFCURVE",
"1707 740 CURVE SMOOTH"
);
},
{
closed = 1;
nodes = (
"2370 3096 OFFCURVE",
"2446 3019 OFFCURVE",
"2446 2925 CURVE SMOOTH",
"2446 2831 OFFCURVE",
"2370 2754 OFFCURVE",
"2276 2754 CURVE SMOOTH",
"2170 2754 OFFCURVE",
"2069 2712 OFFCURVE",
"1994 2638 CURVE SMOOTH",
"1919 2563 OFFCURVE",
"1877 2462 OFFCURVE",
"1877 2356 CURVE SMOOTH",
"1877 2262 OFFCURVE",
"1801 2186 OFFCURVE",
"1707 2185 CURVE SMOOTH",
"1612 2186 OFFCURVE",
"1536 2262 OFFCURVE",
"1536 2356 CURVE SMOOTH",
"1536 2552 OFFCURVE",
"1614 2740 OFFCURVE",
"1753 2879 CURVE SMOOTH",
"1891 3018 OFFCURVE",
"2080 3096 OFFCURVE",
"2276 3096 CURVE SMOOTH"
);
},
{
closed = 1;
nodes = (
"2472 3096 OFFCURVE",
"2660 3018 OFFCURVE",
"2798 2879 CURVE SMOOTH",
"2937 2740 OFFCURVE",
"3015 2552 OFFCURVE",
"3015 2356 CURVE SMOOTH",
"3015 2262 OFFCURVE",
"2939 2186 OFFCURVE",
"2844 2185 CURVE SMOOTH",
"2750 2186 OFFCURVE",
"2674 2262 OFFCURVE",
"2674 2356 CURVE SMOOTH",
"2674 2462 OFFCURVE",
"2632 2563 OFFCURVE",
"2557 2638 CURVE SMOOTH",
"2482 2712 OFFCURVE",
"2381 2754 OFFCURVE",
"2276 2754 CURVE SMOOTH",
"2181 2754 OFFCURVE",
"2105 2831 OFFCURVE",
"2105 2925 CURVE SMOOTH",
"2105 3019 OFFCURVE",
"2181 3096 OFFCURVE",
"2276 3096 CURVE SMOOTH"
);
},
{
closed = 1;
nodes = (
"2939 2527 OFFCURVE",
"3015 2450 OFFCURVE",
"3015 2356 CURVE SMOOTH",
"3015 569 LINE SMOOTH",
"3015 475 OFFCURVE",
"2939 398 OFFCURVE",
"2844 398 CURVE SMOOTH",
"2750 398 OFFCURVE",
"2674 475 OFFCURVE",
"2674 569 CURVE SMOOTH",
"2674 2356 LINE SMOOTH",
"2674 2450 OFFCURVE",
"2750 2527 OFFCURVE",
"2844 2527 CURVE SMOOTH"
);
},
{
closed = 1;
nodes = (
"2674 569 LINE SMOOTH",
"2674 663 OFFCURVE",
"2750 740 OFFCURVE",
"2844 740 CURVE SMOOTH",
"2939 740 OFFCURVE",
"3015 663 OFFCURVE",
"3015 569 CURVE SMOOTH",
"3015 0 LINE SMOOTH",
"3015 -94 OFFCURVE",
"2939 -171 OFFCURVE",
"2844 -171 CURVE SMOOTH",
"2750 -171 OFFCURVE",
"2674 -94 OFFCURVE",
"2674 0 CURVE SMOOTH"
);
}
);
width = 3413;
}
);
leftKerningGroup = h;
rightKerningGroup = h;
unicode = 006D;
},
{
glyphname = w;
lastChange = "2021-01-30 08:49:12 +0000";
layers = (
{
layerId = master01;
paths = (
{
closed = 1;
nodes = (
"585 2953 OFFCURVE",
"597 2941 OFFCURVE",
"597 2925 CURVE SMOOTH",
"597 2356 LINE SMOOTH",
"597 2340 OFFCURVE",
"585 2328 OFFCURVE",
"569 2328 CURVE SMOOTH",
"553 2328 OFFCURVE",
"540 2340 OFFCURVE",
"540 2356 CURVE SMOOTH",
"540 2925 LINE SMOOTH",
"540 2941 OFFCURVE",
"553 2953 OFFCURVE",
"569 2953 CURVE SMOOTH"
);
},
{
closed = 1;
nodes = (
"585 2385 OFFCURVE",
"597 2372 OFFCURVE",
"597 2356 CURVE SMOOTH",
"597 569 LINE SMOOTH",
"597 553 OFFCURVE",
"585 541 OFFCURVE",
"569 540 CURVE SMOOTH",
"553 541 OFFCURVE",
"540 553 OFFCURVE",
"540 569 CURVE SMOOTH",
"540 2356 LINE SMOOTH",
"540 2372 OFFCURVE",
"553 2385 OFFCURVE",
"569 2385 CURVE SMOOTH"
);
},
{
closed = 1;
nodes = (
"1722 597 OFFCURVE",
"1735 585 OFFCURVE",
"1735 569 CURVE SMOOTH",
"1735 411 OFFCURVE",
"1672 259 OFFCURVE",
"1560 147 CURVE SMOOTH",
"1448 34 OFFCURVE",
"1296 -28 OFFCURVE",
"1138 -28 CURVE SMOOTH",
"1122 -28 OFFCURVE",
"1109 -16 OFFCURVE",
"1109 0 CURVE SMOOTH",
"1109 16 OFFCURVE",
"1122 28 OFFCURVE",
"1138 28 CURVE SMOOTH",
"1281 28 OFFCURVE",
"1419 85 OFFCURVE",
"1520 187 CURVE SMOOTH",
"1621 288 OFFCURVE",
"1678 426 OFFCURVE",
"1678 569 CURVE SMOOTH",
"1678 585 OFFCURVE",
"1691 597 OFFCURVE",
"1707 597 CURVE SMOOTH"
);
},
{
closed = 1;
nodes = (
"585 597 OFFCURVE",
"597 585 OFFCURVE",
"597 569 CURVE SMOOTH",
"597 426 OFFCURVE",
"654 288 OFFCURVE",
"756 187 CURVE SMOOTH",
"857 85 OFFCURVE",
"994 28 OFFCURVE",
"1138 28 CURVE SMOOTH",
"1153 28 OFFCURVE",
"1166 16 OFFCURVE",
"1166 0 CURVE SMOOTH",
"1166 -16 OFFCURVE",
"1153 -28 OFFCURVE",
"1138 -28 CURVE SMOOTH",
"979 -28 OFFCURVE",
"827 34 OFFCURVE",
"715 147 CURVE SMOOTH",
"603 259 OFFCURVE",
"540 411 OFFCURVE",
"540 569 CURVE SMOOTH",
"540 585 OFFCURVE",
"553 597 OFFCURVE",
"569 597 CURVE SMOOTH"
);
},
{
closed = 1;
nodes = (
"1722 2953 OFFCURVE",
"1735 2941 OFFCURVE",
"1735 2925 CURVE SMOOTH",
"1735 2356 LINE SMOOTH",
"1735 2340 OFFCURVE",
"1722 2328 OFFCURVE",
"1707 2328 CURVE SMOOTH",
"1691 2328 OFFCURVE",
"1678 2340 OFFCURVE",
"1678 2356 CURVE SMOOTH",
"1678 2925 LINE SMOOTH",
"1678 2941 OFFCURVE",
"1691 2953 OFFCURVE",
"1707 2953 CURVE SMOOTH"
);
},
{
closed = 1;
nodes = (
"1722 2385 OFFCURVE",
"1735 2372 OFFCURVE",
"1735 2356 CURVE SMOOTH",
"1735 569 LINE SMOOTH",
"1735 553 OFFCURVE",
"1722 541 OFFCURVE",
"1707 540 CURVE SMOOTH",
"1691 541 OFFCURVE",
"1678 553 OFFCURVE",
"1678 569 CURVE SMOOTH",
"1678 2356 LINE SMOOTH",
"1678 2372 OFFCURVE",
"1691 2385 OFFCURVE",
"1707 2385 CURVE SMOOTH"
);
},
{
closed = 1;
nodes = (
"2860 597 OFFCURVE",
"2873 585 OFFCURVE",
"2873 569 CURVE SMOOTH",
"2873 411 OFFCURVE",
"2810 259 OFFCURVE",
"2698 147 CURVE SMOOTH",
"2586 34 OFFCURVE",
"2434 -28 OFFCURVE",
"2276 -28 CURVE SMOOTH",
"2260 -28 OFFCURVE",
"2247 -16 OFFCURVE",
"2247 0 CURVE SMOOTH",
"2247 16 OFFCURVE",
"2260 28 OFFCURVE",
"2276 28 CURVE SMOOTH",
"2419 28 OFFCURVE",
"2556 85 OFFCURVE",
"2658 187 CURVE SMOOTH",
"2759 288 OFFCURVE",
"2816 426 OFFCURVE",
"2816 569 CURVE SMOOTH",
"2816 585 OFFCURVE",
"2829 597 OFFCURVE",
"2844 597 CURVE SMOOTH"
);
},
{
closed = 1;
nodes = (
"1722 597 OFFCURVE",
"1735 585 OFFCURVE",
"1735 569 CURVE SMOOTH",
"1735 426 OFFCURVE",
"1792 288 OFFCURVE",
"1893 187 CURVE SMOOTH",
"1995 85 OFFCURVE",
"2132 28 OFFCURVE",
"2276 28 CURVE SMOOTH",
"2291 28 OFFCURVE",
"2304 16 OFFCURVE",
"2304 0 CURVE SMOOTH",
"2304 -16 OFFCURVE",
"2291 -28 OFFCURVE",
"2276 -28 CURVE SMOOTH",
"2117 -28 OFFCURVE",
"1965 34 OFFCURVE",
"1853 147 CURVE SMOOTH",
"1741 259 OFFCURVE",
"1678 411 OFFCURVE",
"1678 569 CURVE SMOOTH",
"1678 585 OFFCURVE",
"1691 597 OFFCURVE",
"1707 597 CURVE SMOOTH"
);
},
{
closed = 1;
nodes = (
"2860 2953 OFFCURVE",
"2873 2941 OFFCURVE",
"2873 2925 CURVE SMOOTH",
"2873 2356 LINE SMOOTH",
"2873 2340 OFFCURVE",
"2860 2328 OFFCURVE",
"2844 2328 CURVE SMOOTH",
"2829 2328 OFFCURVE",
"2816 2340 OFFCURVE",
"2816 2356 CURVE SMOOTH",
"2816 2925 LINE SMOOTH",
"2816 2941 OFFCURVE",
"2829 2953 OFFCURVE",
"2844 2953 CURVE SMOOTH"
);
},
{
closed = 1;
nodes = (
"2816 2356 LINE SMOOTH",
"2816 2372 OFFCURVE",
"2829 2385 OFFCURVE",
"2844 2385 CURVE SMOOTH",
"2860 2385 OFFCURVE",
"2873 2372 OFFCURVE",
"2873 2356 CURVE SMOOTH",
"2873 569 LINE SMOOTH",
"2873 554 OFFCURVE",
"2860 541 OFFCURVE",
"2844 541 CURVE SMOOTH",
"2829 541 OFFCURVE",
"2816 554 OFFCURVE",
"2816 569 CURVE SMOOTH"
);
}
);
width = 3413;
},
{
layerId = "19B6A511-96ED-40AF-BAB7-D1E16DFA4179";
paths = (
{
closed = 1;
nodes = (
"663 3096 OFFCURVE",
"740 3019 OFFCURVE",
"740 2925 CURVE SMOOTH",
"740 2356 LINE SMOOTH",
"740 2262 OFFCURVE",
"663 2186 OFFCURVE",
"569 2185 CURVE SMOOTH",
"475 2186 OFFCURVE",
"398 2262 OFFCURVE",
"398 2356 CURVE SMOOTH",
"398 2925 LINE SMOOTH",
"398 3019 OFFCURVE",
"475 3096 OFFCURVE",
"569 3096 CURVE SMOOTH"
);
},
{
closed = 1;
nodes = (
"663 2527 OFFCURVE",
"740 2450 OFFCURVE",
"740 2356 CURVE SMOOTH",
"740 569 LINE SMOOTH",
"740 475 OFFCURVE",
"663 398 OFFCURVE",
"569 398 CURVE SMOOTH",
"475 398 OFFCURVE",
"398 475 OFFCURVE",
"398 569 CURVE SMOOTH",
"398 2356 LINE SMOOTH",
"398 2450 OFFCURVE",
"475 2527 OFFCURVE",
"569 2527 CURVE SMOOTH"
);
},
{
closed = 1;
nodes = (
"1801 740 OFFCURVE",
"1877 663 OFFCURVE",
"1877 569 CURVE SMOOTH",
"1877 373 OFFCURVE",
"1799 185 OFFCURVE",
"1661 46 CURVE SMOOTH",
"1522 -93 OFFCURVE",
"1334 -171 OFFCURVE",
"1138 -171 CURVE SMOOTH",
"1044 -171 OFFCURVE",
"967 -94 OFFCURVE",
"967 0 CURVE SMOOTH",
"967 94 OFFCURVE",
"1044 171 OFFCURVE",
"1138 171 CURVE SMOOTH",
"1243 171 OFFCURVE",
"1345 213 OFFCURVE",
"1419 287 CURVE SMOOTH",
"1494 362 OFFCURVE",
"1536 463 OFFCURVE",
"1536 569 CURVE SMOOTH",
"1536 663 OFFCURVE",
"1612 740 OFFCURVE",
"1707 740 CURVE SMOOTH"
);
},
{
closed = 1;
nodes = (
"663 740 OFFCURVE",
"740 663 OFFCURVE",
"740 569 CURVE SMOOTH",
"740 463 OFFCURVE",
"781 362 OFFCURVE",
"856 287 CURVE SMOOTH",
"931 213 OFFCURVE",
"1032 171 OFFCURVE",
"1138 171 CURVE SMOOTH",
"1232 171 OFFCURVE",
"1308 94 OFFCURVE",
"1308 0 CURVE SMOOTH",
"1308 -94 OFFCURVE",
"1232 -171 OFFCURVE",
"1138 -171 CURVE SMOOTH",
"942 -171 OFFCURVE",
"754 -93 OFFCURVE",
"615 46 CURVE SMOOTH",
"476 185 OFFCURVE",
"398 373 OFFCURVE",
"398 569 CURVE SMOOTH",
"398 663 OFFCURVE",
"475 740 OFFCURVE",
"569 740 CURVE SMOOTH"
);
},
{
closed = 1;
nodes = (
"1801 3096 OFFCURVE",
"1877 3019 OFFCURVE",
"1877 2925 CURVE SMOOTH",
"1877 2356 LINE SMOOTH",
"1877 2262 OFFCURVE",
"1801 2186 OFFCURVE",
"1707 2185 CURVE SMOOTH",
"1612 2186 OFFCURVE",
"1536 2262 OFFCURVE",
"1536 2356 CURVE SMOOTH",
"1536 2925 LINE SMOOTH",
"1536 3019 OFFCURVE",
"1612 3096 OFFCURVE",
"1707 3096 CURVE SMOOTH"
);
},
{
closed = 1;
nodes = (
"1801 2527 OFFCURVE",
"1877 2450 OFFCURVE",
"1877 2356 CURVE SMOOTH",
"1877 569 LINE SMOOTH",
"1877 475 OFFCURVE",
"1801 398 OFFCURVE",
"1707 398 CURVE SMOOTH",
"1612 398 OFFCURVE",
"1536 475 OFFCURVE",
"1536 569 CURVE SMOOTH",
"1536 2356 LINE SMOOTH",
"1536 2450 OFFCURVE",
"1612 2527 OFFCURVE",
"1707 2527 CURVE SMOOTH"
);
},
{
closed = 1;
nodes = (
"2939 740 OFFCURVE",
"3015 663 OFFCURVE",
"3015 569 CURVE SMOOTH",
"3015 373 OFFCURVE",
"2937 185 OFFCURVE",
"2798 46 CURVE SMOOTH",
"2660 -93 OFFCURVE",
"2472 -171 OFFCURVE",
"2276 -171 CURVE SMOOTH",
"2181 -171 OFFCURVE",
"2105 -94 OFFCURVE",
"2105 0 CURVE SMOOTH",
"2105 94 OFFCURVE",
"2181 171 OFFCURVE",
"2276 171 CURVE SMOOTH",
"2381 171 OFFCURVE",
"2482 213 OFFCURVE",
"2557 287 CURVE SMOOTH",
"2632 362 OFFCURVE",
"2674 463 OFFCURVE",
"2674 569 CURVE SMOOTH",
"2674 663 OFFCURVE",
"2750 740 OFFCURVE",
"2844 740 CURVE SMOOTH"
);
},
{
closed = 1;
nodes = (
"1801 740 OFFCURVE",
"1877 663 OFFCURVE",
"1877 569 CURVE SMOOTH",
"1877 463 OFFCURVE",
"1919 362 OFFCURVE",
"1994 287 CURVE SMOOTH",
"2069 213 OFFCURVE",
"2170 171 OFFCURVE",
"2276 171 CURVE SMOOTH",
"2370 171 OFFCURVE",
"2446 94 OFFCURVE",
"2446 0 CURVE SMOOTH",
"2446 -94 OFFCURVE",
"2370 -171 OFFCURVE",
"2276 -171 CURVE SMOOTH",
"2080 -171 OFFCURVE",
"1891 -93 OFFCURVE",
"1753 46 CURVE SMOOTH",
"1614 185 OFFCURVE",
"1536 373 OFFCURVE",
"1536 569 CURVE SMOOTH",
"1536 663 OFFCURVE",
"1612 740 OFFCURVE",
"1707 740 CURVE SMOOTH"
);
},
{
closed = 1;
nodes = (
"2939 3096 OFFCURVE",
"3015 3019 OFFCURVE",
"3015 2925 CURVE SMOOTH",
"3015 2356 LINE SMOOTH",
"3015 2262 OFFCURVE",
"2939 2186 OFFCURVE",
"2844 2185 CURVE SMOOTH",
"2750 2186 OFFCURVE",
"2674 2262 OFFCURVE",
"2674 2356 CURVE SMOOTH",
"2674 2925 LINE SMOOTH",
"2674 3019 OFFCURVE",
"2750 3096 OFFCURVE",
"2844 3096 CURVE SMOOTH"
);
},
{
closed = 1;
nodes = (
"2674 2356 LINE SMOOTH",
"2674 2450 OFFCURVE",
"2750 2527 OFFCURVE",
"2844 2527 CURVE SMOOTH",
"2939 2527 OFFCURVE",
"3015 2450 OFFCURVE",
"3015 2356 CURVE SMOOTH",
"3015 569 LINE SMOOTH",
"3015 475 OFFCURVE",
"2939 398 OFFCURVE",
"2844 398 CURVE SMOOTH",
"2750 398 OFFCURVE",
"2674 475 OFFCURVE",
"2674 569 CURVE SMOOTH"
);
}
);
width = 3413;
}
);
leftKerningGroup = c;
rightKerningGroup = c;
unicode = 0077;
},
{
glyphname = j;
lastChange = "2021-01-30 08:49:12 +0000";
layers = (
{
layerId = master01;
paths = (
{
closed = 1;
nodes = (
"584 -2328 OFFCURVE",
"597 -2340 OFFCURVE",
"597 -2356 CURVE SMOOTH",
"597 -2514 OFFCURVE",
"534 -2666 OFFCURVE",
"422 -2778 CURVE SMOOTH",
"310 -2891 OFFCURVE",
"158 -2953 OFFCURVE",
"0 -2953 CURVE SMOOTH",
"-16 -2953 OFFCURVE",
"-29 -2941 OFFCURVE",
"-29 -2925 CURVE SMOOTH",
"-29 -2909 OFFCURVE",
"-16 -2897 OFFCURVE",
"0 -2897 CURVE SMOOTH",
"143 -2897 OFFCURVE",
"281 -2840 OFFCURVE",
"382 -2738 CURVE SMOOTH",
"483 -2637 OFFCURVE",
"540 -2499 OFFCURVE",
"540 -2356 CURVE SMOOTH",
"540 -2340 OFFCURVE",
"553 -2328 OFFCURVE",
"569 -2328 CURVE SMOOTH"
);
},
{
closed = 1;
nodes = (
"602 4382 OFFCURVE",
"598 4371 OFFCURVE",
"590 4364 CURVE SMOOTH",
"583 4356 OFFCURVE",
"572 4352 OFFCURVE",
"562 4352 CURVE SMOOTH",
"551 4352 OFFCURVE",
"541 4356 OFFCURVE",
"533 4364 CURVE SMOOTH",
"526 4371 OFFCURVE",
"521 4382 OFFCURVE",
"521 4392 CURVE SMOOTH",
"521 4403 OFFCURVE",
"526 4413 OFFCURVE",
"533 4421 CURVE SMOOTH",
"541 4428 OFFCURVE",
"551 4433 OFFCURVE",
"562 4433 CURVE SMOOTH",
"572 4433 OFFCURVE",
"583 4428 OFFCURVE",
"590 4421 CURVE SMOOTH",
"598 4413 OFFCURVE",
"602 4403 OFFCURVE",
"602 4392 CURVE SMOOTH"
);
},
{
closed = 1;
nodes = (
"584 2953 OFFCURVE",
"597 2941 OFFCURVE",
"597 2925 CURVE SMOOTH",
"597 2356 LINE SMOOTH",
"597 2340 OFFCURVE",
"584 2328 OFFCURVE",
"569 2328 CURVE SMOOTH",
"553 2328 OFFCURVE",
"540 2340 OFFCURVE",
"540 2356 CURVE SMOOTH",
"540 2925 LINE SMOOTH",
"540 2941 OFFCURVE",
"553 2953 OFFCURVE",
"569 2953 CURVE SMOOTH"
);
},
{
closed = 1;
nodes = (
"584 2385 OFFCURVE",
"597 2372 OFFCURVE",
"597 2356 CURVE SMOOTH",
"597 569 LINE SMOOTH",
"597 553 OFFCURVE",
"584 541 OFFCURVE",
"569 540 CURVE SMOOTH",
"553 541 OFFCURVE",
"540 553 OFFCURVE",
"540 569 CURVE SMOOTH",
"540 2356 LINE SMOOTH",
"540 2372 OFFCURVE",
"553 2385 OFFCURVE",
"569 2385 CURVE SMOOTH"
);
},
{
closed = 1;
nodes = (
"584 597 OFFCURVE",
"597 585 OFFCURVE",
"597 569 CURVE SMOOTH",
"597 0 LINE SMOOTH",
"597 -16 OFFCURVE",
"584 -28 OFFCURVE",
"569 -28 CURVE SMOOTH",
"553 -28 OFFCURVE",
"540 -16 OFFCURVE",
"540 0 CURVE SMOOTH",
"540 569 LINE SMOOTH",
"540 585 OFFCURVE",
"553 597 OFFCURVE",
"569 597 CURVE SMOOTH"
);
},
{
closed = 1;
nodes = (
"584 28 OFFCURVE",
"597 16 OFFCURVE",
"597 0 CURVE SMOOTH",
"597 -569 LINE SMOOTH",
"597 -585 OFFCURVE",
"584 -597 OFFCURVE",
"569 -597 CURVE SMOOTH",
"553 -597 OFFCURVE",
"540 -585 OFFCURVE",
"540 -569 CURVE SMOOTH",
"540 0 LINE SMOOTH",
"540 16 OFFCURVE",
"553 28 OFFCURVE",
"569 28 CURVE SMOOTH"
);
},
{
closed = 1;
nodes = (
"540 -569 LINE SMOOTH",
"540 -553 OFFCURVE",
"553 -540 OFFCURVE",
"569 -540 CURVE SMOOTH",
"584 -540 OFFCURVE",
"597 -553 OFFCURVE",
"597 -569 CURVE SMOOTH",
"597 -2356 LINE SMOOTH",
"597 -2371 OFFCURVE",
"584 -2384 OFFCURVE",
"569 -2384 CURVE SMOOTH",
"553 -2384 OFFCURVE",
"540 -2371 OFFCURVE",
"540 -2356 CURVE SMOOTH"
);
}
);
width = 1142;
},
{
layerId = "19B6A511-96ED-40AF-BAB7-D1E16DFA4179";
paths = (
{
closed = 1;
nodes = (
"664 -2185 OFFCURVE",
"740 -2262 OFFCURVE",
"740 -2356 CURVE SMOOTH",
"740 -2552 OFFCURVE",
"663 -2740 OFFCURVE",
"524 -2879 CURVE SMOOTH",
"385 -3018 OFFCURVE",
"197 -3096 OFFCURVE",
"1 -3096 CURVE SMOOTH",
"-93 -3096 OFFCURVE",
"-170 -3019 OFFCURVE",
"-170 -2925 CURVE SMOOTH",
"-170 -2831 OFFCURVE",
"-93 -2754 OFFCURVE",
"1 -2754 CURVE SMOOTH",
"107 -2754 OFFCURVE",
"208 -2712 OFFCURVE",
"282 -2638 CURVE SMOOTH",
"357 -2563 OFFCURVE",
"399 -2462 OFFCURVE",
"399 -2356 CURVE SMOOTH",
"399 -2262 OFFCURVE",
"476 -2185 OFFCURVE",
"570 -2185 CURVE SMOOTH"
);
},
{
closed = 1;
nodes = (
"745 4344 OFFCURVE",
"726 4298 OFFCURVE",
"692 4263 CURVE SMOOTH",
"657 4229 OFFCURVE",
"611 4210 OFFCURVE",
"563 4210 CURVE SMOOTH",
"514 4210 OFFCURVE",
"468 4229 OFFCURVE",
"434 4263 CURVE SMOOTH",
"399 4298 OFFCURVE",
"380 4344 OFFCURVE",
"380 4392 CURVE SMOOTH",
"380 4441 OFFCURVE",
"399 4487 OFFCURVE",
"434 4521 CURVE SMOOTH",
"468 4556 OFFCURVE",
"514 4575 OFFCURVE",
"563 4575 CURVE SMOOTH",
"611 4575 OFFCURVE",
"657 4556 OFFCURVE",
"692 4521 CURVE SMOOTH",
"726 4487 OFFCURVE",
"745 4441 OFFCURVE",
"745 4392 CURVE SMOOTH"
);
},
{
closed = 1;
nodes = (
"664 3096 OFFCURVE",
"740 3019 OFFCURVE",
"740 2925 CURVE SMOOTH",
"740 2356 LINE SMOOTH",
"740 2262 OFFCURVE",
"664 2186 OFFCURVE",
"570 2185 CURVE SMOOTH",
"476 2186 OFFCURVE",
"399 2262 OFFCURVE",
"399 2356 CURVE SMOOTH",
"399 2925 LINE SMOOTH",
"399 3019 OFFCURVE",
"476 3096 OFFCURVE",
"570 3096 CURVE SMOOTH"
);
},
{
closed = 1;
nodes = (
"664 2527 OFFCURVE",
"740 2450 OFFCURVE",
"740 2356 CURVE SMOOTH",
"740 569 LINE SMOOTH",
"740 475 OFFCURVE",
"664 398 OFFCURVE",
"570 398 CURVE SMOOTH",
"476 398 OFFCURVE",
"399 475 OFFCURVE",
"399 569 CURVE SMOOTH",
"399 2356 LINE SMOOTH",
"399 2450 OFFCURVE",
"476 2527 OFFCURVE",
"570 2527 CURVE SMOOTH"
);
},
{
closed = 1;
nodes = (
"664 740 OFFCURVE",
"740 663 OFFCURVE",
"740 569 CURVE SMOOTH",
"740 0 LINE SMOOTH",
"740 -94 OFFCURVE",
"664 -171 OFFCURVE",
"570 -171 CURVE SMOOTH",
"476 -171 OFFCURVE",
"399 -94 OFFCURVE",
"399 0 CURVE SMOOTH",
"399 569 LINE SMOOTH",
"399 663 OFFCURVE",
"476 740 OFFCURVE",
"570 740 CURVE SMOOTH"
);
},
{
closed = 1;
nodes = (
"664 171 OFFCURVE",
"740 94 OFFCURVE",
"740 0 CURVE SMOOTH",
"740 -569 LINE SMOOTH",
"740 -663 OFFCURVE",
"664 -739 OFFCURVE",
"570 -740 CURVE SMOOTH",
"476 -739 OFFCURVE",
"399 -663 OFFCURVE",
"399 -569 CURVE SMOOTH",
"399 0 LINE SMOOTH",
"399 94 OFFCURVE",
"476 171 OFFCURVE",
"570 171 CURVE SMOOTH"
);
},
{
closed = 1;
nodes = (
"399 -569 LINE SMOOTH",
"399 -475 OFFCURVE",
"476 -398 OFFCURVE",
"570 -398 CURVE SMOOTH",
"664 -398 OFFCURVE",
"740 -475 OFFCURVE",
"740 -569 CURVE SMOOTH",
"740 -2356 LINE SMOOTH",
"740 -2450 OFFCURVE",
"664 -2527 OFFCURVE",
"570 -2527 CURVE SMOOTH",
"476 -2527 OFFCURVE",
"399 -2450 OFFCURVE",
"399 -2356 CURVE SMOOTH"
);
}
);
width = 1143;
}
);
unicode = 006A;
},
{
glyphname = q;
lastChange = "2021-01-30 08:49:12 +0000";
layers = (
{
layerId = master01;
paths = (
{
closed = 1;
nodes = (
"585 2385 OFFCURVE",
"597 2372 OFFCURVE",
"597 2356 CURVE SMOOTH",
"597 569 LINE SMOOTH",
"597 553 OFFCURVE",
"585 541 OFFCURVE",
"569 540 CURVE SMOOTH",
"553 541 OFFCURVE",
"540 553 OFFCURVE",
"540 569 CURVE SMOOTH",
"540 2356 LINE SMOOTH",
"540 2372 OFFCURVE",
"553 2385 OFFCURVE",
"569 2385 CURVE SMOOTH"
);
},
{
closed = 1;
nodes = (
"1153 2953 OFFCURVE",
"1166 2941 OFFCURVE",
"1166 2925 CURVE SMOOTH",
"1166 2909 OFFCURVE",
"1153 2897 OFFCURVE",
"1138 2897 CURVE SMOOTH",
"994 2897 OFFCURVE",
"857 2840 OFFCURVE",
"756 2738 CURVE SMOOTH",
"654 2637 OFFCURVE",
"597 2499 OFFCURVE",
"597 2356 CURVE SMOOTH",
"597 2340 OFFCURVE",
"585 2328 OFFCURVE",
"569 2328 CURVE SMOOTH",
"553 2328 OFFCURVE",
"540 2340 OFFCURVE",
"540 2356 CURVE SMOOTH",
"540 2515 OFFCURVE",
"603 2667 OFFCURVE",
"715 2779 CURVE SMOOTH",
"827 2891 OFFCURVE",
"979 2953 OFFCURVE",
"1138 2953 CURVE SMOOTH"
);
},
{
closed = 1;
nodes = (
"1722 597 OFFCURVE",
"1735 585 OFFCURVE",
"1735 569 CURVE SMOOTH",
"1735 411 OFFCURVE",
"1672 259 OFFCURVE",
"1560 147 CURVE SMOOTH",
"1448 34 OFFCURVE",
"1296 -28 OFFCURVE",
"1138 -28 CURVE SMOOTH",
"1122 -28 OFFCURVE",
"1109 -16 OFFCURVE",
"1109 0 CURVE SMOOTH",
"1109 16 OFFCURVE",
"1122 28 OFFCURVE",
"1138 28 CURVE SMOOTH",
"1281 28 OFFCURVE",
"1419 85 OFFCURVE",
"1520 187 CURVE SMOOTH",
"1621 288 OFFCURVE",
"1678 426 OFFCURVE",
"1678 569 CURVE SMOOTH",
"1678 585 OFFCURVE",
"1691 597 OFFCURVE",
"1707 597 CURVE SMOOTH"
);
},
{
closed = 1;
nodes = (
"1296 2953 OFFCURVE",
"1448 2891 OFFCURVE",
"1560 2778 CURVE SMOOTH",
"1672 2666 OFFCURVE",
"1735 2514 OFFCURVE",
"1735 2356 CURVE SMOOTH",
"1735 2340 OFFCURVE",
"1722 2328 OFFCURVE",
"1707 2328 CURVE SMOOTH",
"1691 2328 OFFCURVE",
"1678 2340 OFFCURVE",
"1678 2356 CURVE SMOOTH",
"1678 2499 OFFCURVE",
"1621 2637 OFFCURVE",
"1520 2738 CURVE SMOOTH",
"1419 2840 OFFCURVE",
"1281 2897 OFFCURVE",
"1138 2897 CURVE SMOOTH",
"1122 2897 OFFCURVE",
"1109 2909 OFFCURVE",
"1109 2925 CURVE SMOOTH",
"1109 2941 OFFCURVE",
"1122 2953 OFFCURVE",
"1138 2953 CURVE SMOOTH"
);
},
{
closed = 1;
nodes = (
"585 597 OFFCURVE",
"597 585 OFFCURVE",
"597 569 CURVE SMOOTH",
"597 426 OFFCURVE",
"654 288 OFFCURVE",
"756 187 CURVE SMOOTH",
"857 85 OFFCURVE",
"994 28 OFFCURVE",
"1138 28 CURVE SMOOTH",
"1153 28 OFFCURVE",
"1166 16 OFFCURVE",
"1166 0 CURVE SMOOTH",
"1166 -16 OFFCURVE",
"1153 -28 OFFCURVE",
"1138 -28 CURVE SMOOTH",
"979 -28 OFFCURVE",
"827 34 OFFCURVE",
"715 147 CURVE SMOOTH",
"603 259 OFFCURVE",
"540 411 OFFCURVE",
"540 569 CURVE SMOOTH",
"540 585 OFFCURVE",
"553 597 OFFCURVE",
"569 597 CURVE SMOOTH"
);
},
{
closed = 1;
nodes = (
"1722 2385 OFFCURVE",
"1735 2372 OFFCURVE",
"1735 2356 CURVE SMOOTH",
"1735 569 LINE SMOOTH",
"1735 553 OFFCURVE",
"1722 541 OFFCURVE",
"1707 540 CURVE SMOOTH",
"1691 541 OFFCURVE",
"1678 553 OFFCURVE",
"1678 569 CURVE SMOOTH",
"1678 2356 LINE SMOOTH",
"1678 2372 OFFCURVE",
"1691 2385 OFFCURVE",
"1707 2385 CURVE SMOOTH"
);
},
{
closed = 1;
nodes = (
"1722 597 OFFCURVE",
"1735 585 OFFCURVE",
"1735 569 CURVE SMOOTH",
"1735 0 LINE SMOOTH",
"1735 -16 OFFCURVE",
"1722 -28 OFFCURVE",
"1707 -28 CURVE SMOOTH",
"1691 -28 OFFCURVE",
"1678 -16 OFFCURVE",
"1678 0 CURVE SMOOTH",
"1678 569 LINE SMOOTH",
"1678 585 OFFCURVE",
"1691 597 OFFCURVE",
"1707 597 CURVE SMOOTH"
);
},
{
closed = 1;
nodes = (
"1722 28 OFFCURVE",
"1735 16 OFFCURVE",
"1735 0 CURVE SMOOTH",
"1735 -569 LINE SMOOTH",
"1735 -585 OFFCURVE",
"1722 -597 OFFCURVE",
"1707 -597 CURVE SMOOTH",
"1691 -597 OFFCURVE",
"1678 -585 OFFCURVE",
"1678 -569 CURVE SMOOTH",
"1678 0 LINE SMOOTH",
"1678 16 OFFCURVE",
"1691 28 OFFCURVE",
"1707 28 CURVE SMOOTH"
);
},
{
closed = 1;
nodes = (
"1722 -540 OFFCURVE",
"1735 -553 OFFCURVE",
"1735 -569 CURVE SMOOTH",
"1735 -2356 LINE SMOOTH",
"1735 -2372 OFFCURVE",
"1722 -2384 OFFCURVE",
"1707 -2385 CURVE SMOOTH",
"1691 -2384 OFFCURVE",
"1678 -2372 OFFCURVE",
"1678 -2356 CURVE SMOOTH",
"1678 -569 LINE SMOOTH",
"1678 -553 OFFCURVE",
"1691 -540 OFFCURVE",
"1707 -540 CURVE SMOOTH"
);
},
{
closed = 1;
nodes = (
"1678 -2356 LINE SMOOTH",
"1678 -2340 OFFCURVE",
"1691 -2327 OFFCURVE",
"1707 -2327 CURVE SMOOTH",
"1722 -2327 OFFCURVE",
"1735 -2340 OFFCURVE",
"1735 -2356 CURVE SMOOTH",
"1735 -2925 LINE SMOOTH",
"1735 -2940 OFFCURVE",
"1722 -2953 OFFCURVE",
"1707 -2953 CURVE SMOOTH",
"1691 -2953 OFFCURVE",
"1678 -2940 OFFCURVE",
"1678 -2925 CURVE SMOOTH"
);
}
);
width = 2275;
},
{
layerId = "19B6A511-96ED-40AF-BAB7-D1E16DFA4179";
paths = (
{
closed = 1;
nodes = (
"663 2527 OFFCURVE",
"740 2450 OFFCURVE",
"740 2356 CURVE SMOOTH",
"740 569 LINE SMOOTH",
"740 475 OFFCURVE",
"663 398 OFFCURVE",
"569 398 CURVE SMOOTH",
"475 398 OFFCURVE",
"398 475 OFFCURVE",
"398 569 CURVE SMOOTH",
"398 2356 LINE SMOOTH",
"398 2450 OFFCURVE",
"475 2527 OFFCURVE",
"569 2527 CURVE SMOOTH"
);
},
{
closed = 1;
nodes = (
"1232 3096 OFFCURVE",
"1308 3019 OFFCURVE",
"1308 2925 CURVE SMOOTH",
"1308 2831 OFFCURVE",
"1232 2754 OFFCURVE",
"1138 2754 CURVE SMOOTH",
"1032 2754 OFFCURVE",
"931 2712 OFFCURVE",
"856 2638 CURVE SMOOTH",
"781 2563 OFFCURVE",
"740 2462 OFFCURVE",
"740 2356 CURVE SMOOTH",
"740 2262 OFFCURVE",
"663 2186 OFFCURVE",
"569 2185 CURVE SMOOTH",
"475 2186 OFFCURVE",
"398 2262 OFFCURVE",
"398 2356 CURVE SMOOTH",
"398 2552 OFFCURVE",
"476 2740 OFFCURVE",
"615 2879 CURVE SMOOTH",
"754 3018 OFFCURVE",
"942 3096 OFFCURVE",
"1138 3096 CURVE SMOOTH"
);
},
{
closed = 1;
nodes = (
"1801 740 OFFCURVE",
"1877 663 OFFCURVE",
"1877 569 CURVE SMOOTH",
"1877 373 OFFCURVE",
"1799 185 OFFCURVE",
"1661 46 CURVE SMOOTH",
"1522 -93 OFFCURVE",
"1334 -171 OFFCURVE",
"1138 -171 CURVE SMOOTH",
"1044 -171 OFFCURVE",
"967 -94 OFFCURVE",
"967 0 CURVE SMOOTH",
"967 94 OFFCURVE",
"1044 171 OFFCURVE",
"1138 171 CURVE SMOOTH",
"1243 171 OFFCURVE",
"1345 213 OFFCURVE",
"1419 287 CURVE SMOOTH",
"1494 362 OFFCURVE",
"1536 463 OFFCURVE",
"1536 569 CURVE SMOOTH",
"1536 663 OFFCURVE",
"1612 740 OFFCURVE",
"1707 740 CURVE SMOOTH"
);
},
{
closed = 1;
nodes = (
"1334 3096 OFFCURVE",
"1522 3018 OFFCURVE",
"1661 2879 CURVE SMOOTH",
"1799 2740 OFFCURVE",
"1877 2552 OFFCURVE",
"1877 2356 CURVE SMOOTH",
"1877 2262 OFFCURVE",
"1801 2186 OFFCURVE",
"1707 2185 CURVE SMOOTH",
"1612 2186 OFFCURVE",
"1536 2262 OFFCURVE",
"1536 2356 CURVE SMOOTH",
"1536 2462 OFFCURVE",
"1494 2563 OFFCURVE",
"1419 2638 CURVE SMOOTH",
"1345 2712 OFFCURVE",
"1243 2754 OFFCURVE",
"1138 2754 CURVE SMOOTH",
"1044 2754 OFFCURVE",
"967 2831 OFFCURVE",
"967 2925 CURVE SMOOTH",
"967 3019 OFFCURVE",
"1044 3096 OFFCURVE",
"1138 3096 CURVE SMOOTH"
);
},
{
closed = 1;
nodes = (
"663 740 OFFCURVE",
"740 663 OFFCURVE",
"740 569 CURVE SMOOTH",
"740 463 OFFCURVE",
"781 362 OFFCURVE",
"856 287 CURVE SMOOTH",
"931 213 OFFCURVE",
"1032 171 OFFCURVE",
"1138 171 CURVE SMOOTH",
"1232 171 OFFCURVE",
"1308 94 OFFCURVE",
"1308 0 CURVE SMOOTH",
"1308 -94 OFFCURVE",
"1232 -171 OFFCURVE",
"1138 -171 CURVE SMOOTH",
"942 -171 OFFCURVE",
"754 -93 OFFCURVE",
"615 46 CURVE SMOOTH",
"476 185 OFFCURVE",
"398 373 OFFCURVE",
"398 569 CURVE SMOOTH",
"398 663 OFFCURVE",
"475 740 OFFCURVE",
"569 740 CURVE SMOOTH"
);
},
{
closed = 1;
nodes = (
"1801 2527 OFFCURVE",
"1877 2450 OFFCURVE",
"1877 2356 CURVE SMOOTH",
"1877 569 LINE SMOOTH",
"1877 475 OFFCURVE",
"1801 398 OFFCURVE",
"1707 398 CURVE SMOOTH",
"1612 398 OFFCURVE",
"1536 475 OFFCURVE",
"1536 569 CURVE SMOOTH",
"1536 2356 LINE SMOOTH",
"1536 2450 OFFCURVE",
"1612 2527 OFFCURVE",
"1707 2527 CURVE SMOOTH"
);
},
{
closed = 1;
nodes = (
"1801 740 OFFCURVE",
"1877 663 OFFCURVE",
"1877 569 CURVE SMOOTH",
"1877 0 LINE SMOOTH",
"1877 -94 OFFCURVE",
"1801 -171 OFFCURVE",
"1707 -171 CURVE SMOOTH",
"1612 -171 OFFCURVE",
"1536 -94 OFFCURVE",
"1536 0 CURVE SMOOTH",
"1536 569 LINE SMOOTH",
"1536 663 OFFCURVE",
"1612 740 OFFCURVE",
"1707 740 CURVE SMOOTH"
);
},
{
closed = 1;
nodes = (
"1801 171 OFFCURVE",
"1877 94 OFFCURVE",
"1877 0 CURVE SMOOTH",
"1877 -569 LINE SMOOTH",
"1877 -663 OFFCURVE",
"1801 -739 OFFCURVE",
"1707 -740 CURVE SMOOTH",
"1612 -739 OFFCURVE",
"1536 -663 OFFCURVE",
"1536 -569 CURVE SMOOTH",
"1536 0 LINE SMOOTH",
"1536 94 OFFCURVE",
"1612 171 OFFCURVE",
"1707 171 CURVE SMOOTH"
);
},
{
closed = 1;
nodes = (
"1801 -398 OFFCURVE",
"1877 -475 OFFCURVE",
"1877 -569 CURVE SMOOTH",
"1877 -2356 LINE SMOOTH",
"1877 -2450 OFFCURVE",
"1801 -2527 OFFCURVE",
"1707 -2527 CURVE SMOOTH",
"1612 -2527 OFFCURVE",
"1536 -2450 OFFCURVE",
"1536 -2356 CURVE SMOOTH",
"1536 -569 LINE SMOOTH",
"1536 -475 OFFCURVE",
"1612 -398 OFFCURVE",
"1707 -398 CURVE SMOOTH"
);
},
{
closed = 1;
nodes = (
"1536 -2356 LINE SMOOTH",
"1536 -2262 OFFCURVE",
"1612 -2185 OFFCURVE",
"1707 -2185 CURVE SMOOTH",
"1801 -2185 OFFCURVE",
"1877 -2262 OFFCURVE",
"1877 -2356 CURVE SMOOTH",
"1877 -2925 LINE SMOOTH",
"1877 -3019 OFFCURVE",
"1801 -3096 OFFCURVE",
"1707 -3096 CURVE SMOOTH",
"1612 -3096 OFFCURVE",
"1536 -3019 OFFCURVE",
"1536 -2925 CURVE SMOOTH"
);
}
);
width = 2275;
}
);
leftKerningGroup = c;
unicode = 0071;
},
{
glyphname = x;
lastChange = "2021-01-30 08:49:12 +0000";
layers = (
{
layerId = master01;
paths = (
{
closed = 1;
nodes = (
"1153 2953 OFFCURVE",
"1166 2941 OFFCURVE",
"1166 2925 CURVE SMOOTH",
"1166 2909 OFFCURVE",
"1153 2897 OFFCURVE",
"1138 2897 CURVE SMOOTH",
"994 2897 OFFCURVE",
"857 2840 OFFCURVE",
"756 2738 CURVE SMOOTH",
"654 2637 OFFCURVE",
"597 2499 OFFCURVE",
"597 2356 CURVE SMOOTH",
"597 2340 OFFCURVE",
"585 2328 OFFCURVE",
"569 2328 CURVE SMOOTH",
"553 2328 OFFCURVE",
"540 2340 OFFCURVE",
"540 2356 CURVE SMOOTH",
"540 2515 OFFCURVE",
"603 2667 OFFCURVE",
"715 2779 CURVE SMOOTH",
"827 2891 OFFCURVE",
"979 2953 OFFCURVE",
"1138 2953 CURVE SMOOTH"
);
},
{
closed = 1;
nodes = (
"1722 597 OFFCURVE",
"1735 585 OFFCURVE",
"1735 569 CURVE SMOOTH",
"1735 411 OFFCURVE",
"1672 259 OFFCURVE",
"1560 147 CURVE SMOOTH",
"1448 34 OFFCURVE",
"1296 -28 OFFCURVE",
"1138 -28 CURVE SMOOTH",
"1122 -28 OFFCURVE",
"1109 -16 OFFCURVE",
"1109 0 CURVE SMOOTH",
"1109 16 OFFCURVE",
"1122 28 OFFCURVE",
"1138 28 CURVE SMOOTH",
"1281 28 OFFCURVE",
"1419 85 OFFCURVE",
"1520 187 CURVE SMOOTH",
"1621 288 OFFCURVE",
"1678 426 OFFCURVE",
"1678 569 CURVE SMOOTH",
"1678 585 OFFCURVE",
"1691 597 OFFCURVE",
"1707 597 CURVE SMOOTH"
);
},
{
closed = 1;
nodes = (
"1296 2953 OFFCURVE",
"1448 2891 OFFCURVE",
"1560 2778 CURVE SMOOTH",
"1672 2666 OFFCURVE",
"1735 2514 OFFCURVE",
"1735 2356 CURVE SMOOTH",
"1735 2340 OFFCURVE",
"1722 2328 OFFCURVE",
"1707 2328 CURVE SMOOTH",
"1691 2328 OFFCURVE",
"1678 2340 OFFCURVE",
"1678 2356 CURVE SMOOTH",
"1678 2499 OFFCURVE",
"1621 2637 OFFCURVE",
"1520 2738 CURVE SMOOTH",
"1419 2840 OFFCURVE",
"1281 2897 OFFCURVE",
"1138 2897 CURVE SMOOTH",
"1122 2897 OFFCURVE",
"1109 2909 OFFCURVE",
"1109 2925 CURVE SMOOTH",
"1109 2941 OFFCURVE",
"1122 2953 OFFCURVE",
"1138 2953 CURVE SMOOTH"
);
},
{
closed = 1;
nodes = (
"585 597 OFFCURVE",
"597 585 OFFCURVE",
"597 569 CURVE SMOOTH",
"597 426 OFFCURVE",
"654 288 OFFCURVE",
"756 187 CURVE SMOOTH",
"857 85 OFFCURVE",
"994 28 OFFCURVE",
"1138 28 CURVE SMOOTH",
"1153 28 OFFCURVE",
"1166 16 OFFCURVE",
"1166 0 CURVE SMOOTH",
"1166 -16 OFFCURVE",
"1153 -28 OFFCURVE",
"1138 -28 CURVE SMOOTH",
"979 -28 OFFCURVE",
"827 34 OFFCURVE",
"715 147 CURVE SMOOTH",
"603 259 OFFCURVE",
"540 411 OFFCURVE",
"540 569 CURVE SMOOTH",
"540 585 OFFCURVE",
"553 597 OFFCURVE",
"569 597 CURVE SMOOTH"
);
},
{
closed = 1;
nodes = (
"1722 2385 OFFCURVE",
"1735 2372 OFFCURVE",
"1735 2356 CURVE SMOOTH",
"1735 569 LINE SMOOTH",
"1735 553 OFFCURVE",
"1722 541 OFFCURVE",
"1707 540 CURVE SMOOTH",
"1691 541 OFFCURVE",
"1678 553 OFFCURVE",
"1678 569 CURVE SMOOTH",
"1678 2356 LINE SMOOTH",
"1678 2372 OFFCURVE",
"1691 2385 OFFCURVE",
"1707 2385 CURVE SMOOTH"
);
},
{
closed = 1;
nodes = (
"2291 2953 OFFCURVE",
"2304 2941 OFFCURVE",
"2304 2925 CURVE SMOOTH",
"2304 2909 OFFCURVE",
"2291 2897 OFFCURVE",
"2276 2897 CURVE SMOOTH",
"2132 2897 OFFCURVE",
"1995 2840 OFFCURVE",
"1893 2738 CURVE SMOOTH",
"1792 2637 OFFCURVE",
"1735 2499 OFFCURVE",
"1735 2356 CURVE SMOOTH",
"1735 2340 OFFCURVE",
"1722 2328 OFFCURVE",
"1707 2328 CURVE SMOOTH",
"1691 2328 OFFCURVE",
"1678 2340 OFFCURVE",
"1678 2356 CURVE SMOOTH",
"1678 2515 OFFCURVE",
"1741 2667 OFFCURVE",
"1853 2779 CURVE SMOOTH",
"1965 2891 OFFCURVE",
"2117 2953 OFFCURVE",
"2276 2953 CURVE SMOOTH"
);
},
{
closed = 1;
nodes = (
"2860 597 OFFCURVE",
"2873 585 OFFCURVE",
"2873 569 CURVE SMOOTH",
"2873 411 OFFCURVE",
"2810 259 OFFCURVE",
"2698 147 CURVE SMOOTH",
"2586 34 OFFCURVE",
"2434 -28 OFFCURVE",
"2276 -28 CURVE SMOOTH",
"2260 -28 OFFCURVE",
"2247 -16 OFFCURVE",
"2247 0 CURVE SMOOTH",
"2247 16 OFFCURVE",
"2260 28 OFFCURVE",
"2276 28 CURVE SMOOTH",
"2419 28 OFFCURVE",
"2556 85 OFFCURVE",
"2658 187 CURVE SMOOTH",
"2759 288 OFFCURVE",
"2816 426 OFFCURVE",
"2816 569 CURVE SMOOTH",
"2816 585 OFFCURVE",
"2829 597 OFFCURVE",
"2844 597 CURVE SMOOTH"
);
},
{
closed = 1;
nodes = (
"2434 2953 OFFCURVE",
"2586 2891 OFFCURVE",
"2698 2778 CURVE SMOOTH",
"2810 2666 OFFCURVE",
"2873 2514 OFFCURVE",
"2873 2356 CURVE SMOOTH",
"2873 2340 OFFCURVE",
"2860 2328 OFFCURVE",
"2844 2328 CURVE SMOOTH",
"2829 2328 OFFCURVE",
"2816 2340 OFFCURVE",
"2816 2356 CURVE SMOOTH",
"2816 2499 OFFCURVE",
"2759 2637 OFFCURVE",
"2658 2738 CURVE SMOOTH",
"2556 2840 OFFCURVE",
"2419 2897 OFFCURVE",
"2276 2897 CURVE SMOOTH",
"2260 2897 OFFCURVE",
"2247 2909 OFFCURVE",
"2247 2925 CURVE SMOOTH",
"2247 2941 OFFCURVE",
"2260 2953 OFFCURVE",
"2276 2953 CURVE SMOOTH"
);
},
{
closed = 1;
nodes = (
"1678 585 OFFCURVE",
"1691 598 OFFCURVE",
"1707 598 CURVE SMOOTH",
"1722 598 OFFCURVE",
"1735 585 OFFCURVE",
"1735 569 CURVE SMOOTH",
"1735 426 OFFCURVE",
"1792 288 OFFCURVE",
"1893 187 CURVE SMOOTH",
"1995 86 OFFCURVE",
"2132 29 OFFCURVE",
"2276 29 CURVE SMOOTH",
"2291 29 OFFCURVE",
"2304 16 OFFCURVE",
"2304 0 CURVE SMOOTH",
"2304 -15 OFFCURVE",
"2291 -28 OFFCURVE",
"2276 -28 CURVE SMOOTH",
"2117 -28 OFFCURVE",
"1965 35 OFFCURVE",
"1853 147 CURVE SMOOTH",
"1741 259 OFFCURVE",
"1678 411 OFFCURVE",
"1678 569 CURVE SMOOTH"
);
}
);
width = 3413;
},
{
layerId = "19B6A511-96ED-40AF-BAB7-D1E16DFA4179";
paths = (
{
closed = 1;
nodes = (
"1232 3096 OFFCURVE",
"1308 3019 OFFCURVE",
"1308 2925 CURVE SMOOTH",
"1308 2831 OFFCURVE",
"1232 2754 OFFCURVE",
"1138 2754 CURVE SMOOTH",
"1032 2754 OFFCURVE",
"931 2712 OFFCURVE",
"856 2638 CURVE SMOOTH",
"781 2563 OFFCURVE",
"740 2462 OFFCURVE",
"740 2356 CURVE SMOOTH",
"740 2262 OFFCURVE",
"663 2186 OFFCURVE",
"569 2185 CURVE SMOOTH",
"475 2186 OFFCURVE",
"398 2262 OFFCURVE",
"398 2356 CURVE SMOOTH",
"398 2552 OFFCURVE",
"476 2740 OFFCURVE",
"615 2879 CURVE SMOOTH",
"754 3018 OFFCURVE",
"942 3096 OFFCURVE",
"1138 3096 CURVE SMOOTH"
);
},
{
closed = 1;
nodes = (
"1801 740 OFFCURVE",
"1877 663 OFFCURVE",
"1877 569 CURVE SMOOTH",
"1877 373 OFFCURVE",
"1799 185 OFFCURVE",
"1661 46 CURVE SMOOTH",
"1522 -93 OFFCURVE",
"1334 -171 OFFCURVE",
"1138 -171 CURVE SMOOTH",
"1044 -171 OFFCURVE",
"967 -94 OFFCURVE",
"967 0 CURVE SMOOTH",
"967 94 OFFCURVE",
"1044 171 OFFCURVE",
"1138 171 CURVE SMOOTH",
"1243 171 OFFCURVE",
"1345 213 OFFCURVE",
"1419 287 CURVE SMOOTH",
"1494 362 OFFCURVE",
"1536 463 OFFCURVE",
"1536 569 CURVE SMOOTH",
"1536 663 OFFCURVE",
"1612 740 OFFCURVE",
"1707 740 CURVE SMOOTH"
);
},
{
closed = 1;
nodes = (
"1334 3096 OFFCURVE",
"1522 3018 OFFCURVE",
"1661 2879 CURVE SMOOTH",
"1799 2740 OFFCURVE",
"1877 2552 OFFCURVE",
"1877 2356 CURVE SMOOTH",
"1877 2262 OFFCURVE",
"1801 2186 OFFCURVE",
"1707 2185 CURVE SMOOTH",
"1612 2186 OFFCURVE",
"1536 2262 OFFCURVE",
"1536 2356 CURVE SMOOTH",
"1536 2462 OFFCURVE",
"1494 2563 OFFCURVE",
"1419 2638 CURVE SMOOTH",
"1345 2712 OFFCURVE",
"1243 2754 OFFCURVE",
"1138 2754 CURVE SMOOTH",
"1044 2754 OFFCURVE",
"967 2831 OFFCURVE",
"967 2925 CURVE SMOOTH",
"967 3019 OFFCURVE",
"1044 3096 OFFCURVE",
"1138 3096 CURVE SMOOTH"
);
},
{
closed = 1;
nodes = (
"663 740 OFFCURVE",
"740 663 OFFCURVE",
"740 569 CURVE SMOOTH",
"740 463 OFFCURVE",
"781 362 OFFCURVE",
"856 287 CURVE SMOOTH",
"931 213 OFFCURVE",
"1032 171 OFFCURVE",
"1138 171 CURVE SMOOTH",
"1232 171 OFFCURVE",
"1308 94 OFFCURVE",
"1308 0 CURVE SMOOTH",
"1308 -94 OFFCURVE",
"1232 -171 OFFCURVE",
"1138 -171 CURVE SMOOTH",
"942 -171 OFFCURVE",
"754 -93 OFFCURVE",
"615 46 CURVE SMOOTH",
"476 185 OFFCURVE",
"398 373 OFFCURVE",
"398 569 CURVE SMOOTH",
"398 663 OFFCURVE",
"475 740 OFFCURVE",
"569 740 CURVE SMOOTH"
);
},
{
closed = 1;
nodes = (
"1801 2527 OFFCURVE",
"1877 2450 OFFCURVE",
"1877 2356 CURVE SMOOTH",
"1877 569 LINE SMOOTH",
"1877 475 OFFCURVE",
"1801 398 OFFCURVE",
"1707 398 CURVE SMOOTH",
"1612 398 OFFCURVE",
"1536 475 OFFCURVE",
"1536 569 CURVE SMOOTH",
"1536 2356 LINE SMOOTH",
"1536 2450 OFFCURVE",
"1612 2527 OFFCURVE",
"1707 2527 CURVE SMOOTH"
);
},
{
closed = 1;
nodes = (
"2370 3096 OFFCURVE",
"2446 3019 OFFCURVE",
"2446 2925 CURVE SMOOTH",
"2446 2831 OFFCURVE",
"2370 2754 OFFCURVE",
"2276 2754 CURVE SMOOTH",
"2170 2754 OFFCURVE",
"2069 2712 OFFCURVE",
"1994 2638 CURVE SMOOTH",
"1919 2563 OFFCURVE",
"1877 2462 OFFCURVE",
"1877 2356 CURVE SMOOTH",
"1877 2262 OFFCURVE",
"1801 2186 OFFCURVE",
"1707 2185 CURVE SMOOTH",
"1612 2186 OFFCURVE",
"1536 2262 OFFCURVE",
"1536 2356 CURVE SMOOTH",
"1536 2552 OFFCURVE",
"1614 2740 OFFCURVE",
"1753 2879 CURVE SMOOTH",
"1891 3018 OFFCURVE",
"2080 3096 OFFCURVE",
"2276 3096 CURVE SMOOTH"
);
},
{
closed = 1;
nodes = (
"2939 740 OFFCURVE",
"3015 663 OFFCURVE",
"3015 569 CURVE SMOOTH",
"3015 373 OFFCURVE",
"2937 185 OFFCURVE",
"2798 46 CURVE SMOOTH",
"2660 -93 OFFCURVE",
"2472 -171 OFFCURVE",
"2276 -171 CURVE SMOOTH",
"2181 -171 OFFCURVE",
"2105 -94 OFFCURVE",
"2105 0 CURVE SMOOTH",
"2105 94 OFFCURVE",
"2181 171 OFFCURVE",
"2276 171 CURVE SMOOTH",
"2381 171 OFFCURVE",
"2482 213 OFFCURVE",
"2557 287 CURVE SMOOTH",
"2632 362 OFFCURVE",
"2674 463 OFFCURVE",
"2674 569 CURVE SMOOTH",
"2674 663 OFFCURVE",
"2750 740 OFFCURVE",
"2844 740 CURVE SMOOTH"
);
},
{
closed = 1;
nodes = (
"2472 3096 OFFCURVE",
"2660 3018 OFFCURVE",
"2798 2879 CURVE SMOOTH",
"2937 2740 OFFCURVE",
"3015 2552 OFFCURVE",
"3015 2356 CURVE SMOOTH",
"3015 2262 OFFCURVE",
"2939 2186 OFFCURVE",
"2844 2185 CURVE SMOOTH",
"2750 2186 OFFCURVE",
"2674 2262 OFFCURVE",
"2674 2356 CURVE SMOOTH",
"2674 2462 OFFCURVE",
"2632 2563 OFFCURVE",
"2557 2638 CURVE SMOOTH",
"2482 2712 OFFCURVE",
"2381 2754 OFFCURVE",
"2276 2754 CURVE SMOOTH",
"2181 2754 OFFCURVE",
"2105 2831 OFFCURVE",
"2105 2925 CURVE SMOOTH",
"2105 3019 OFFCURVE",
"2181 3096 OFFCURVE",
"2276 3096 CURVE SMOOTH"
);
},
{
closed = 1;
nodes = (
"1536 663 OFFCURVE",
"1612 740 OFFCURVE",
"1707 740 CURVE SMOOTH",
"1801 740 OFFCURVE",
"1877 663 OFFCURVE",
"1877 569 CURVE SMOOTH",
"1877 463 OFFCURVE",
"1919 362 OFFCURVE",
"1994 287 CURVE SMOOTH",
"2069 213 OFFCURVE",
"2170 171 OFFCURVE",
"2276 171 CURVE SMOOTH",
"2370 171 OFFCURVE",
"2446 94 OFFCURVE",
"2446 0 CURVE SMOOTH",
"2446 -94 OFFCURVE",
"2370 -171 OFFCURVE",
"2276 -171 CURVE SMOOTH",
"2080 -171 OFFCURVE",
"1891 -93 OFFCURVE",
"1753 46 CURVE SMOOTH",
"1614 185 OFFCURVE",
"1536 373 OFFCURVE",
"1536 569 CURVE SMOOTH"
);
}
);
width = 3413;
}
);
leftKerningGroup = c;
rightKerningGroup = c;
unicode = 0078;
},
{
glyphname = y;
lastChange = "2021-01-30 08:49:12 +0000";
layers = (
{
layerId = master01;
paths = (
{
closed = 1;
nodes = (
"585 2953 OFFCURVE",
"597 2941 OFFCURVE",
"597 2925 CURVE SMOOTH",
"597 2356 LINE SMOOTH",
"597 2340 OFFCURVE",
"585 2328 OFFCURVE",
"569 2328 CURVE SMOOTH",
"553 2328 OFFCURVE",
"540 2340 OFFCURVE",
"540 2356 CURVE SMOOTH",
"540 2925 LINE SMOOTH",
"540 2941 OFFCURVE",
"553 2953 OFFCURVE",
"569 2953 CURVE SMOOTH"
);
},
{
closed = 1;
nodes = (
"585 2385 OFFCURVE",
"597 2372 OFFCURVE",
"597 2356 CURVE SMOOTH",
"597 569 LINE SMOOTH",
"597 553 OFFCURVE",
"585 541 OFFCURVE",
"569 540 CURVE SMOOTH",
"553 541 OFFCURVE",
"540 553 OFFCURVE",
"540 569 CURVE SMOOTH",
"540 2356 LINE SMOOTH",
"540 2372 OFFCURVE",
"553 2385 OFFCURVE",
"569 2385 CURVE SMOOTH"
);
},
{
closed = 1;
nodes = (
"1722 597 OFFCURVE",
"1735 585 OFFCURVE",
"1735 569 CURVE SMOOTH",
"1735 411 OFFCURVE",
"1672 259 OFFCURVE",
"1560 147 CURVE SMOOTH",
"1448 34 OFFCURVE",
"1296 -28 OFFCURVE",
"1138 -28 CURVE SMOOTH",
"1122 -28 OFFCURVE",
"1109 -16 OFFCURVE",
"1109 0 CURVE SMOOTH",
"1109 16 OFFCURVE",
"1122 28 OFFCURVE",
"1138 28 CURVE SMOOTH",
"1281 28 OFFCURVE",
"1419 85 OFFCURVE",
"1520 187 CURVE SMOOTH",
"1621 288 OFFCURVE",
"1678 426 OFFCURVE",
"1678 569 CURVE SMOOTH",
"1678 585 OFFCURVE",
"1691 597 OFFCURVE",
"1707 597 CURVE SMOOTH"
);
},
{
closed = 1;
nodes = (
"1722 -2328 OFFCURVE",
"1735 -2340 OFFCURVE",
"1735 -2356 CURVE SMOOTH",
"1735 -2514 OFFCURVE",
"1672 -2666 OFFCURVE",
"1560 -2778 CURVE SMOOTH",
"1448 -2891 OFFCURVE",
"1296 -2953 OFFCURVE",
"1138 -2953 CURVE SMOOTH",
"1122 -2953 OFFCURVE",
"1109 -2941 OFFCURVE",
"1109 -2925 CURVE SMOOTH",
"1109 -2909 OFFCURVE",
"1122 -2897 OFFCURVE",
"1138 -2897 CURVE SMOOTH",
"1281 -2897 OFFCURVE",
"1419 -2840 OFFCURVE",
"1520 -2738 CURVE SMOOTH",
"1621 -2637 OFFCURVE",
"1678 -2499 OFFCURVE",
"1678 -2356 CURVE SMOOTH",
"1678 -2340 OFFCURVE",
"1691 -2328 OFFCURVE",
"1707 -2328 CURVE SMOOTH"
);
},
{
closed = 1;
nodes = (
"585 597 OFFCURVE",
"597 585 OFFCURVE",
"597 569 CURVE SMOOTH",
"597 426 OFFCURVE",
"654 288 OFFCURVE",
"756 187 CURVE SMOOTH",
"857 85 OFFCURVE",
"994 28 OFFCURVE",
"1138 28 CURVE SMOOTH",
"1153 28 OFFCURVE",
"1166 16 OFFCURVE",
"1166 0 CURVE SMOOTH",
"1166 -16 OFFCURVE",
"1153 -28 OFFCURVE",
"1138 -28 CURVE SMOOTH",
"979 -28 OFFCURVE",
"827 34 OFFCURVE",
"715 147 CURVE SMOOTH",
"603 259 OFFCURVE",
"540 411 OFFCURVE",
"540 569 CURVE SMOOTH",
"540 585 OFFCURVE",
"553 597 OFFCURVE",
"569 597 CURVE SMOOTH"
);
},
{
closed = 1;
nodes = (
"585 -2328 OFFCURVE",
"597 -2340 OFFCURVE",
"597 -2356 CURVE SMOOTH",
"597 -2499 OFFCURVE",
"654 -2637 OFFCURVE",
"756 -2738 CURVE SMOOTH",
"857 -2840 OFFCURVE",
"994 -2897 OFFCURVE",
"1138 -2897 CURVE SMOOTH",
"1153 -2897 OFFCURVE",
"1166 -2909 OFFCURVE",
"1166 -2925 CURVE SMOOTH",
"1166 -2941 OFFCURVE",
"1153 -2953 OFFCURVE",
"1138 -2953 CURVE SMOOTH",
"979 -2953 OFFCURVE",
"827 -2891 OFFCURVE",
"715 -2778 CURVE SMOOTH",
"603 -2666 OFFCURVE",
"540 -2514 OFFCURVE",
"540 -2356 CURVE SMOOTH",
"540 -2340 OFFCURVE",
"553 -2328 OFFCURVE",
"569 -2328 CURVE SMOOTH"
);
},
{
closed = 1;
nodes = (
"1722 2953 OFFCURVE",
"1735 2941 OFFCURVE",
"1735 2925 CURVE SMOOTH",
"1735 2356 LINE SMOOTH",
"1735 2340 OFFCURVE",
"1722 2328 OFFCURVE",
"1707 2328 CURVE SMOOTH",
"1691 2328 OFFCURVE",
"1678 2340 OFFCURVE",
"1678 2356 CURVE SMOOTH",
"1678 2925 LINE SMOOTH",
"1678 2941 OFFCURVE",
"1691 2953 OFFCURVE",
"1707 2953 CURVE SMOOTH"
);
},
{
closed = 1;
nodes = (
"1722 2385 OFFCURVE",
"1735 2372 OFFCURVE",
"1735 2356 CURVE SMOOTH",
"1735 569 LINE SMOOTH",
"1735 553 OFFCURVE",
"1722 541 OFFCURVE",
"1707 540 CURVE SMOOTH",
"1691 541 OFFCURVE",
"1678 553 OFFCURVE",
"1678 569 CURVE SMOOTH",
"1678 2356 LINE SMOOTH",
"1678 2372 OFFCURVE",
"1691 2385 OFFCURVE",
"1707 2385 CURVE SMOOTH"
);
},
{
closed = 1;
nodes = (
"1722 597 OFFCURVE",
"1735 585 OFFCURVE",
"1735 569 CURVE SMOOTH",
"1735 0 LINE SMOOTH",
"1735 -16 OFFCURVE",
"1722 -28 OFFCURVE",
"1707 -28 CURVE SMOOTH",
"1691 -28 OFFCURVE",
"1678 -16 OFFCURVE",
"1678 0 CURVE SMOOTH",
"1678 569 LINE SMOOTH",
"1678 585 OFFCURVE",
"1691 597 OFFCURVE",
"1707 597 CURVE SMOOTH"
);
},
{
closed = 1;
nodes = (
"1722 28 OFFCURVE",
"1735 16 OFFCURVE",
"1735 0 CURVE SMOOTH",
"1735 -569 LINE SMOOTH",
"1735 -585 OFFCURVE",
"1722 -597 OFFCURVE",
"1707 -597 CURVE SMOOTH",
"1691 -597 OFFCURVE",
"1678 -585 OFFCURVE",
"1678 -569 CURVE SMOOTH",
"1678 0 LINE SMOOTH",
"1678 16 OFFCURVE",
"1691 28 OFFCURVE",
"1707 28 CURVE SMOOTH"
);
},
{
closed = 1;
nodes = (
"1678 -569 LINE SMOOTH",
"1678 -553 OFFCURVE",
"1691 -540 OFFCURVE",
"1707 -540 CURVE SMOOTH",
"1722 -540 OFFCURVE",
"1735 -553 OFFCURVE",
"1735 -569 CURVE SMOOTH",
"1735 -2356 LINE SMOOTH",
"1735 -2371 OFFCURVE",
"1722 -2384 OFFCURVE",
"1707 -2384 CURVE SMOOTH",
"1691 -2384 OFFCURVE",
"1678 -2371 OFFCURVE",
"1678 -2356 CURVE SMOOTH"
);
}
);
width = 2275;
},
{
layerId = "19B6A511-96ED-40AF-BAB7-D1E16DFA4179";
paths = (
{
closed = 1;
nodes = (
"663 3096 OFFCURVE",
"740 3019 OFFCURVE",
"740 2925 CURVE SMOOTH",
"740 2356 LINE SMOOTH",
"740 2262 OFFCURVE",
"663 2186 OFFCURVE",
"569 2185 CURVE SMOOTH",
"475 2186 OFFCURVE",
"398 2262 OFFCURVE",
"398 2356 CURVE SMOOTH",
"398 2925 LINE SMOOTH",
"398 3019 OFFCURVE",
"475 3096 OFFCURVE",
"569 3096 CURVE SMOOTH"
);
},
{
closed = 1;
nodes = (
"663 2527 OFFCURVE",
"740 2450 OFFCURVE",
"740 2356 CURVE SMOOTH",
"740 569 LINE SMOOTH",
"740 475 OFFCURVE",
"663 398 OFFCURVE",
"569 398 CURVE SMOOTH",
"475 398 OFFCURVE",
"398 475 OFFCURVE",
"398 569 CURVE SMOOTH",
"398 2356 LINE SMOOTH",
"398 2450 OFFCURVE",
"475 2527 OFFCURVE",
"569 2527 CURVE SMOOTH"
);
},
{
closed = 1;
nodes = (
"1801 740 OFFCURVE",
"1877 663 OFFCURVE",
"1877 569 CURVE SMOOTH",
"1877 373 OFFCURVE",
"1799 185 OFFCURVE",
"1661 46 CURVE SMOOTH",
"1522 -93 OFFCURVE",
"1334 -171 OFFCURVE",
"1138 -171 CURVE SMOOTH",
"1044 -171 OFFCURVE",
"967 -94 OFFCURVE",
"967 0 CURVE SMOOTH",
"967 94 OFFCURVE",
"1044 171 OFFCURVE",
"1138 171 CURVE SMOOTH",
"1243 171 OFFCURVE",
"1345 213 OFFCURVE",
"1419 287 CURVE SMOOTH",
"1494 362 OFFCURVE",
"1536 463 OFFCURVE",
"1536 569 CURVE SMOOTH",
"1536 663 OFFCURVE",
"1612 740 OFFCURVE",
"1707 740 CURVE SMOOTH"
);
},
{
closed = 1;
nodes = (
"1801 -2185 OFFCURVE",
"1877 -2262 OFFCURVE",
"1877 -2356 CURVE SMOOTH",
"1877 -2552 OFFCURVE",
"1799 -2740 OFFCURVE",
"1661 -2879 CURVE SMOOTH",
"1522 -3018 OFFCURVE",
"1334 -3096 OFFCURVE",
"1138 -3096 CURVE SMOOTH",
"1044 -3096 OFFCURVE",
"967 -3019 OFFCURVE",
"967 -2925 CURVE SMOOTH",
"967 -2831 OFFCURVE",
"1044 -2754 OFFCURVE",
"1138 -2754 CURVE SMOOTH",
"1243 -2754 OFFCURVE",
"1345 -2712 OFFCURVE",
"1419 -2638 CURVE SMOOTH",
"1494 -2563 OFFCURVE",
"1536 -2462 OFFCURVE",
"1536 -2356 CURVE SMOOTH",
"1536 -2262 OFFCURVE",
"1612 -2185 OFFCURVE",
"1707 -2185 CURVE SMOOTH"
);
},
{
closed = 1;
nodes = (
"663 740 OFFCURVE",
"740 663 OFFCURVE",
"740 569 CURVE SMOOTH",
"740 463 OFFCURVE",
"781 362 OFFCURVE",
"856 287 CURVE SMOOTH",
"931 213 OFFCURVE",
"1032 171 OFFCURVE",
"1138 171 CURVE SMOOTH",
"1232 171 OFFCURVE",
"1308 94 OFFCURVE",
"1308 0 CURVE SMOOTH",
"1308 -94 OFFCURVE",
"1232 -171 OFFCURVE",
"1138 -171 CURVE SMOOTH",
"942 -171 OFFCURVE",
"754 -93 OFFCURVE",
"615 46 CURVE SMOOTH",
"476 185 OFFCURVE",
"398 373 OFFCURVE",
"398 569 CURVE SMOOTH",
"398 663 OFFCURVE",
"475 740 OFFCURVE",
"569 740 CURVE SMOOTH"
);
},
{
closed = 1;
nodes = (
"663 -2185 OFFCURVE",
"740 -2262 OFFCURVE",
"740 -2356 CURVE SMOOTH",
"740 -2462 OFFCURVE",
"781 -2563 OFFCURVE",
"856 -2638 CURVE SMOOTH",
"931 -2712 OFFCURVE",
"1032 -2754 OFFCURVE",
"1138 -2754 CURVE SMOOTH",
"1232 -2754 OFFCURVE",
"1308 -2831 OFFCURVE",
"1308 -2925 CURVE SMOOTH",
"1308 -3019 OFFCURVE",
"1232 -3096 OFFCURVE",
"1138 -3096 CURVE SMOOTH",
"942 -3096 OFFCURVE",
"754 -3018 OFFCURVE",
"615 -2879 CURVE SMOOTH",
"476 -2740 OFFCURVE",
"398 -2552 OFFCURVE",
"398 -2356 CURVE SMOOTH",
"398 -2262 OFFCURVE",
"475 -2185 OFFCURVE",
"569 -2185 CURVE SMOOTH"
);
},
{
closed = 1;
nodes = (
"1801 3096 OFFCURVE",
"1877 3019 OFFCURVE",
"1877 2925 CURVE SMOOTH",
"1877 2356 LINE SMOOTH",
"1877 2262 OFFCURVE",
"1801 2186 OFFCURVE",
"1707 2185 CURVE SMOOTH",
"1612 2186 OFFCURVE",
"1536 2262 OFFCURVE",
"1536 2356 CURVE SMOOTH",
"1536 2925 LINE SMOOTH",
"1536 3019 OFFCURVE",
"1612 3096 OFFCURVE",
"1707 3096 CURVE SMOOTH"
);
},
{
closed = 1;
nodes = (
"1801 2527 OFFCURVE",
"1877 2450 OFFCURVE",
"1877 2356 CURVE SMOOTH",
"1877 569 LINE SMOOTH",
"1877 475 OFFCURVE",
"1801 398 OFFCURVE",
"1707 398 CURVE SMOOTH",
"1612 398 OFFCURVE",
"1536 475 OFFCURVE",
"1536 569 CURVE SMOOTH",
"1536 2356 LINE SMOOTH",
"1536 2450 OFFCURVE",
"1612 2527 OFFCURVE",
"1707 2527 CURVE SMOOTH"
);
},
{
closed = 1;
nodes = (
"1801 740 OFFCURVE",
"1877 663 OFFCURVE",
"1877 569 CURVE SMOOTH",
"1877 0 LINE SMOOTH",
"1877 -94 OFFCURVE",
"1801 -171 OFFCURVE",
"1707 -171 CURVE SMOOTH",
"1612 -171 OFFCURVE",
"1536 -94 OFFCURVE",
"1536 0 CURVE SMOOTH",
"1536 569 LINE SMOOTH",
"1536 663 OFFCURVE",
"1612 740 OFFCURVE",
"1707 740 CURVE SMOOTH"
);
},
{
closed = 1;
nodes = (
"1801 171 OFFCURVE",
"1877 94 OFFCURVE",
"1877 0 CURVE SMOOTH",
"1877 -569 LINE SMOOTH",
"1877 -663 OFFCURVE",
"1801 -739 OFFCURVE",
"1707 -740 CURVE SMOOTH",
"1612 -739 OFFCURVE",
"1536 -663 OFFCURVE",
"1536 -569 CURVE SMOOTH",
"1536 0 LINE SMOOTH",
"1536 94 OFFCURVE",
"1612 171 OFFCURVE",
"1707 171 CURVE SMOOTH"
);
},
{
closed = 1;
nodes = (
"1536 -569 LINE SMOOTH",
"1536 -475 OFFCURVE",
"1612 -398 OFFCURVE",
"1707 -398 CURVE SMOOTH",
"1801 -398 OFFCURVE",
"1877 -475 OFFCURVE",
"1877 -569 CURVE SMOOTH",
"1877 -2356 LINE SMOOTH",
"1877 -2450 OFFCURVE",
"1801 -2527 OFFCURVE",
"1707 -2527 CURVE SMOOTH",
"1612 -2527 OFFCURVE",
"1536 -2450 OFFCURVE",
"1536 -2356 CURVE SMOOTH"
);
}
);
width = 2275;
}
);
leftKerningGroup = c;
unicode = 0079;
},
{
glyphname = n;
lastChange = "2021-01-30 08:49:12 +0000";
layers = (
{
layerId = master01;
paths = (
{
closed = 1;
nodes = (
"585 2385 OFFCURVE",
"597 2372 OFFCURVE",
"597 2356 CURVE SMOOTH",
"597 569 LINE SMOOTH",
"597 553 OFFCURVE",
"585 541 OFFCURVE",
"569 540 CURVE SMOOTH",
"553 541 OFFCURVE",
"540 553 OFFCURVE",
"540 569 CURVE SMOOTH",
"540 2356 LINE SMOOTH",
"540 2372 OFFCURVE",
"553 2385 OFFCURVE",
"569 2385 CURVE SMOOTH"
);
},
{
closed = 1;
nodes = (
"585 597 OFFCURVE",
"597 585 OFFCURVE",
"597 569 CURVE SMOOTH",
"597 0 LINE SMOOTH",
"597 -16 OFFCURVE",
"585 -28 OFFCURVE",
"569 -28 CURVE SMOOTH",
"553 -28 OFFCURVE",
"540 -16 OFFCURVE",
"540 0 CURVE SMOOTH",
"540 569 LINE SMOOTH",
"540 585 OFFCURVE",
"553 597 OFFCURVE",
"569 597 CURVE SMOOTH"
);
},
{
closed = 1;
nodes = (
"1153 2953 OFFCURVE",
"1166 2941 OFFCURVE",
"1166 2925 CURVE SMOOTH",
"1166 2909 OFFCURVE",
"1153 2897 OFFCURVE",
"1138 2897 CURVE SMOOTH",
"994 2897 OFFCURVE",
"857 2840 OFFCURVE",
"756 2738 CURVE SMOOTH",
"654 2637 OFFCURVE",
"597 2499 OFFCURVE",
"597 2356 CURVE SMOOTH",
"597 2340 OFFCURVE",
"585 2328 OFFCURVE",
"569 2328 CURVE SMOOTH",
"553 2328 OFFCURVE",
"540 2340 OFFCURVE",
"540 2356 CURVE SMOOTH",
"540 2515 OFFCURVE",
"603 2667 OFFCURVE",
"715 2779 CURVE SMOOTH",
"827 2891 OFFCURVE",
"979 2953 OFFCURVE",
"1138 2953 CURVE SMOOTH"
);
},
{
closed = 1;
nodes = (
"1296 2953 OFFCURVE",
"1448 2891 OFFCURVE",
"1560 2778 CURVE SMOOTH",
"1672 2666 OFFCURVE",
"1735 2514 OFFCURVE",
"1735 2356 CURVE SMOOTH",
"1735 2340 OFFCURVE",
"1722 2328 OFFCURVE",
"1707 2328 CURVE SMOOTH",
"1691 2328 OFFCURVE",
"1678 2340 OFFCURVE",
"1678 2356 CURVE SMOOTH",
"1678 2499 OFFCURVE",
"1621 2637 OFFCURVE",
"1520 2738 CURVE SMOOTH",
"1419 2840 OFFCURVE",
"1281 2897 OFFCURVE",
"1138 2897 CURVE SMOOTH",
"1122 2897 OFFCURVE",
"1109 2909 OFFCURVE",
"1109 2925 CURVE SMOOTH",
"1109 2941 OFFCURVE",
"1122 2953 OFFCURVE",
"1138 2953 CURVE SMOOTH"
);
},
{
closed = 1;
nodes = (
"1722 2385 OFFCURVE",
"1735 2372 OFFCURVE",
"1735 2356 CURVE SMOOTH",
"1735 569 LINE SMOOTH",
"1735 553 OFFCURVE",
"1722 541 OFFCURVE",
"1707 540 CURVE SMOOTH",
"1691 541 OFFCURVE",
"1678 553 OFFCURVE",
"1678 569 CURVE SMOOTH",
"1678 2356 LINE SMOOTH",
"1678 2372 OFFCURVE",
"1691 2385 OFFCURVE",
"1707 2385 CURVE SMOOTH"
);
},
{
closed = 1;
nodes = (
"1678 569 LINE SMOOTH",
"1678 585 OFFCURVE",
"1691 598 OFFCURVE",
"1707 598 CURVE SMOOTH",
"1722 598 OFFCURVE",
"1735 585 OFFCURVE",
"1735 569 CURVE SMOOTH",
"1735 0 LINE SMOOTH",
"1735 -15 OFFCURVE",
"1722 -28 OFFCURVE",
"1707 -28 CURVE SMOOTH",
"1691 -28 OFFCURVE",
"1678 -15 OFFCURVE",
"1678 0 CURVE SMOOTH"
);
}
);
width = 2275;
},
{
layerId = "19B6A511-96ED-40AF-BAB7-D1E16DFA4179";
paths = (
{
closed = 1;
nodes = (
"663 2527 OFFCURVE",
"740 2450 OFFCURVE",
"740 2356 CURVE SMOOTH",
"740 569 LINE SMOOTH",
"740 475 OFFCURVE",
"663 398 OFFCURVE",
"569 398 CURVE SMOOTH",
"475 398 OFFCURVE",
"398 475 OFFCURVE",
"398 569 CURVE SMOOTH",
"398 2356 LINE SMOOTH",
"398 2450 OFFCURVE",
"475 2527 OFFCURVE",
"569 2527 CURVE SMOOTH"
);
},
{
closed = 1;
nodes = (
"663 740 OFFCURVE",
"740 663 OFFCURVE",
"740 569 CURVE SMOOTH",
"740 0 LINE SMOOTH",
"740 -94 OFFCURVE",
"663 -171 OFFCURVE",
"569 -171 CURVE SMOOTH",
"475 -171 OFFCURVE",
"398 -94 OFFCURVE",
"398 0 CURVE SMOOTH",
"398 569 LINE SMOOTH",
"398 663 OFFCURVE",
"475 740 OFFCURVE",
"569 740 CURVE SMOOTH"
);
},
{
closed = 1;
nodes = (
"1232 3096 OFFCURVE",
"1308 3019 OFFCURVE",
"1308 2925 CURVE SMOOTH",
"1308 2831 OFFCURVE",
"1232 2754 OFFCURVE",
"1138 2754 CURVE SMOOTH",
"1032 2754 OFFCURVE",
"931 2712 OFFCURVE",
"856 2638 CURVE SMOOTH",
"781 2563 OFFCURVE",
"740 2462 OFFCURVE",
"740 2356 CURVE SMOOTH",
"740 2262 OFFCURVE",
"663 2186 OFFCURVE",
"569 2185 CURVE SMOOTH",
"475 2186 OFFCURVE",
"398 2262 OFFCURVE",
"398 2356 CURVE SMOOTH",
"398 2552 OFFCURVE",
"476 2740 OFFCURVE",
"615 2879 CURVE SMOOTH",
"754 3018 OFFCURVE",
"942 3096 OFFCURVE",
"1138 3096 CURVE SMOOTH"
);
},
{
closed = 1;
nodes = (
"1334 3096 OFFCURVE",
"1522 3018 OFFCURVE",
"1661 2879 CURVE SMOOTH",
"1799 2740 OFFCURVE",
"1877 2552 OFFCURVE",
"1877 2356 CURVE SMOOTH",
"1877 2262 OFFCURVE",
"1801 2186 OFFCURVE",
"1707 2185 CURVE SMOOTH",
"1612 2186 OFFCURVE",
"1536 2262 OFFCURVE",
"1536 2356 CURVE SMOOTH",
"1536 2462 OFFCURVE",
"1494 2563 OFFCURVE",
"1419 2638 CURVE SMOOTH",
"1345 2712 OFFCURVE",
"1243 2754 OFFCURVE",
"1138 2754 CURVE SMOOTH",
"1044 2754 OFFCURVE",
"967 2831 OFFCURVE",
"967 2925 CURVE SMOOTH",
"967 3019 OFFCURVE",
"1044 3096 OFFCURVE",
"1138 3096 CURVE SMOOTH"
);
},
{
closed = 1;
nodes = (
"1801 2527 OFFCURVE",
"1877 2450 OFFCURVE",
"1877 2356 CURVE SMOOTH",
"1877 569 LINE SMOOTH",
"1877 475 OFFCURVE",
"1801 398 OFFCURVE",
"1707 398 CURVE SMOOTH",
"1612 398 OFFCURVE",
"1536 475 OFFCURVE",
"1536 569 CURVE SMOOTH",
"1536 2356 LINE SMOOTH",
"1536 2450 OFFCURVE",
"1612 2527 OFFCURVE",
"1707 2527 CURVE SMOOTH"
);
},
{
closed = 1;
nodes = (
"1536 569 LINE SMOOTH",
"1536 663 OFFCURVE",
"1612 740 OFFCURVE",
"1707 740 CURVE SMOOTH",
"1801 740 OFFCURVE",
"1877 663 OFFCURVE",
"1877 569 CURVE SMOOTH",
"1877 0 LINE SMOOTH",
"1877 -94 OFFCURVE",
"1801 -171 OFFCURVE",
"1707 -171 CURVE SMOOTH",
"1612 -171 OFFCURVE",
"1536 -94 OFFCURVE",
"1536 0 CURVE SMOOTH"
);
}
);
width = 2275;
}
);
leftKerningGroup = h;
rightKerningGroup = h;
unicode = 006E;
},
{
glyphname = z;
lastChange = "2021-01-30 08:49:12 +0000";
layers = (
{
layerId = master01;
paths = (
{
closed = 1;
nodes = (
"1153 2953 OFFCURVE",
"1166 2941 OFFCURVE",
"1166 2925 CURVE SMOOTH",
"1166 2909 OFFCURVE",
"1153 2897 OFFCURVE",
"1138 2897 CURVE SMOOTH",
"994 2897 OFFCURVE",
"857 2840 OFFCURVE",
"756 2738 CURVE SMOOTH",
"654 2637 OFFCURVE",
"597 2499 OFFCURVE",
"597 2356 CURVE SMOOTH",
"597 2340 OFFCURVE",
"585 2328 OFFCURVE",
"569 2328 CURVE SMOOTH",
"553 2328 OFFCURVE",
"540 2340 OFFCURVE",
"540 2356 CURVE SMOOTH",
"540 2515 OFFCURVE",
"603 2667 OFFCURVE",
"715 2779 CURVE SMOOTH",
"827 2891 OFFCURVE",
"979 2953 OFFCURVE",
"1138 2953 CURVE SMOOTH"
);
},
{
closed = 1;
nodes = (
"1722 597 OFFCURVE",
"1735 585 OFFCURVE",
"1735 569 CURVE SMOOTH",
"1735 411 OFFCURVE",
"1672 259 OFFCURVE",
"1560 147 CURVE SMOOTH",
"1448 34 OFFCURVE",
"1296 -28 OFFCURVE",
"1138 -28 CURVE SMOOTH",
"1122 -28 OFFCURVE",
"1109 -16 OFFCURVE",
"1109 0 CURVE SMOOTH",
"1109 16 OFFCURVE",
"1122 28 OFFCURVE",
"1138 28 CURVE SMOOTH",
"1281 28 OFFCURVE",
"1419 85 OFFCURVE",
"1520 187 CURVE SMOOTH",
"1621 288 OFFCURVE",
"1678 426 OFFCURVE",
"1678 569 CURVE SMOOTH",
"1678 585 OFFCURVE",
"1691 597 OFFCURVE",
"1707 597 CURVE SMOOTH"
);
},
{
closed = 1;
nodes = (
"1296 2953 OFFCURVE",
"1448 2891 OFFCURVE",
"1560 2778 CURVE SMOOTH",
"1672 2666 OFFCURVE",
"1735 2514 OFFCURVE",
"1735 2356 CURVE SMOOTH",
"1735 2340 OFFCURVE",
"1722 2328 OFFCURVE",
"1707 2328 CURVE SMOOTH",
"1691 2328 OFFCURVE",
"1678 2340 OFFCURVE",
"1678 2356 CURVE SMOOTH",
"1678 2499 OFFCURVE",
"1621 2637 OFFCURVE",
"1520 2738 CURVE SMOOTH",
"1419 2840 OFFCURVE",
"1281 2897 OFFCURVE",
"1138 2897 CURVE SMOOTH",
"1122 2897 OFFCURVE",
"1109 2909 OFFCURVE",
"1109 2925 CURVE SMOOTH",
"1109 2941 OFFCURVE",
"1122 2953 OFFCURVE",
"1138 2953 CURVE SMOOTH"
);
},
{
closed = 1;
nodes = (
"1722 2385 OFFCURVE",
"1735 2372 OFFCURVE",
"1735 2356 CURVE SMOOTH",
"1735 2014 OFFCURVE",
"1442 1726 OFFCURVE",
"1158 1442 CURVE SMOOTH",
"873 1158 OFFCURVE",
"597 878 OFFCURVE",
"597 569 CURVE SMOOTH",
"597 553 OFFCURVE",
"585 541 OFFCURVE",
"569 540 CURVE SMOOTH",
"553 541 OFFCURVE",
"540 553 OFFCURVE",
"540 569 CURVE SMOOTH",
"540 911 OFFCURVE",
"833 1199 OFFCURVE",
"1118 1483 CURVE SMOOTH",
"1402 1767 OFFCURVE",
"1678 2047 OFFCURVE",
"1678 2356 CURVE SMOOTH",
"1678 2372 OFFCURVE",
"1691 2385 OFFCURVE",
"1707 2385 CURVE SMOOTH"
);
},
{
closed = 1;
nodes = (
"540 585 OFFCURVE",
"553 598 OFFCURVE",
"569 598 CURVE SMOOTH",
"585 598 OFFCURVE",
"597 585 OFFCURVE",
"597 569 CURVE SMOOTH",
"597 426 OFFCURVE",
"654 288 OFFCURVE",
"756 187 CURVE SMOOTH",
"857 86 OFFCURVE",
"994 29 OFFCURVE",
"1138 29 CURVE SMOOTH",
"1153 29 OFFCURVE",
"1166 16 OFFCURVE",
"1166 0 CURVE SMOOTH",
"1166 -15 OFFCURVE",
"1153 -28 OFFCURVE",
"1138 -28 CURVE SMOOTH",
"979 -28 OFFCURVE",
"827 35 OFFCURVE",
"715 147 CURVE SMOOTH",
"603 259 OFFCURVE",
"540 411 OFFCURVE",
"540 569 CURVE SMOOTH"
);
}
);
width = 2275;
},
{
layerId = "19B6A511-96ED-40AF-BAB7-D1E16DFA4179";
paths = (
{
closed = 1;
nodes = (
"1232 3096 OFFCURVE",
"1308 3019 OFFCURVE",
"1308 2925 CURVE SMOOTH",
"1308 2831 OFFCURVE",
"1232 2754 OFFCURVE",
"1138 2754 CURVE SMOOTH",
"1032 2754 OFFCURVE",
"931 2712 OFFCURVE",
"856 2638 CURVE SMOOTH",
"781 2563 OFFCURVE",
"740 2462 OFFCURVE",
"740 2356 CURVE SMOOTH",
"740 2262 OFFCURVE",
"663 2186 OFFCURVE",
"569 2185 CURVE SMOOTH",
"475 2186 OFFCURVE",
"398 2262 OFFCURVE",
"398 2356 CURVE SMOOTH",
"398 2552 OFFCURVE",
"476 2740 OFFCURVE",
"615 2879 CURVE SMOOTH",
"754 3018 OFFCURVE",
"942 3096 OFFCURVE",
"1138 3096 CURVE SMOOTH"
);
},
{
closed = 1;
nodes = (
"1801 740 OFFCURVE",
"1877 663 OFFCURVE",
"1877 569 CURVE SMOOTH",
"1877 373 OFFCURVE",
"1799 185 OFFCURVE",
"1661 46 CURVE SMOOTH",
"1522 -93 OFFCURVE",
"1334 -171 OFFCURVE",
"1138 -171 CURVE SMOOTH",
"1044 -171 OFFCURVE",
"967 -94 OFFCURVE",
"967 0 CURVE SMOOTH",
"967 94 OFFCURVE",
"1044 171 OFFCURVE",
"1138 171 CURVE SMOOTH",
"1243 171 OFFCURVE",
"1345 213 OFFCURVE",
"1419 287 CURVE SMOOTH",
"1494 362 OFFCURVE",
"1536 463 OFFCURVE",
"1536 569 CURVE SMOOTH",
"1536 663 OFFCURVE",
"1612 740 OFFCURVE",
"1707 740 CURVE SMOOTH"
);
},
{
closed = 1;
nodes = (
"1334 3096 OFFCURVE",
"1522 3018 OFFCURVE",
"1661 2879 CURVE SMOOTH",
"1799 2740 OFFCURVE",
"1877 2552 OFFCURVE",
"1877 2356 CURVE SMOOTH",
"1877 2262 OFFCURVE",
"1801 2186 OFFCURVE",
"1707 2185 CURVE SMOOTH",
"1612 2186 OFFCURVE",
"1536 2262 OFFCURVE",
"1536 2356 CURVE SMOOTH",
"1536 2462 OFFCURVE",
"1494 2563 OFFCURVE",
"1419 2638 CURVE SMOOTH",
"1345 2712 OFFCURVE",
"1243 2754 OFFCURVE",
"1138 2754 CURVE SMOOTH",
"1044 2754 OFFCURVE",
"967 2831 OFFCURVE",
"967 2925 CURVE SMOOTH",
"967 3019 OFFCURVE",
"1044 3096 OFFCURVE",
"1138 3096 CURVE SMOOTH"
);
},
{
closed = 1;
nodes = (
"1801 2527 OFFCURVE",
"1877 2450 OFFCURVE",
"1877 2356 CURVE SMOOTH",
"1877 1931 OFFCURVE",
"1543 1626 OFFCURVE",
"1258 1342 CURVE SMOOTH",
"974 1058 OFFCURVE",
"740 795 OFFCURVE",
"740 569 CURVE SMOOTH",
"740 475 OFFCURVE",
"663 398 OFFCURVE",
"569 398 CURVE SMOOTH",
"475 398 OFFCURVE",
"398 475 OFFCURVE",
"398 569 CURVE SMOOTH",
"398 994 OFFCURVE",
"733 1299 OFFCURVE",
"1017 1583 CURVE SMOOTH",
"1302 1867 OFFCURVE",
"1536 2130 OFFCURVE",
"1536 2356 CURVE SMOOTH",
"1536 2450 OFFCURVE",
"1612 2527 OFFCURVE",
"1707 2527 CURVE SMOOTH"
);
},
{
closed = 1;
nodes = (
"398 663 OFFCURVE",
"475 740 OFFCURVE",
"569 740 CURVE SMOOTH",
"663 740 OFFCURVE",
"740 663 OFFCURVE",
"740 569 CURVE SMOOTH",
"740 463 OFFCURVE",
"781 362 OFFCURVE",
"856 287 CURVE SMOOTH",
"931 213 OFFCURVE",
"1032 171 OFFCURVE",
"1138 171 CURVE SMOOTH",
"1232 171 OFFCURVE",
"1308 94 OFFCURVE",
"1308 0 CURVE SMOOTH",
"1308 -94 OFFCURVE",
"1232 -171 OFFCURVE",
"1138 -171 CURVE SMOOTH",
"942 -171 OFFCURVE",
"754 -93 OFFCURVE",
"615 46 CURVE SMOOTH",
"476 185 OFFCURVE",
"398 373 OFFCURVE",
"398 569 CURVE SMOOTH"
);
}
);
width = 2275;
}
);
leftKerningGroup = c;
rightKerningGroup = c;
unicode = 007A;
},
{
glyphname = D;
lastChange = "2021-01-30 08:49:12 +0000";
layers = (
{
layerId = master01;
paths = (
{
closed = 1;
nodes = (
"585 2385 OFFCURVE",
"597 2372 OFFCURVE",
"597 2356 CURVE SMOOTH",
"597 569 LINE SMOOTH",
"597 553 OFFCURVE",
"585 541 OFFCURVE",
"569 540 CURVE SMOOTH",
"553 541 OFFCURVE",
"540 553 OFFCURVE",
"540 569 CURVE SMOOTH",
"540 2356 LINE SMOOTH",
"540 2372 OFFCURVE",
"553 2385 OFFCURVE",
"569 2385 CURVE SMOOTH"
);
},
{
closed = 1;
nodes = (
"1153 2953 OFFCURVE",
"1166 2941 OFFCURVE",
"1166 2925 CURVE SMOOTH",
"1166 2909 OFFCURVE",
"1153 2897 OFFCURVE",
"1138 2897 CURVE SMOOTH",
"994 2897 OFFCURVE",
"857 2840 OFFCURVE",
"756 2738 CURVE SMOOTH",
"654 2637 OFFCURVE",
"597 2499 OFFCURVE",
"597 2356 CURVE SMOOTH",
"597 2340 OFFCURVE",
"585 2328 OFFCURVE",
"569 2328 CURVE SMOOTH",
"553 2328 OFFCURVE",
"540 2340 OFFCURVE",
"540 2356 CURVE SMOOTH",
"540 2515 OFFCURVE",
"603 2667 OFFCURVE",
"715 2779 CURVE SMOOTH",
"827 2891 OFFCURVE",
"979 2953 OFFCURVE",
"1138 2953 CURVE SMOOTH"
);
},
{
closed = 1;
nodes = (
"1722 597 OFFCURVE",
"1735 585 OFFCURVE",
"1735 569 CURVE SMOOTH",
"1735 411 OFFCURVE",
"1672 259 OFFCURVE",
"1560 147 CURVE SMOOTH",
"1448 34 OFFCURVE",
"1296 -28 OFFCURVE",
"1138 -28 CURVE SMOOTH",
"1122 -28 OFFCURVE",
"1109 -16 OFFCURVE",
"1109 0 CURVE SMOOTH",
"1109 16 OFFCURVE",
"1122 28 OFFCURVE",
"1138 28 CURVE SMOOTH",
"1281 28 OFFCURVE",
"1419 85 OFFCURVE",
"1520 187 CURVE SMOOTH",
"1621 288 OFFCURVE",
"1678 426 OFFCURVE",
"1678 569 CURVE SMOOTH",
"1678 585 OFFCURVE",
"1691 597 OFFCURVE",
"1707 597 CURVE SMOOTH"
);
},
{
closed = 1;
nodes = (
"585 597 OFFCURVE",
"597 585 OFFCURVE",
"597 569 CURVE SMOOTH",
"597 426 OFFCURVE",
"654 288 OFFCURVE",
"756 187 CURVE SMOOTH",
"857 85 OFFCURVE",
"994 28 OFFCURVE",
"1138 28 CURVE SMOOTH",
"1153 28 OFFCURVE",
"1166 16 OFFCURVE",
"1166 0 CURVE SMOOTH",
"1166 -16 OFFCURVE",
"1153 -28 OFFCURVE",
"1138 -28 CURVE SMOOTH",
"979 -28 OFFCURVE",
"827 34 OFFCURVE",
"715 147 CURVE SMOOTH",
"603 259 OFFCURVE",
"540 411 OFFCURVE",
"540 569 CURVE SMOOTH",
"540 585 OFFCURVE",
"553 597 OFFCURVE",
"569 597 CURVE SMOOTH"
);
},
{
closed = 1;
nodes = (
"1722 5878 OFFCURVE",
"1735 5866 OFFCURVE",
"1735 5850 CURVE SMOOTH",
"1735 5281 LINE SMOOTH",
"1735 5265 OFFCURVE",
"1722 5253 OFFCURVE",
"1707 5253 CURVE SMOOTH",
"1691 5253 OFFCURVE",
"1678 5265 OFFCURVE",
"1678 5281 CURVE SMOOTH",
"1678 5850 LINE SMOOTH",
"1678 5866 OFFCURVE",
"1691 5878 OFFCURVE",
"1707 5878 CURVE SMOOTH"
);
},
{
closed = 1;
nodes = (
"1722 5310 OFFCURVE",
"1735 5297 OFFCURVE",
"1735 5281 CURVE SMOOTH",
"1735 3494 LINE SMOOTH",
"1735 3478 OFFCURVE",
"1722 3466 OFFCURVE",
"1707 3465 CURVE SMOOTH",
"1691 3466 OFFCURVE",
"1678 3478 OFFCURVE",
"1678 3494 CURVE SMOOTH",
"1678 5281 LINE SMOOTH",
"1678 5297 OFFCURVE",
"1691 5310 OFFCURVE",
"1707 5310 CURVE SMOOTH"
);
},
{
closed = 1;
nodes = (
"1722 3522 OFFCURVE",
"1735 3510 OFFCURVE",
"1735 3494 CURVE SMOOTH",
"1735 2925 LINE SMOOTH",
"1735 2909 OFFCURVE",
"1722 2897 OFFCURVE",
"1707 2897 CURVE SMOOTH",
"1691 2897 OFFCURVE",
"1678 2909 OFFCURVE",
"1678 2925 CURVE SMOOTH",
"1678 3494 LINE SMOOTH",
"1678 3510 OFFCURVE",
"1691 3522 OFFCURVE",
"1707 3522 CURVE SMOOTH"
);
},
{
closed = 1;
nodes = (
"1138 4416 LINE SMOOTH",
"1153 4416 OFFCURVE",
"1166 4403 OFFCURVE",
"1166 4388 CURVE SMOOTH",
"1166 4372 OFFCURVE",
"1153 4359 OFFCURVE",
"1138 4359 CURVE SMOOTH",
"569 4359 LINE SMOOTH",
"553 4359 OFFCURVE",
"540 4372 OFFCURVE",
"540 4388 CURVE SMOOTH",
"540 4403 OFFCURVE",
"553 4416 OFFCURVE",
"569 4416 CURVE SMOOTH"
);
},
{
closed = 1;
nodes = (
"1707 4416 LINE SMOOTH",
"1722 4416 OFFCURVE",
"1735 4403 OFFCURVE",
"1735 4388 CURVE SMOOTH",
"1735 4372 OFFCURVE",
"1722 4359 OFFCURVE",
"1707 4359 CURVE SMOOTH",
"1138 4359 LINE SMOOTH",
"1122 4359 OFFCURVE",
"1109 4372 OFFCURVE",
"1109 4388 CURVE SMOOTH",
"1109 4403 OFFCURVE",
"1122 4416 OFFCURVE",
"1138 4416 CURVE SMOOTH"
);
},
{
closed = 1;
nodes = (
"1109 2941 OFFCURVE",
"1122 2954 OFFCURVE",
"1138 2954 CURVE SMOOTH",
"1707 2954 LINE SMOOTH",
"1722 2954 OFFCURVE",
"1735 2941 OFFCURVE",
"1735 2925 CURVE SMOOTH",
"1735 2910 OFFCURVE",
"1722 2897 OFFCURVE",
"1707 2897 CURVE SMOOTH",
"1138 2897 LINE SMOOTH",
"1122 2897 OFFCURVE",
"1109 2910 OFFCURVE",
"1109 2925 CURVE SMOOTH"
);
}
);
width = 2275;
},
{
layerId = "19B6A511-96ED-40AF-BAB7-D1E16DFA4179";
paths = (
{
closed = 1;
nodes = (
"663 2527 OFFCURVE",
"740 2450 OFFCURVE",
"740 2356 CURVE SMOOTH",
"740 569 LINE SMOOTH",
"740 475 OFFCURVE",
"663 398 OFFCURVE",
"569 398 CURVE SMOOTH",
"475 398 OFFCURVE",
"398 475 OFFCURVE",
"398 569 CURVE SMOOTH",
"398 2356 LINE SMOOTH",
"398 2450 OFFCURVE",
"475 2527 OFFCURVE",
"569 2527 CURVE SMOOTH"
);
},
{
closed = 1;
nodes = (
"1232 3096 OFFCURVE",
"1308 3019 OFFCURVE",
"1308 2925 CURVE SMOOTH",
"1308 2831 OFFCURVE",
"1232 2754 OFFCURVE",
"1138 2754 CURVE SMOOTH",
"1032 2754 OFFCURVE",
"931 2712 OFFCURVE",
"856 2638 CURVE SMOOTH",
"781 2563 OFFCURVE",
"740 2462 OFFCURVE",
"740 2356 CURVE SMOOTH",
"740 2262 OFFCURVE",
"663 2186 OFFCURVE",
"569 2185 CURVE SMOOTH",
"475 2186 OFFCURVE",
"398 2262 OFFCURVE",
"398 2356 CURVE SMOOTH",
"398 2552 OFFCURVE",
"476 2740 OFFCURVE",
"615 2879 CURVE SMOOTH",
"754 3018 OFFCURVE",
"942 3096 OFFCURVE",
"1138 3096 CURVE SMOOTH"
);
},
{
closed = 1;
nodes = (
"1801 740 OFFCURVE",
"1877 663 OFFCURVE",
"1877 569 CURVE SMOOTH",
"1877 373 OFFCURVE",
"1799 185 OFFCURVE",
"1661 46 CURVE SMOOTH",
"1522 -93 OFFCURVE",
"1334 -171 OFFCURVE",
"1138 -171 CURVE SMOOTH",
"1044 -171 OFFCURVE",
"967 -94 OFFCURVE",
"967 0 CURVE SMOOTH",
"967 94 OFFCURVE",
"1044 171 OFFCURVE",
"1138 171 CURVE SMOOTH",
"1243 171 OFFCURVE",
"1345 213 OFFCURVE",
"1419 287 CURVE SMOOTH",
"1494 362 OFFCURVE",
"1536 463 OFFCURVE",
"1536 569 CURVE SMOOTH",
"1536 663 OFFCURVE",
"1612 740 OFFCURVE",
"1707 740 CURVE SMOOTH"
);
},
{
closed = 1;
nodes = (
"663 740 OFFCURVE",
"740 663 OFFCURVE",
"740 569 CURVE SMOOTH",
"740 463 OFFCURVE",
"781 362 OFFCURVE",
"856 287 CURVE SMOOTH",
"931 213 OFFCURVE",
"1032 171 OFFCURVE",
"1138 171 CURVE SMOOTH",
"1232 171 OFFCURVE",
"1308 94 OFFCURVE",
"1308 0 CURVE SMOOTH",
"1308 -94 OFFCURVE",
"1232 -171 OFFCURVE",
"1138 -171 CURVE SMOOTH",
"942 -171 OFFCURVE",
"754 -93 OFFCURVE",
"615 46 CURVE SMOOTH",
"476 185 OFFCURVE",
"398 373 OFFCURVE",
"398 569 CURVE SMOOTH",
"398 663 OFFCURVE",
"475 740 OFFCURVE",
"569 740 CURVE SMOOTH"
);
},
{
closed = 1;
nodes = (
"1801 6021 OFFCURVE",
"1877 5944 OFFCURVE",
"1877 5850 CURVE SMOOTH",
"1877 5281 LINE SMOOTH",
"1877 5187 OFFCURVE",
"1801 5111 OFFCURVE",
"1707 5110 CURVE SMOOTH",
"1612 5111 OFFCURVE",
"1536 5187 OFFCURVE",
"1536 5281 CURVE SMOOTH",
"1536 5850 LINE SMOOTH",
"1536 5944 OFFCURVE",
"1612 6021 OFFCURVE",
"1707 6021 CURVE SMOOTH"
);
},
{
closed = 1;
nodes = (
"1801 5452 OFFCURVE",
"1877 5375 OFFCURVE",
"1877 5281 CURVE SMOOTH",
"1877 3494 LINE SMOOTH",
"1877 3400 OFFCURVE",
"1801 3323 OFFCURVE",
"1707 3323 CURVE SMOOTH",
"1612 3323 OFFCURVE",
"1536 3400 OFFCURVE",
"1536 3494 CURVE SMOOTH",
"1536 5281 LINE SMOOTH",
"1536 5375 OFFCURVE",
"1612 5452 OFFCURVE",
"1707 5452 CURVE SMOOTH"
);
},
{
closed = 1;
nodes = (
"1801 3665 OFFCURVE",
"1877 3588 OFFCURVE",
"1877 3494 CURVE SMOOTH",
"1877 2925 LINE SMOOTH",
"1877 2831 OFFCURVE",
"1801 2754 OFFCURVE",
"1707 2754 CURVE SMOOTH",
"1612 2754 OFFCURVE",
"1536 2831 OFFCURVE",
"1536 2925 CURVE SMOOTH",
"1536 3494 LINE SMOOTH",
"1536 3588 OFFCURVE",
"1612 3665 OFFCURVE",
"1707 3665 CURVE SMOOTH"
);
},
{
closed = 1;
nodes = (
"1138 4558 LINE SMOOTH",
"1232 4558 OFFCURVE",
"1308 4482 OFFCURVE",
"1308 4388 CURVE SMOOTH",
"1308 4293 OFFCURVE",
"1232 4217 OFFCURVE",
"1138 4217 CURVE SMOOTH",
"569 4217 LINE SMOOTH",
"475 4217 OFFCURVE",
"398 4293 OFFCURVE",
"398 4388 CURVE SMOOTH",
"398 4482 OFFCURVE",
"475 4558 OFFCURVE",
"569 4558 CURVE SMOOTH"
);
},
{
closed = 1;
nodes = (
"1707 4558 LINE SMOOTH",
"1801 4558 OFFCURVE",
"1877 4482 OFFCURVE",
"1877 4388 CURVE SMOOTH",
"1877 4293 OFFCURVE",
"1801 4217 OFFCURVE",
"1707 4217 CURVE SMOOTH",
"1138 4217 LINE SMOOTH",
"1044 4217 OFFCURVE",
"967 4293 OFFCURVE",
"967 4388 CURVE SMOOTH",
"967 4482 OFFCURVE",
"1044 4558 OFFCURVE",
"1138 4558 CURVE SMOOTH"
);
},
{
closed = 1;
nodes = (
"967 3019 OFFCURVE",
"1044 3096 OFFCURVE",
"1138 3096 CURVE SMOOTH",
"1707 3096 LINE SMOOTH",
"1801 3096 OFFCURVE",
"1877 3019 OFFCURVE",
"1877 2925 CURVE SMOOTH",
"1877 2831 OFFCURVE",
"1801 2754 OFFCURVE",
"1707 2754 CURVE SMOOTH",
"1138 2754 LINE SMOOTH",
"1044 2754 OFFCURVE",
"967 2831 OFFCURVE",
"967 2925 CURVE SMOOTH"
);
}
);
width = 2275;
}
);
leftKerningGroup = c;
rightKerningGroup = c;
unicode = 0044;
},
{
glyphname = s;
lastChange = "2021-01-30 08:49:12 +0000";
layers = (
{
layerId = master01;
paths = (
{
closed = 1;
nodes = (
"1153 2953 OFFCURVE",
"1166 2941 OFFCURVE",
"1166 2925 CURVE SMOOTH",
"1166 2909 OFFCURVE",
"1153 2897 OFFCURVE",
"1138 2897 CURVE SMOOTH",
"994 2897 OFFCURVE",
"857 2840 OFFCURVE",
"756 2738 CURVE SMOOTH",
"654 2637 OFFCURVE",
"597 2499 OFFCURVE",
"597 2356 CURVE SMOOTH",
"597 2340 OFFCURVE",
"585 2328 OFFCURVE",
"569 2328 CURVE SMOOTH",
"553 2328 OFFCURVE",
"540 2340 OFFCURVE",
"540 2356 CURVE SMOOTH",
"540 2515 OFFCURVE",
"603 2667 OFFCURVE",
"715 2779 CURVE SMOOTH",
"827 2891 OFFCURVE",
"979 2953 OFFCURVE",
"1138 2953 CURVE SMOOTH"
);
},
{
closed = 1;
nodes = (
"585 2385 OFFCURVE",
"597 2372 OFFCURVE",
"597 2356 CURVE SMOOTH",
"597 2047 OFFCURVE",
"873 1767 OFFCURVE",
"1158 1483 CURVE SMOOTH",
"1442 1199 OFFCURVE",
"1735 911 OFFCURVE",
"1735 569 CURVE SMOOTH",
"1735 553 OFFCURVE",
"1722 541 OFFCURVE",
"1707 540 CURVE SMOOTH",
"1691 541 OFFCURVE",
"1678 553 OFFCURVE",
"1678 569 CURVE SMOOTH",
"1678 878 OFFCURVE",
"1402 1158 OFFCURVE",
"1118 1442 CURVE SMOOTH",
"833 1726 OFFCURVE",
"540 2014 OFFCURVE",
"540 2356 CURVE SMOOTH",
"540 2372 OFFCURVE",
"553 2385 OFFCURVE",
"569 2385 CURVE SMOOTH"
);
},
{
closed = 1;
nodes = (
"1722 597 OFFCURVE",
"1735 585 OFFCURVE",
"1735 569 CURVE SMOOTH",
"1735 411 OFFCURVE",
"1672 259 OFFCURVE",
"1560 147 CURVE SMOOTH",
"1448 34 OFFCURVE",
"1296 -28 OFFCURVE",
"1138 -28 CURVE SMOOTH",
"1122 -28 OFFCURVE",
"1109 -16 OFFCURVE",
"1109 0 CURVE SMOOTH",
"1109 16 OFFCURVE",
"1122 28 OFFCURVE",
"1138 28 CURVE SMOOTH",
"1281 28 OFFCURVE",
"1419 85 OFFCURVE",
"1520 187 CURVE SMOOTH",
"1621 288 OFFCURVE",
"1678 426 OFFCURVE",
"1678 569 CURVE SMOOTH",
"1678 585 OFFCURVE",
"1691 597 OFFCURVE",
"1707 597 CURVE SMOOTH"
);
},
{
closed = 1;
nodes = (
"1296 2953 OFFCURVE",
"1448 2891 OFFCURVE",
"1560 2778 CURVE SMOOTH",
"1672 2666 OFFCURVE",
"1735 2514 OFFCURVE",
"1735 2356 CURVE SMOOTH",
"1735 2340 OFFCURVE",
"1722 2328 OFFCURVE",
"1707 2328 CURVE SMOOTH",
"1691 2328 OFFCURVE",
"1678 2340 OFFCURVE",
"1678 2356 CURVE SMOOTH",
"1678 2499 OFFCURVE",
"1621 2637 OFFCURVE",
"1520 2738 CURVE SMOOTH",
"1419 2840 OFFCURVE",
"1281 2897 OFFCURVE",
"1138 2897 CURVE SMOOTH",
"1122 2897 OFFCURVE",
"1109 2909 OFFCURVE",
"1109 2925 CURVE SMOOTH",
"1109 2941 OFFCURVE",
"1122 2953 OFFCURVE",
"1138 2953 CURVE SMOOTH"
);
},
{
closed = 1;
nodes = (
"540 585 OFFCURVE",
"553 598 OFFCURVE",
"569 598 CURVE SMOOTH",
"585 598 OFFCURVE",
"597 585 OFFCURVE",
"597 569 CURVE SMOOTH",
"597 426 OFFCURVE",
"654 288 OFFCURVE",
"756 187 CURVE SMOOTH",
"857 86 OFFCURVE",
"994 29 OFFCURVE",
"1138 29 CURVE SMOOTH",
"1153 29 OFFCURVE",
"1166 16 OFFCURVE",
"1166 0 CURVE SMOOTH",
"1166 -15 OFFCURVE",
"1153 -28 OFFCURVE",
"1138 -28 CURVE SMOOTH",
"979 -28 OFFCURVE",
"827 35 OFFCURVE",
"715 147 CURVE SMOOTH",
"603 259 OFFCURVE",
"540 411 OFFCURVE",
"540 569 CURVE SMOOTH"
);
}
);
width = 2275;
},
{
layerId = "19B6A511-96ED-40AF-BAB7-D1E16DFA4179";
paths = (
{
closed = 1;
nodes = (
"1232 3096 OFFCURVE",
"1308 3019 OFFCURVE",
"1308 2925 CURVE SMOOTH",
"1308 2831 OFFCURVE",
"1232 2754 OFFCURVE",
"1138 2754 CURVE SMOOTH",
"1032 2754 OFFCURVE",
"931 2712 OFFCURVE",
"856 2638 CURVE SMOOTH",
"781 2563 OFFCURVE",
"740 2462 OFFCURVE",
"740 2356 CURVE SMOOTH",
"740 2262 OFFCURVE",
"663 2186 OFFCURVE",
"569 2185 CURVE SMOOTH",
"475 2186 OFFCURVE",
"398 2262 OFFCURVE",
"398 2356 CURVE SMOOTH",
"398 2552 OFFCURVE",
"476 2740 OFFCURVE",
"615 2879 CURVE SMOOTH",
"754 3018 OFFCURVE",
"942 3096 OFFCURVE",
"1138 3096 CURVE SMOOTH"
);
},
{
closed = 1;
nodes = (
"663 2527 OFFCURVE",
"740 2450 OFFCURVE",
"740 2356 CURVE SMOOTH",
"740 2130 OFFCURVE",
"974 1867 OFFCURVE",
"1258 1583 CURVE SMOOTH",
"1543 1299 OFFCURVE",
"1877 994 OFFCURVE",
"1877 569 CURVE SMOOTH",
"1877 475 OFFCURVE",
"1801 398 OFFCURVE",
"1707 398 CURVE SMOOTH",
"1612 398 OFFCURVE",
"1536 475 OFFCURVE",
"1536 569 CURVE SMOOTH",
"1536 795 OFFCURVE",
"1302 1058 OFFCURVE",
"1017 1342 CURVE SMOOTH",
"733 1626 OFFCURVE",
"398 1931 OFFCURVE",
"398 2356 CURVE SMOOTH",
"398 2450 OFFCURVE",
"475 2527 OFFCURVE",
"569 2527 CURVE SMOOTH"
);
},
{
closed = 1;
nodes = (
"1801 740 OFFCURVE",
"1877 663 OFFCURVE",
"1877 569 CURVE SMOOTH",
"1877 373 OFFCURVE",
"1799 185 OFFCURVE",
"1661 46 CURVE SMOOTH",
"1522 -93 OFFCURVE",
"1334 -171 OFFCURVE",
"1138 -171 CURVE SMOOTH",
"1044 -171 OFFCURVE",
"967 -94 OFFCURVE",
"967 0 CURVE SMOOTH",
"967 94 OFFCURVE",
"1044 171 OFFCURVE",
"1138 171 CURVE SMOOTH",
"1243 171 OFFCURVE",
"1345 213 OFFCURVE",
"1419 287 CURVE SMOOTH",
"1494 362 OFFCURVE",
"1536 463 OFFCURVE",
"1536 569 CURVE SMOOTH",
"1536 663 OFFCURVE",
"1612 740 OFFCURVE",
"1707 740 CURVE SMOOTH"
);
},
{
closed = 1;
nodes = (
"1334 3096 OFFCURVE",
"1522 3018 OFFCURVE",
"1661 2879 CURVE SMOOTH",
"1799 2740 OFFCURVE",
"1877 2552 OFFCURVE",
"1877 2356 CURVE SMOOTH",
"1877 2262 OFFCURVE",
"1801 2186 OFFCURVE",
"1707 2185 CURVE SMOOTH",
"1612 2186 OFFCURVE",
"1536 2262 OFFCURVE",
"1536 2356 CURVE SMOOTH",
"1536 2462 OFFCURVE",
"1494 2563 OFFCURVE",
"1419 2638 CURVE SMOOTH",
"1345 2712 OFFCURVE",
"1243 2754 OFFCURVE",
"1138 2754 CURVE SMOOTH",
"1044 2754 OFFCURVE",
"967 2831 OFFCURVE",
"967 2925 CURVE SMOOTH",
"967 3019 OFFCURVE",
"1044 3096 OFFCURVE",
"1138 3096 CURVE SMOOTH"
);
},
{
closed = 1;
nodes = (
"398 663 OFFCURVE",
"475 740 OFFCURVE",
"569 740 CURVE SMOOTH",
"663 740 OFFCURVE",
"740 663 OFFCURVE",
"740 569 CURVE SMOOTH",
"740 463 OFFCURVE",
"781 362 OFFCURVE",
"856 287 CURVE SMOOTH",
"931 213 OFFCURVE",
"1032 171 OFFCURVE",
"1138 171 CURVE SMOOTH",
"1232 171 OFFCURVE",
"1308 94 OFFCURVE",
"1308 0 CURVE SMOOTH",
"1308 -94 OFFCURVE",
"1232 -171 OFFCURVE",
"1138 -171 CURVE SMOOTH",
"942 -171 OFFCURVE",
"754 -93 OFFCURVE",
"615 46 CURVE SMOOTH",
"476 185 OFFCURVE",
"398 373 OFFCURVE",
"398 569 CURVE SMOOTH"
);
}
);
width = 2275;
}
);
leftKerningGroup = c;
rightKerningGroup = c;
unicode = 0073;
},
{
glyphname = r;
lastChange = "2021-01-30 08:49:12 +0000";
layers = (
{
layerId = master01;
paths = (
{
closed = 1;
nodes = (
"585 2385 OFFCURVE",
"597 2372 OFFCURVE",
"597 2356 CURVE SMOOTH",
"597 569 LINE SMOOTH",
"597 553 OFFCURVE",
"585 541 OFFCURVE",
"569 540 CURVE SMOOTH",
"553 541 OFFCURVE",
"540 553 OFFCURVE",
"540 569 CURVE SMOOTH",
"540 2356 LINE SMOOTH",
"540 2372 OFFCURVE",
"553 2385 OFFCURVE",
"569 2385 CURVE SMOOTH"
);
},
{
closed = 1;
nodes = (
"585 597 OFFCURVE",
"597 585 OFFCURVE",
"597 569 CURVE SMOOTH",
"597 0 LINE SMOOTH",
"597 -16 OFFCURVE",
"585 -28 OFFCURVE",
"569 -28 CURVE SMOOTH",
"553 -28 OFFCURVE",
"540 -16 OFFCURVE",
"540 0 CURVE SMOOTH",
"540 569 LINE SMOOTH",
"540 585 OFFCURVE",
"553 597 OFFCURVE",
"569 597 CURVE SMOOTH"
);
},
{
closed = 1;
nodes = (
"540 2515 OFFCURVE",
"603 2667 OFFCURVE",
"715 2779 CURVE SMOOTH",
"827 2891 OFFCURVE",
"979 2954 OFFCURVE",
"1138 2954 CURVE SMOOTH",
"1153 2954 OFFCURVE",
"1166 2941 OFFCURVE",
"1166 2925 CURVE SMOOTH",
"1166 2910 OFFCURVE",
"1153 2897 OFFCURVE",
"1138 2897 CURVE SMOOTH",
"994 2897 OFFCURVE",
"857 2840 OFFCURVE",
"756 2739 CURVE SMOOTH",
"654 2637 OFFCURVE",
"597 2500 OFFCURVE",
"597 2356 CURVE SMOOTH",
"597 2341 OFFCURVE",
"585 2328 OFFCURVE",
"569 2328 CURVE SMOOTH",
"553 2328 OFFCURVE",
"540 2341 OFFCURVE",
"540 2356 CURVE SMOOTH"
);
}
);
width = 1706;
},
{
layerId = "19B6A511-96ED-40AF-BAB7-D1E16DFA4179";
paths = (
{
closed = 1;
nodes = (
"663 2527 OFFCURVE",
"740 2450 OFFCURVE",
"740 2356 CURVE SMOOTH",
"740 569 LINE SMOOTH",
"740 475 OFFCURVE",
"663 398 OFFCURVE",
"569 398 CURVE SMOOTH",
"475 398 OFFCURVE",
"398 475 OFFCURVE",
"398 569 CURVE SMOOTH",
"398 2356 LINE SMOOTH",
"398 2450 OFFCURVE",
"475 2527 OFFCURVE",
"569 2527 CURVE SMOOTH"
);
},
{
closed = 1;
nodes = (
"663 740 OFFCURVE",
"740 663 OFFCURVE",
"740 569 CURVE SMOOTH",
"740 0 LINE SMOOTH",
"740 -94 OFFCURVE",
"663 -171 OFFCURVE",
"569 -171 CURVE SMOOTH",
"475 -171 OFFCURVE",
"398 -94 OFFCURVE",
"398 0 CURVE SMOOTH",
"398 569 LINE SMOOTH",
"398 663 OFFCURVE",
"475 740 OFFCURVE",
"569 740 CURVE SMOOTH"
);
},
{
closed = 1;
nodes = (
"398 2552 OFFCURVE",
"476 2740 OFFCURVE",
"615 2879 CURVE SMOOTH",
"754 3018 OFFCURVE",
"942 3096 OFFCURVE",
"1138 3096 CURVE SMOOTH",
"1232 3096 OFFCURVE",
"1308 3019 OFFCURVE",
"1308 2925 CURVE SMOOTH",
"1308 2831 OFFCURVE",
"1232 2754 OFFCURVE",
"1138 2754 CURVE SMOOTH",
"1032 2754 OFFCURVE",
"931 2712 OFFCURVE",
"856 2638 CURVE SMOOTH",
"781 2563 OFFCURVE",
"740 2462 OFFCURVE",
"740 2356 CURVE SMOOTH",
"740 2262 OFFCURVE",
"663 2186 OFFCURVE",
"569 2185 CURVE SMOOTH",
"475 2186 OFFCURVE",
"398 2262 OFFCURVE",
"398 2356 CURVE SMOOTH"
);
}
);
width = 1706;
}
);
leftKerningGroup = h;
rightKerningGroup = r;
unicode = 0072;
},
{
glyphname = H;
lastChange = "2021-01-30 08:49:12 +0000";
layers = (
{
layerId = master01;
paths = (
{
closed = 1;
nodes = (
"585 2953 OFFCURVE",
"597 2941 OFFCURVE",
"597 2925 CURVE SMOOTH",
"597 2356 LINE SMOOTH",
"597 2340 OFFCURVE",
"585 2328 OFFCURVE",
"569 2328 CURVE SMOOTH",
"553 2328 OFFCURVE",
"540 2340 OFFCURVE",
"540 2356 CURVE SMOOTH",
"540 2925 LINE SMOOTH",
"540 2941 OFFCURVE",
"553 2953 OFFCURVE",
"569 2953 CURVE SMOOTH"
);
},
{
closed = 1;
nodes = (
"585 2385 OFFCURVE",
"597 2372 OFFCURVE",
"597 2356 CURVE SMOOTH",
"597 569 LINE SMOOTH",
"597 553 OFFCURVE",
"585 541 OFFCURVE",
"569 540 CURVE SMOOTH",
"553 541 OFFCURVE",
"540 553 OFFCURVE",
"540 569 CURVE SMOOTH",
"540 2356 LINE SMOOTH",
"540 2372 OFFCURVE",
"553 2385 OFFCURVE",
"569 2385 CURVE SMOOTH"
);
},
{
closed = 1;
nodes = (
"585 597 OFFCURVE",
"597 585 OFFCURVE",
"597 569 CURVE SMOOTH",
"597 0 LINE SMOOTH",
"597 -16 OFFCURVE",
"585 -28 OFFCURVE",
"569 -28 CURVE SMOOTH",
"553 -28 OFFCURVE",
"540 -16 OFFCURVE",
"540 0 CURVE SMOOTH",
"540 569 LINE SMOOTH",
"540 585 OFFCURVE",
"553 597 OFFCURVE",
"569 597 CURVE SMOOTH"
);
},
{
closed = 1;
nodes = (
"585 28 OFFCURVE",
"597 16 OFFCURVE",
"597 0 CURVE SMOOTH",
"597 -569 LINE SMOOTH",
"597 -585 OFFCURVE",
"585 -597 OFFCURVE",
"569 -597 CURVE SMOOTH",
"553 -597 OFFCURVE",
"540 -585 OFFCURVE",
"540 -569 CURVE SMOOTH",
"540 0 LINE SMOOTH",
"540 16 OFFCURVE",
"553 28 OFFCURVE",
"569 28 CURVE SMOOTH"
);
},
{
closed = 1;
nodes = (
"585 -540 OFFCURVE",
"597 -553 OFFCURVE",
"597 -569 CURVE SMOOTH",
"597 -2356 LINE SMOOTH",
"597 -2372 OFFCURVE",
"585 -2384 OFFCURVE",
"569 -2385 CURVE SMOOTH",
"553 -2384 OFFCURVE",
"540 -2372 OFFCURVE",
"540 -2356 CURVE SMOOTH",
"540 -569 LINE SMOOTH",
"540 -553 OFFCURVE",
"553 -540 OFFCURVE",
"569 -540 CURVE SMOOTH"
);
},
{
closed = 1;
nodes = (
"585 -2328 OFFCURVE",
"597 -2340 OFFCURVE",
"597 -2356 CURVE SMOOTH",
"597 -2925 LINE SMOOTH",
"597 -2941 OFFCURVE",
"585 -2953 OFFCURVE",
"569 -2953 CURVE SMOOTH",
"553 -2953 OFFCURVE",
"540 -2941 OFFCURVE",
"540 -2925 CURVE SMOOTH",
"540 -2356 LINE SMOOTH",
"540 -2340 OFFCURVE",
"553 -2328 OFFCURVE",
"569 -2328 CURVE SMOOTH"
);
},
{
closed = 1;
nodes = (
"540 585 OFFCURVE",
"553 598 OFFCURVE",
"569 598 CURVE SMOOTH",
"585 598 OFFCURVE",
"597 585 OFFCURVE",
"597 569 CURVE SMOOTH",
"597 426 OFFCURVE",
"654 288 OFFCURVE",
"756 187 CURVE SMOOTH",
"857 86 OFFCURVE",
"994 29 OFFCURVE",
"1138 29 CURVE SMOOTH",
"1153 29 OFFCURVE",
"1166 16 OFFCURVE",
"1166 0 CURVE SMOOTH",
"1166 -15 OFFCURVE",
"1153 -28 OFFCURVE",
"1138 -28 CURVE SMOOTH",
"979 -28 OFFCURVE",
"827 35 OFFCURVE",
"715 147 CURVE SMOOTH",
"603 259 OFFCURVE",
"540 411 OFFCURVE",
"540 569 CURVE SMOOTH"
);
}
);
width = 1137;
},
{
layerId = "19B6A511-96ED-40AF-BAB7-D1E16DFA4179";
paths = (
{
closed = 1;
nodes = (
"663 3096 OFFCURVE",
"740 3019 OFFCURVE",
"740 2925 CURVE SMOOTH",
"740 2356 LINE SMOOTH",
"740 2262 OFFCURVE",
"663 2186 OFFCURVE",
"569 2185 CURVE SMOOTH",
"475 2186 OFFCURVE",
"398 2262 OFFCURVE",
"398 2356 CURVE SMOOTH",
"398 2925 LINE SMOOTH",
"398 3019 OFFCURVE",
"475 3096 OFFCURVE",
"569 3096 CURVE SMOOTH"
);
},
{
closed = 1;
nodes = (
"663 2527 OFFCURVE",
"740 2450 OFFCURVE",
"740 2356 CURVE SMOOTH",
"740 569 LINE SMOOTH",
"740 475 OFFCURVE",
"663 398 OFFCURVE",
"569 398 CURVE SMOOTH",
"475 398 OFFCURVE",
"398 475 OFFCURVE",
"398 569 CURVE SMOOTH",
"398 2356 LINE SMOOTH",
"398 2450 OFFCURVE",
"475 2527 OFFCURVE",
"569 2527 CURVE SMOOTH"
);
},
{
closed = 1;
nodes = (
"663 740 OFFCURVE",
"740 663 OFFCURVE",
"740 569 CURVE SMOOTH",
"740 0 LINE SMOOTH",
"740 -94 OFFCURVE",
"663 -171 OFFCURVE",
"569 -171 CURVE SMOOTH",
"475 -171 OFFCURVE",
"398 -94 OFFCURVE",
"398 0 CURVE SMOOTH",
"398 569 LINE SMOOTH",
"398 663 OFFCURVE",
"475 740 OFFCURVE",
"569 740 CURVE SMOOTH"
);
},
{
closed = 1;
nodes = (
"663 171 OFFCURVE",
"740 94 OFFCURVE",
"740 0 CURVE SMOOTH",
"740 -569 LINE SMOOTH",
"740 -663 OFFCURVE",
"663 -739 OFFCURVE",
"569 -740 CURVE SMOOTH",
"475 -739 OFFCURVE",
"398 -663 OFFCURVE",
"398 -569 CURVE SMOOTH",
"398 0 LINE SMOOTH",
"398 94 OFFCURVE",
"475 171 OFFCURVE",
"569 171 CURVE SMOOTH"
);
},
{
closed = 1;
nodes = (
"663 -398 OFFCURVE",
"740 -475 OFFCURVE",
"740 -569 CURVE SMOOTH",
"740 -2356 LINE SMOOTH",
"740 -2450 OFFCURVE",
"663 -2527 OFFCURVE",
"569 -2527 CURVE SMOOTH",
"475 -2527 OFFCURVE",
"398 -2450 OFFCURVE",
"398 -2356 CURVE SMOOTH",
"398 -569 LINE SMOOTH",
"398 -475 OFFCURVE",
"475 -398 OFFCURVE",
"569 -398 CURVE SMOOTH"
);
},
{
closed = 1;
nodes = (
"663 -2185 OFFCURVE",
"740 -2262 OFFCURVE",
"740 -2356 CURVE SMOOTH",
"740 -2925 LINE SMOOTH",
"740 -3019 OFFCURVE",
"663 -3096 OFFCURVE",
"569 -3096 CURVE SMOOTH",
"475 -3096 OFFCURVE",
"398 -3019 OFFCURVE",
"398 -2925 CURVE SMOOTH",
"398 -2356 LINE SMOOTH",
"398 -2262 OFFCURVE",
"475 -2185 OFFCURVE",
"569 -2185 CURVE SMOOTH"
);
},
{
closed = 1;
nodes = (
"398 663 OFFCURVE",
"475 740 OFFCURVE",
"569 740 CURVE SMOOTH",
"663 740 OFFCURVE",
"740 663 OFFCURVE",
"740 569 CURVE SMOOTH",
"740 463 OFFCURVE",
"781 362 OFFCURVE",
"856 287 CURVE SMOOTH",
"931 213 OFFCURVE",
"1032 171 OFFCURVE",
"1138 171 CURVE SMOOTH",
"1232 171 OFFCURVE",
"1308 94 OFFCURVE",
"1308 0 CURVE SMOOTH",
"1308 -94 OFFCURVE",
"1232 -171 OFFCURVE",
"1138 -171 CURVE SMOOTH",
"942 -171 OFFCURVE",
"754 -93 OFFCURVE",
"615 46 CURVE SMOOTH",
"476 185 OFFCURVE",
"398 373 OFFCURVE",
"398 569 CURVE SMOOTH"
);
}
);
width = 1138;
}
);
unicode = 0048;
},
{
glyphname = i;
lastChange = "2021-01-30 08:49:12 +0000";
layers = (
{
layerId = master01;
paths = (
{
closed = 1;
nodes = (
"621 4382 OFFCURVE",
"617 4371 OFFCURVE",
"609 4364 CURVE SMOOTH",
"602 4356 OFFCURVE",
"592 4352 OFFCURVE",
"581 4352 CURVE SMOOTH",
"570 4352 OFFCURVE",
"560 4356 OFFCURVE",
"552 4364 CURVE SMOOTH",
"545 4371 OFFCURVE",
"540 4382 OFFCURVE",
"540 4392 CURVE SMOOTH",
"540 4403 OFFCURVE",
"545 4413 OFFCURVE",
"552 4421 CURVE SMOOTH",
"560 4428 OFFCURVE",
"570 4433 OFFCURVE",
"581 4433 CURVE SMOOTH",
"592 4433 OFFCURVE",
"602 4428 OFFCURVE",
"609 4421 CURVE SMOOTH",
"617 4413 OFFCURVE",
"621 4403 OFFCURVE",
"621 4392 CURVE SMOOTH"
);
},
{
closed = 1;
nodes = (
"604 2953 OFFCURVE",
"616 2941 OFFCURVE",
"616 2925 CURVE SMOOTH",
"616 2356 LINE SMOOTH",
"616 2340 OFFCURVE",
"604 2328 OFFCURVE",
"588 2328 CURVE SMOOTH",
"572 2328 OFFCURVE",
"559 2340 OFFCURVE",
"559 2356 CURVE SMOOTH",
"559 2925 LINE SMOOTH",
"559 2941 OFFCURVE",
"572 2953 OFFCURVE",
"588 2953 CURVE SMOOTH"
);
},
{
closed = 1;
nodes = (
"604 2385 OFFCURVE",
"616 2372 OFFCURVE",
"616 2356 CURVE SMOOTH",
"616 569 LINE SMOOTH",
"616 553 OFFCURVE",
"604 541 OFFCURVE",
"588 540 CURVE SMOOTH",
"572 541 OFFCURVE",
"559 553 OFFCURVE",
"559 569 CURVE SMOOTH",
"559 2356 LINE SMOOTH",
"559 2372 OFFCURVE",
"572 2385 OFFCURVE",
"588 2385 CURVE SMOOTH"
);
},
{
closed = 1;
nodes = (
"559 569 LINE SMOOTH",
"559 585 OFFCURVE",
"572 598 OFFCURVE",
"588 598 CURVE SMOOTH",
"604 598 OFFCURVE",
"616 585 OFFCURVE",
"616 569 CURVE SMOOTH",
"616 0 LINE SMOOTH",
"616 -15 OFFCURVE",
"604 -28 OFFCURVE",
"588 -28 CURVE SMOOTH",
"572 -28 OFFCURVE",
"559 -15 OFFCURVE",
"559 0 CURVE SMOOTH"
);
}
);
width = 1161;
},
{
layerId = "19B6A511-96ED-40AF-BAB7-D1E16DFA4179";
paths = (
{
closed = 1;
nodes = (
"763 4344 OFFCURVE",
"744 4298 OFFCURVE",
"710 4263 CURVE SMOOTH",
"676 4229 OFFCURVE",
"629 4210 OFFCURVE",
"581 4210 CURVE SMOOTH",
"532 4210 OFFCURVE",
"486 4229 OFFCURVE",
"452 4263 CURVE SMOOTH",
"418 4298 OFFCURVE",
"398 4344 OFFCURVE",
"398 4392 CURVE SMOOTH",
"398 4441 OFFCURVE",
"418 4487 OFFCURVE",
"452 4521 CURVE SMOOTH",
"486 4556 OFFCURVE",
"532 4575 OFFCURVE",
"581 4575 CURVE SMOOTH",
"629 4575 OFFCURVE",
"676 4556 OFFCURVE",
"710 4521 CURVE SMOOTH",
"744 4487 OFFCURVE",
"763 4441 OFFCURVE",
"763 4392 CURVE SMOOTH"
);
},
{
closed = 1;
nodes = (
"682 3096 OFFCURVE",
"759 3019 OFFCURVE",
"759 2925 CURVE SMOOTH",
"759 2356 LINE SMOOTH",
"759 2262 OFFCURVE",
"682 2186 OFFCURVE",
"588 2185 CURVE SMOOTH",
"494 2186 OFFCURVE",
"417 2262 OFFCURVE",
"417 2356 CURVE SMOOTH",
"417 2925 LINE SMOOTH",
"417 3019 OFFCURVE",
"494 3096 OFFCURVE",
"588 3096 CURVE SMOOTH"
);
},
{
closed = 1;
nodes = (
"682 2527 OFFCURVE",
"759 2450 OFFCURVE",
"759 2356 CURVE SMOOTH",
"759 569 LINE SMOOTH",
"759 475 OFFCURVE",
"682 398 OFFCURVE",
"588 398 CURVE SMOOTH",
"494 398 OFFCURVE",
"417 475 OFFCURVE",
"417 569 CURVE SMOOTH",
"417 2356 LINE SMOOTH",
"417 2450 OFFCURVE",
"494 2527 OFFCURVE",
"588 2527 CURVE SMOOTH"
);
},
{
closed = 1;
nodes = (
"417 569 LINE SMOOTH",
"417 663 OFFCURVE",
"494 740 OFFCURVE",
"588 740 CURVE SMOOTH",
"682 740 OFFCURVE",
"759 663 OFFCURVE",
"759 569 CURVE SMOOTH",
"759 0 LINE SMOOTH",
"759 -94 OFFCURVE",
"682 -171 OFFCURVE",
"588 -171 CURVE SMOOTH",
"494 -171 OFFCURVE",
"417 -94 OFFCURVE",
"417 0 CURVE SMOOTH"
);
}
);
width = 1161;
}
);
leftKerningGroup = h;
rightKerningGroup = h;
unicode = 0069;
},
{
glyphname = one;
lastChange = "2021-01-30 08:49:12 +0000";
layers = (
{
layerId = master01;
paths = (
{
closed = 1;
nodes = (
"585 2953 OFFCURVE",
"597 2941 OFFCURVE",
"597 2925 CURVE SMOOTH",
"597 2356 LINE SMOOTH",
"597 2340 OFFCURVE",
"585 2328 OFFCURVE",
"569 2328 CURVE SMOOTH",
"553 2328 OFFCURVE",
"540 2340 OFFCURVE",
"540 2356 CURVE SMOOTH",
"540 2925 LINE SMOOTH",
"540 2941 OFFCURVE",
"553 2953 OFFCURVE",
"569 2953 CURVE SMOOTH"
);
},
{
closed = 1;
nodes = (
"585 2385 OFFCURVE",
"597 2372 OFFCURVE",
"597 2356 CURVE SMOOTH",
"597 569 LINE SMOOTH",
"597 553 OFFCURVE",
"585 541 OFFCURVE",
"569 540 CURVE SMOOTH",
"553 541 OFFCURVE",
"540 553 OFFCURVE",
"540 569 CURVE SMOOTH",
"540 2356 LINE SMOOTH",
"540 2372 OFFCURVE",
"553 2385 OFFCURVE",
"569 2385 CURVE SMOOTH"
);
},
{
closed = 1;
nodes = (
"540 569 LINE SMOOTH",
"540 585 OFFCURVE",
"553 598 OFFCURVE",
"569 598 CURVE SMOOTH",
"585 598 OFFCURVE",
"597 585 OFFCURVE",
"597 569 CURVE SMOOTH",
"597 0 LINE SMOOTH",
"597 -15 OFFCURVE",
"585 -28 OFFCURVE",
"569 -28 CURVE SMOOTH",
"553 -28 OFFCURVE",
"540 -15 OFFCURVE",
"540 0 CURVE SMOOTH"
);
}
);
width = 1137;
},
{
layerId = "19B6A511-96ED-40AF-BAB7-D1E16DFA4179";
paths = (
{
closed = 1;
nodes = (
"663 3096 OFFCURVE",
"740 3019 OFFCURVE",
"740 2925 CURVE SMOOTH",
"740 2356 LINE SMOOTH",
"740 2262 OFFCURVE",
"663 2186 OFFCURVE",
"569 2185 CURVE SMOOTH",
"475 2186 OFFCURVE",
"398 2262 OFFCURVE",
"398 2356 CURVE SMOOTH",
"398 2925 LINE SMOOTH",
"398 3019 OFFCURVE",
"475 3096 OFFCURVE",
"569 3096 CURVE SMOOTH"
);
},
{
closed = 1;
nodes = (
"663 2527 OFFCURVE",
"740 2450 OFFCURVE",
"740 2356 CURVE SMOOTH",
"740 569 LINE SMOOTH",
"740 475 OFFCURVE",
"663 398 OFFCURVE",
"569 398 CURVE SMOOTH",
"475 398 OFFCURVE",
"398 475 OFFCURVE",
"398 569 CURVE SMOOTH",
"398 2356 LINE SMOOTH",
"398 2450 OFFCURVE",
"475 2527 OFFCURVE",
"569 2527 CURVE SMOOTH"
);
},
{
closed = 1;
nodes = (
"398 569 LINE SMOOTH",
"398 663 OFFCURVE",
"475 740 OFFCURVE",
"569 740 CURVE SMOOTH",
"663 740 OFFCURVE",
"740 663 OFFCURVE",
"740 569 CURVE SMOOTH",
"740 0 LINE SMOOTH",
"740 -94 OFFCURVE",
"663 -171 OFFCURVE",
"569 -171 CURVE SMOOTH",
"475 -171 OFFCURVE",
"398 -94 OFFCURVE",
"398 0 CURVE SMOOTH"
);
}
);
width = 1138;
}
);
unicode = 0031;
},
{
glyphname = V;
lastChange = "2021-01-30 08:49:12 +0000";
layers = (
{
layerId = master01;
paths = (
{
closed = 1;
nodes = (
"585 2385 OFFCURVE",
"597 2372 OFFCURVE",
"597 2356 CURVE SMOOTH",
"597 569 LINE SMOOTH",
"597 553 OFFCURVE",
"585 541 OFFCURVE",
"569 540 CURVE SMOOTH",
"553 541 OFFCURVE",
"540 553 OFFCURVE",
"540 569 CURVE SMOOTH",
"540 2356 LINE SMOOTH",
"540 2372 OFFCURVE",
"553 2385 OFFCURVE",
"569 2385 CURVE SMOOTH"
);
},
{
closed = 1;
nodes = (
"585 597 OFFCURVE",
"597 585 OFFCURVE",
"597 569 CURVE SMOOTH",
"597 0 LINE SMOOTH",
"597 -16 OFFCURVE",
"585 -28 OFFCURVE",
"569 -28 CURVE SMOOTH",
"553 -28 OFFCURVE",
"540 -16 OFFCURVE",
"540 0 CURVE SMOOTH",
"540 569 LINE SMOOTH",
"540 585 OFFCURVE",
"553 597 OFFCURVE",
"569 597 CURVE SMOOTH"
);
},
{
closed = 1;
nodes = (
"1153 2953 OFFCURVE",
"1166 2941 OFFCURVE",
"1166 2925 CURVE SMOOTH",
"1166 2909 OFFCURVE",
"1153 2897 OFFCURVE",
"1138 2897 CURVE SMOOTH",
"994 2897 OFFCURVE",
"857 2840 OFFCURVE",
"756 2738 CURVE SMOOTH",
"654 2637 OFFCURVE",
"597 2499 OFFCURVE",
"597 2356 CURVE SMOOTH",
"597 2340 OFFCURVE",
"585 2328 OFFCURVE",
"569 2328 CURVE SMOOTH",
"553 2328 OFFCURVE",
"540 2340 OFFCURVE",
"540 2356 CURVE SMOOTH",
"540 2515 OFFCURVE",
"603 2667 OFFCURVE",
"715 2779 CURVE SMOOTH",
"827 2891 OFFCURVE",
"979 2953 OFFCURVE",
"1138 2953 CURVE SMOOTH"
);
},
{
closed = 1;
nodes = (
"585 2385 OFFCURVE",
"597 2372 OFFCURVE",
"597 2356 CURVE SMOOTH",
"597 2047 OFFCURVE",
"873 1767 OFFCURVE",
"1158 1483 CURVE SMOOTH",
"1442 1199 OFFCURVE",
"1735 911 OFFCURVE",
"1735 569 CURVE SMOOTH",
"1735 553 OFFCURVE",
"1722 541 OFFCURVE",
"1707 540 CURVE SMOOTH",
"1691 541 OFFCURVE",
"1678 553 OFFCURVE",
"1678 569 CURVE SMOOTH",
"1678 878 OFFCURVE",
"1402 1158 OFFCURVE",
"1118 1442 CURVE SMOOTH",
"833 1726 OFFCURVE",
"540 2014 OFFCURVE",
"540 2356 CURVE SMOOTH",
"540 2372 OFFCURVE",
"553 2385 OFFCURVE",
"569 2385 CURVE SMOOTH"
);
},
{
closed = 1;
nodes = (
"1678 569 LINE SMOOTH",
"1678 585 OFFCURVE",
"1691 598 OFFCURVE",
"1707 598 CURVE SMOOTH",
"1722 598 OFFCURVE",
"1735 585 OFFCURVE",
"1735 569 CURVE SMOOTH",
"1735 0 LINE SMOOTH",
"1735 -15 OFFCURVE",
"1722 -28 OFFCURVE",
"1707 -28 CURVE SMOOTH",
"1691 -28 OFFCURVE",
"1678 -15 OFFCURVE",
"1678 0 CURVE SMOOTH"
);
}
);
width = 2275;
},
{
layerId = "19B6A511-96ED-40AF-BAB7-D1E16DFA4179";
paths = (
{
closed = 1;
nodes = (
"663 2527 OFFCURVE",
"740 2450 OFFCURVE",
"740 2356 CURVE SMOOTH",
"740 569 LINE SMOOTH",
"740 475 OFFCURVE",
"663 398 OFFCURVE",
"569 398 CURVE SMOOTH",
"475 398 OFFCURVE",
"398 475 OFFCURVE",
"398 569 CURVE SMOOTH",
"398 2356 LINE SMOOTH",
"398 2450 OFFCURVE",
"475 2527 OFFCURVE",
"569 2527 CURVE SMOOTH"
);
},
{
closed = 1;
nodes = (
"663 740 OFFCURVE",
"740 663 OFFCURVE",
"740 569 CURVE SMOOTH",
"740 0 LINE SMOOTH",
"740 -94 OFFCURVE",
"663 -171 OFFCURVE",
"569 -171 CURVE SMOOTH",
"475 -171 OFFCURVE",
"398 -94 OFFCURVE",
"398 0 CURVE SMOOTH",
"398 569 LINE SMOOTH",
"398 663 OFFCURVE",
"475 740 OFFCURVE",
"569 740 CURVE SMOOTH"
);
},
{
closed = 1;
nodes = (
"1232 3096 OFFCURVE",
"1308 3019 OFFCURVE",
"1308 2925 CURVE SMOOTH",
"1308 2831 OFFCURVE",
"1232 2754 OFFCURVE",
"1138 2754 CURVE SMOOTH",
"1032 2754 OFFCURVE",
"931 2712 OFFCURVE",
"856 2638 CURVE SMOOTH",
"781 2563 OFFCURVE",
"740 2462 OFFCURVE",
"740 2356 CURVE SMOOTH",
"740 2262 OFFCURVE",
"663 2186 OFFCURVE",
"569 2185 CURVE SMOOTH",
"475 2186 OFFCURVE",
"398 2262 OFFCURVE",
"398 2356 CURVE SMOOTH",
"398 2552 OFFCURVE",
"476 2740 OFFCURVE",
"615 2879 CURVE SMOOTH",
"754 3018 OFFCURVE",
"942 3096 OFFCURVE",
"1138 3096 CURVE SMOOTH"
);
},
{
closed = 1;
nodes = (
"663 2527 OFFCURVE",
"740 2450 OFFCURVE",
"740 2356 CURVE SMOOTH",
"740 2130 OFFCURVE",
"974 1867 OFFCURVE",
"1258 1583 CURVE SMOOTH",
"1543 1299 OFFCURVE",
"1877 994 OFFCURVE",
"1877 569 CURVE SMOOTH",
"1877 475 OFFCURVE",
"1801 398 OFFCURVE",
"1707 398 CURVE SMOOTH",
"1612 398 OFFCURVE",
"1536 475 OFFCURVE",
"1536 569 CURVE SMOOTH",
"1536 795 OFFCURVE",
"1302 1058 OFFCURVE",
"1017 1342 CURVE SMOOTH",
"733 1626 OFFCURVE",
"398 1931 OFFCURVE",
"398 2356 CURVE SMOOTH",
"398 2450 OFFCURVE",
"475 2527 OFFCURVE",
"569 2527 CURVE SMOOTH"
);
},
{
closed = 1;
nodes = (
"1536 569 LINE SMOOTH",
"1536 663 OFFCURVE",
"1612 740 OFFCURVE",
"1707 740 CURVE SMOOTH",
"1801 740 OFFCURVE",
"1877 663 OFFCURVE",
"1877 569 CURVE SMOOTH",
"1877 0 LINE SMOOTH",
"1877 -94 OFFCURVE",
"1801 -171 OFFCURVE",
"1707 -171 CURVE SMOOTH",
"1612 -171 OFFCURVE",
"1536 -94 OFFCURVE",
"1536 0 CURVE SMOOTH"
);
}
);
width = 2275;
}
);
leftKerningGroup = h;
rightKerningGroup = h;
unicode = 0056;
},
{
glyphname = three;
lastChange = "2021-01-30 08:49:12 +0000";
layers = (
{
layerId = master01;
paths = (
{
closed = 1;
nodes = (
"1153 2953 OFFCURVE",
"1166 2941 OFFCURVE",
"1166 2925 CURVE SMOOTH",
"1166 2909 OFFCURVE",
"1153 2897 OFFCURVE",
"1138 2897 CURVE SMOOTH",
"994 2897 OFFCURVE",
"857 2840 OFFCURVE",
"756 2738 CURVE SMOOTH",
"654 2637 OFFCURVE",
"597 2499 OFFCURVE",
"597 2356 CURVE SMOOTH",
"597 2340 OFFCURVE",
"585 2328 OFFCURVE",
"569 2328 CURVE SMOOTH",
"553 2328 OFFCURVE",
"540 2340 OFFCURVE",
"540 2356 CURVE SMOOTH",
"540 2515 OFFCURVE",
"603 2667 OFFCURVE",
"715 2779 CURVE SMOOTH",
"827 2891 OFFCURVE",
"979 2953 OFFCURVE",
"1138 2953 CURVE SMOOTH"
);
},
{
closed = 1;
nodes = (
"1722 597 OFFCURVE",
"1735 585 OFFCURVE",
"1735 569 CURVE SMOOTH",
"1735 411 OFFCURVE",
"1672 259 OFFCURVE",
"1560 147 CURVE SMOOTH",
"1448 34 OFFCURVE",
"1296 -28 OFFCURVE",
"1138 -28 CURVE SMOOTH",
"1122 -28 OFFCURVE",
"1109 -16 OFFCURVE",
"1109 0 CURVE SMOOTH",
"1109 16 OFFCURVE",
"1122 28 OFFCURVE",
"1138 28 CURVE SMOOTH",
"1281 28 OFFCURVE",
"1419 85 OFFCURVE",
"1520 187 CURVE SMOOTH",
"1621 288 OFFCURVE",
"1678 426 OFFCURVE",
"1678 569 CURVE SMOOTH",
"1678 585 OFFCURVE",
"1691 597 OFFCURVE",
"1707 597 CURVE SMOOTH"
);
},
{
closed = 1;
nodes = (
"1296 2953 OFFCURVE",
"1448 2891 OFFCURVE",
"1560 2778 CURVE SMOOTH",
"1672 2666 OFFCURVE",
"1735 2514 OFFCURVE",
"1735 2356 CURVE SMOOTH",
"1735 2340 OFFCURVE",
"1722 2328 OFFCURVE",
"1707 2328 CURVE SMOOTH",
"1691 2328 OFFCURVE",
"1678 2340 OFFCURVE",
"1678 2356 CURVE SMOOTH",
"1678 2499 OFFCURVE",
"1621 2637 OFFCURVE",
"1520 2738 CURVE SMOOTH",
"1419 2840 OFFCURVE",
"1281 2897 OFFCURVE",
"1138 2897 CURVE SMOOTH",
"1122 2897 OFFCURVE",
"1109 2909 OFFCURVE",
"1109 2925 CURVE SMOOTH",
"1109 2941 OFFCURVE",
"1122 2953 OFFCURVE",
"1138 2953 CURVE SMOOTH"
);
},
{
closed = 1;
nodes = (
"585 597 OFFCURVE",
"597 585 OFFCURVE",
"597 569 CURVE SMOOTH",
"597 426 OFFCURVE",
"654 288 OFFCURVE",
"756 187 CURVE SMOOTH",
"857 85 OFFCURVE",
"994 28 OFFCURVE",
"1138 28 CURVE SMOOTH",
"1153 28 OFFCURVE",
"1166 16 OFFCURVE",
"1166 0 CURVE SMOOTH",
"1166 -16 OFFCURVE",
"1153 -28 OFFCURVE",
"1138 -28 CURVE SMOOTH",
"979 -28 OFFCURVE",
"827 34 OFFCURVE",
"715 147 CURVE SMOOTH",
"603 259 OFFCURVE",
"540 411 OFFCURVE",
"540 569 CURVE SMOOTH",
"540 585 OFFCURVE",
"553 597 OFFCURVE",
"569 597 CURVE SMOOTH"
);
},
{
closed = 1;
nodes = (
"1722 2385 OFFCURVE",
"1735 2372 OFFCURVE",
"1735 2356 CURVE SMOOTH",
"1735 569 LINE SMOOTH",
"1735 553 OFFCURVE",
"1722 541 OFFCURVE",
"1707 540 CURVE SMOOTH",
"1691 541 OFFCURVE",
"1678 553 OFFCURVE",
"1678 569 CURVE SMOOTH",
"1678 2356 LINE SMOOTH",
"1678 2372 OFFCURVE",
"1691 2385 OFFCURVE",
"1707 2385 CURVE SMOOTH"
);
},
{
closed = 1;
nodes = (
"1109 1479 OFFCURVE",
"1122 1491 OFFCURVE",
"1138 1491 CURVE SMOOTH",
"1707 1491 LINE SMOOTH",
"1722 1491 OFFCURVE",
"1735 1479 OFFCURVE",
"1735 1463 CURVE SMOOTH",
"1735 1447 OFFCURVE",
"1722 1434 OFFCURVE",
"1707 1434 CURVE SMOOTH",
"1138 1434 LINE SMOOTH",
"1122 1434 OFFCURVE",
"1109 1447 OFFCURVE",
"1109 1463 CURVE SMOOTH"
);
}
);
width = 2275;
},
{
layerId = "19B6A511-96ED-40AF-BAB7-D1E16DFA4179";
paths = (
{
closed = 1;
nodes = (
"1232 3096 OFFCURVE",
"1308 3019 OFFCURVE",
"1308 2925 CURVE SMOOTH",
"1308 2831 OFFCURVE",
"1232 2754 OFFCURVE",
"1138 2754 CURVE SMOOTH",
"1032 2754 OFFCURVE",
"931 2712 OFFCURVE",
"856 2638 CURVE SMOOTH",
"781 2563 OFFCURVE",
"740 2462 OFFCURVE",
"740 2356 CURVE SMOOTH",
"740 2262 OFFCURVE",
"663 2186 OFFCURVE",
"569 2185 CURVE SMOOTH",
"475 2186 OFFCURVE",
"398 2262 OFFCURVE",
"398 2356 CURVE SMOOTH",
"398 2552 OFFCURVE",
"476 2740 OFFCURVE",
"615 2879 CURVE SMOOTH",
"754 3018 OFFCURVE",
"942 3096 OFFCURVE",
"1138 3096 CURVE SMOOTH"
);
},
{
closed = 1;
nodes = (
"1801 740 OFFCURVE",
"1877 663 OFFCURVE",
"1877 569 CURVE SMOOTH",
"1877 373 OFFCURVE",
"1799 185 OFFCURVE",
"1661 46 CURVE SMOOTH",
"1522 -93 OFFCURVE",
"1334 -171 OFFCURVE",
"1138 -171 CURVE SMOOTH",
"1044 -171 OFFCURVE",
"967 -94 OFFCURVE",
"967 0 CURVE SMOOTH",
"967 94 OFFCURVE",
"1044 171 OFFCURVE",
"1138 171 CURVE SMOOTH",
"1243 171 OFFCURVE",
"1345 213 OFFCURVE",
"1419 287 CURVE SMOOTH",
"1494 362 OFFCURVE",
"1536 463 OFFCURVE",
"1536 569 CURVE SMOOTH",
"1536 663 OFFCURVE",
"1612 740 OFFCURVE",
"1707 740 CURVE SMOOTH"
);
},
{
closed = 1;
nodes = (
"1334 3096 OFFCURVE",
"1522 3018 OFFCURVE",
"1661 2879 CURVE SMOOTH",
"1799 2740 OFFCURVE",
"1877 2552 OFFCURVE",
"1877 2356 CURVE SMOOTH",
"1877 2262 OFFCURVE",
"1801 2186 OFFCURVE",
"1707 2185 CURVE SMOOTH",
"1612 2186 OFFCURVE",
"1536 2262 OFFCURVE",
"1536 2356 CURVE SMOOTH",
"1536 2462 OFFCURVE",
"1494 2563 OFFCURVE",
"1419 2638 CURVE SMOOTH",
"1345 2712 OFFCURVE",
"1243 2754 OFFCURVE",
"1138 2754 CURVE SMOOTH",
"1044 2754 OFFCURVE",
"967 2831 OFFCURVE",
"967 2925 CURVE SMOOTH",
"967 3019 OFFCURVE",
"1044 3096 OFFCURVE",
"1138 3096 CURVE SMOOTH"
);
},
{
closed = 1;
nodes = (
"663 740 OFFCURVE",
"740 663 OFFCURVE",
"740 569 CURVE SMOOTH",
"740 463 OFFCURVE",
"781 362 OFFCURVE",
"856 287 CURVE SMOOTH",
"931 213 OFFCURVE",
"1032 171 OFFCURVE",
"1138 171 CURVE SMOOTH",
"1232 171 OFFCURVE",
"1308 94 OFFCURVE",
"1308 0 CURVE SMOOTH",
"1308 -94 OFFCURVE",
"1232 -171 OFFCURVE",
"1138 -171 CURVE SMOOTH",
"942 -171 OFFCURVE",
"754 -93 OFFCURVE",
"615 46 CURVE SMOOTH",
"476 185 OFFCURVE",
"398 373 OFFCURVE",
"398 569 CURVE SMOOTH",
"398 663 OFFCURVE",
"475 740 OFFCURVE",
"569 740 CURVE SMOOTH"
);
},
{
closed = 1;
nodes = (
"1801 2527 OFFCURVE",
"1877 2450 OFFCURVE",
"1877 2356 CURVE SMOOTH",
"1877 569 LINE SMOOTH",
"1877 475 OFFCURVE",
"1801 398 OFFCURVE",
"1707 398 CURVE SMOOTH",
"1612 398 OFFCURVE",
"1536 475 OFFCURVE",
"1536 569 CURVE SMOOTH",
"1536 2356 LINE SMOOTH",
"1536 2450 OFFCURVE",
"1612 2527 OFFCURVE",
"1707 2527 CURVE SMOOTH"
);
},
{
closed = 1;
nodes = (
"967 1557 OFFCURVE",
"1044 1633 OFFCURVE",
"1138 1633 CURVE SMOOTH",
"1707 1633 LINE SMOOTH",
"1801 1633 OFFCURVE",
"1877 1557 OFFCURVE",
"1877 1463 CURVE SMOOTH",
"1877 1368 OFFCURVE",
"1801 1292 OFFCURVE",
"1707 1292 CURVE SMOOTH",
"1138 1292 LINE SMOOTH",
"1044 1292 OFFCURVE",
"967 1368 OFFCURVE",
"967 1463 CURVE SMOOTH"
);
}
);
width = 2275;
}
);
unicode = 0033;
},
{
glyphname = N;
lastChange = "2021-01-30 08:49:12 +0000";
layers = (
{
layerId = master01;
paths = (
{
closed = 1;
nodes = (
"585 -540 OFFCURVE",
"597 -553 OFFCURVE",
"597 -569 CURVE SMOOTH",
"597 -2356 LINE SMOOTH",
"597 -2372 OFFCURVE",
"585 -2384 OFFCURVE",
"569 -2385 CURVE SMOOTH",
"553 -2384 OFFCURVE",
"540 -2372 OFFCURVE",
"540 -2356 CURVE SMOOTH",
"540 -569 LINE SMOOTH",
"540 -553 OFFCURVE",
"553 -540 OFFCURVE",
"569 -540 CURVE SMOOTH"
);
},
{
closed = 1;
nodes = (
"585 -2328 OFFCURVE",
"597 -2340 OFFCURVE",
"597 -2356 CURVE SMOOTH",
"597 -2925 LINE SMOOTH",
"597 -2941 OFFCURVE",
"585 -2953 OFFCURVE",
"569 -2953 CURVE SMOOTH",
"553 -2953 OFFCURVE",
"540 -2941 OFFCURVE",
"540 -2925 CURVE SMOOTH",
"540 -2356 LINE SMOOTH",
"540 -2340 OFFCURVE",
"553 -2328 OFFCURVE",
"569 -2328 CURVE SMOOTH"
);
},
{
closed = 1;
nodes = (
"1722 597 OFFCURVE",
"1735 585 OFFCURVE",
"1735 569 CURVE SMOOTH",
"1735 411 OFFCURVE",
"1672 259 OFFCURVE",
"1560 147 CURVE SMOOTH",
"1448 34 OFFCURVE",
"1296 -28 OFFCURVE",
"1138 -28 CURVE SMOOTH",
"1122 -28 OFFCURVE",
"1109 -16 OFFCURVE",
"1109 0 CURVE SMOOTH",
"1109 16 OFFCURVE",
"1122 28 OFFCURVE",
"1138 28 CURVE SMOOTH",
"1281 28 OFFCURVE",
"1419 85 OFFCURVE",
"1520 187 CURVE SMOOTH",
"1621 288 OFFCURVE",
"1678 426 OFFCURVE",
"1678 569 CURVE SMOOTH",
"1678 585 OFFCURVE",
"1691 597 OFFCURVE",
"1707 597 CURVE SMOOTH"
);
},
{
closed = 1;
nodes = (
"1153 28 OFFCURVE",
"1166 16 OFFCURVE",
"1166 0 CURVE SMOOTH",
"1166 -16 OFFCURVE",
"1153 -28 OFFCURVE",
"1138 -28 CURVE SMOOTH",
"994 -28 OFFCURVE",
"857 -85 OFFCURVE",
"756 -187 CURVE SMOOTH",
"654 -288 OFFCURVE",
"597 -426 OFFCURVE",
"597 -569 CURVE SMOOTH",
"597 -585 OFFCURVE",
"585 -597 OFFCURVE",
"569 -597 CURVE SMOOTH",
"553 -597 OFFCURVE",
"540 -585 OFFCURVE",
"540 -569 CURVE SMOOTH",
"540 -410 OFFCURVE",
"603 -258 OFFCURVE",
"715 -146 CURVE SMOOTH",
"827 -34 OFFCURVE",
"979 28 OFFCURVE",
"1138 28 CURVE SMOOTH"
);
},
{
closed = 1;
nodes = (
"1722 2953 OFFCURVE",
"1735 2941 OFFCURVE",
"1735 2925 CURVE SMOOTH",
"1735 2356 LINE SMOOTH",
"1735 2340 OFFCURVE",
"1722 2328 OFFCURVE",
"1707 2328 CURVE SMOOTH",
"1691 2328 OFFCURVE",
"1678 2340 OFFCURVE",
"1678 2356 CURVE SMOOTH",
"1678 2925 LINE SMOOTH",
"1678 2941 OFFCURVE",
"1691 2953 OFFCURVE",
"1707 2953 CURVE SMOOTH"
);
},
{
closed = 1;
nodes = (
"1678 2356 LINE SMOOTH",
"1678 2372 OFFCURVE",
"1691 2385 OFFCURVE",
"1707 2385 CURVE SMOOTH",
"1722 2385 OFFCURVE",
"1735 2372 OFFCURVE",
"1735 2356 CURVE SMOOTH",
"1735 569 LINE SMOOTH",
"1735 554 OFFCURVE",
"1722 541 OFFCURVE",
"1707 541 CURVE SMOOTH",
"1691 541 OFFCURVE",
"1678 554 OFFCURVE",
"1678 569 CURVE SMOOTH"
);
}
);
width = 2275;
},
{
layerId = "19B6A511-96ED-40AF-BAB7-D1E16DFA4179";
paths = (
{
closed = 1;
nodes = (
"663 -398 OFFCURVE",
"740 -475 OFFCURVE",
"740 -569 CURVE SMOOTH",
"740 -2356 LINE SMOOTH",
"740 -2450 OFFCURVE",
"663 -2527 OFFCURVE",
"569 -2527 CURVE SMOOTH",
"475 -2527 OFFCURVE",
"398 -2450 OFFCURVE",
"398 -2356 CURVE SMOOTH",
"398 -569 LINE SMOOTH",
"398 -475 OFFCURVE",
"475 -398 OFFCURVE",
"569 -398 CURVE SMOOTH"
);
},
{
closed = 1;
nodes = (
"663 -2185 OFFCURVE",
"740 -2262 OFFCURVE",
"740 -2356 CURVE SMOOTH",
"740 -2925 LINE SMOOTH",
"740 -3019 OFFCURVE",
"663 -3096 OFFCURVE",
"569 -3096 CURVE SMOOTH",
"475 -3096 OFFCURVE",
"398 -3019 OFFCURVE",
"398 -2925 CURVE SMOOTH",
"398 -2356 LINE SMOOTH",
"398 -2262 OFFCURVE",
"475 -2185 OFFCURVE",
"569 -2185 CURVE SMOOTH"
);
},
{
closed = 1;
nodes = (
"1801 740 OFFCURVE",
"1877 663 OFFCURVE",
"1877 569 CURVE SMOOTH",
"1877 373 OFFCURVE",
"1799 185 OFFCURVE",
"1661 46 CURVE SMOOTH",
"1522 -93 OFFCURVE",
"1334 -171 OFFCURVE",
"1138 -171 CURVE SMOOTH",
"1044 -171 OFFCURVE",
"967 -94 OFFCURVE",
"967 0 CURVE SMOOTH",
"967 94 OFFCURVE",
"1044 171 OFFCURVE",
"1138 171 CURVE SMOOTH",
"1243 171 OFFCURVE",
"1345 213 OFFCURVE",
"1419 287 CURVE SMOOTH",
"1494 362 OFFCURVE",
"1536 463 OFFCURVE",
"1536 569 CURVE SMOOTH",
"1536 663 OFFCURVE",
"1612 740 OFFCURVE",
"1707 740 CURVE SMOOTH"
);
},
{
closed = 1;
nodes = (
"1232 171 OFFCURVE",
"1308 94 OFFCURVE",
"1308 0 CURVE SMOOTH",
"1308 -94 OFFCURVE",
"1232 -171 OFFCURVE",
"1138 -171 CURVE SMOOTH",
"1032 -171 OFFCURVE",
"931 -213 OFFCURVE",
"856 -287 CURVE SMOOTH",
"781 -362 OFFCURVE",
"740 -463 OFFCURVE",
"740 -569 CURVE SMOOTH",
"740 -663 OFFCURVE",
"663 -739 OFFCURVE",
"569 -740 CURVE SMOOTH",
"475 -739 OFFCURVE",
"398 -663 OFFCURVE",
"398 -569 CURVE SMOOTH",
"398 -373 OFFCURVE",
"476 -185 OFFCURVE",
"615 -46 CURVE SMOOTH",
"754 93 OFFCURVE",
"942 171 OFFCURVE",
"1138 171 CURVE SMOOTH"
);
},
{
closed = 1;
nodes = (
"1801 3096 OFFCURVE",
"1877 3019 OFFCURVE",
"1877 2925 CURVE SMOOTH",
"1877 2356 LINE SMOOTH",
"1877 2262 OFFCURVE",
"1801 2186 OFFCURVE",
"1707 2185 CURVE SMOOTH",
"1612 2186 OFFCURVE",
"1536 2262 OFFCURVE",
"1536 2356 CURVE SMOOTH",
"1536 2925 LINE SMOOTH",
"1536 3019 OFFCURVE",
"1612 3096 OFFCURVE",
"1707 3096 CURVE SMOOTH"
);
},
{
closed = 1;
nodes = (
"1536 2356 LINE SMOOTH",
"1536 2450 OFFCURVE",
"1612 2527 OFFCURVE",
"1707 2527 CURVE SMOOTH",
"1801 2527 OFFCURVE",
"1877 2450 OFFCURVE",
"1877 2356 CURVE SMOOTH",
"1877 569 LINE SMOOTH",
"1877 475 OFFCURVE",
"1801 398 OFFCURVE",
"1707 398 CURVE SMOOTH",
"1612 398 OFFCURVE",
"1536 475 OFFCURVE",
"1536 569 CURVE SMOOTH"
);
}
);
width = 2275;
}
);
rightKerningGroup = c;
unicode = 004E;
},
{
glyphname = l;
lastChange = "2021-01-30 08:49:12 +0000";
layers = (
{
layerId = master01;
paths = (
{
closed = 1;
nodes = (
"585 5878 OFFCURVE",
"597 5866 OFFCURVE",
"597 5850 CURVE SMOOTH",
"597 5281 LINE SMOOTH",
"597 5265 OFFCURVE",
"585 5253 OFFCURVE",
"569 5253 CURVE SMOOTH",
"553 5253 OFFCURVE",
"540 5265 OFFCURVE",
"540 5281 CURVE SMOOTH",
"540 5850 LINE SMOOTH",
"540 5866 OFFCURVE",
"553 5878 OFFCURVE",
"569 5878 CURVE SMOOTH"
);
},
{
closed = 1;
nodes = (
"585 5310 OFFCURVE",
"597 5297 OFFCURVE",
"597 5281 CURVE SMOOTH",
"597 3494 LINE SMOOTH",
"597 3478 OFFCURVE",
"585 3466 OFFCURVE",
"569 3465 CURVE SMOOTH",
"553 3466 OFFCURVE",
"540 3478 OFFCURVE",
"540 3494 CURVE SMOOTH",
"540 5281 LINE SMOOTH",
"540 5297 OFFCURVE",
"553 5310 OFFCURVE",
"569 5310 CURVE SMOOTH"
);
},
{
closed = 1;
nodes = (
"585 3522 OFFCURVE",
"597 3510 OFFCURVE",
"597 3494 CURVE SMOOTH",
"597 2925 LINE SMOOTH",
"597 2909 OFFCURVE",
"585 2897 OFFCURVE",
"569 2897 CURVE SMOOTH",
"553 2897 OFFCURVE",
"540 2909 OFFCURVE",
"540 2925 CURVE SMOOTH",
"540 3494 LINE SMOOTH",
"540 3510 OFFCURVE",
"553 3522 OFFCURVE",
"569 3522 CURVE SMOOTH"
);
},
{
closed = 1;
nodes = (
"585 2953 OFFCURVE",
"597 2941 OFFCURVE",
"597 2925 CURVE SMOOTH",
"597 2356 LINE SMOOTH",
"597 2340 OFFCURVE",
"585 2328 OFFCURVE",
"569 2328 CURVE SMOOTH",
"553 2328 OFFCURVE",
"540 2340 OFFCURVE",
"540 2356 CURVE SMOOTH",
"540 2925 LINE SMOOTH",
"540 2941 OFFCURVE",
"553 2953 OFFCURVE",
"569 2953 CURVE SMOOTH"
);
},
{
closed = 1;
nodes = (
"585 2385 OFFCURVE",
"597 2372 OFFCURVE",
"597 2356 CURVE SMOOTH",
"597 569 LINE SMOOTH",
"597 553 OFFCURVE",
"585 541 OFFCURVE",
"569 540 CURVE SMOOTH",
"553 541 OFFCURVE",
"540 553 OFFCURVE",
"540 569 CURVE SMOOTH",
"540 2356 LINE SMOOTH",
"540 2372 OFFCURVE",
"553 2385 OFFCURVE",
"569 2385 CURVE SMOOTH"
);
},
{
closed = 1;
nodes = (
"540 585 OFFCURVE",
"553 598 OFFCURVE",
"569 598 CURVE SMOOTH",
"585 598 OFFCURVE",
"597 585 OFFCURVE",
"597 569 CURVE SMOOTH",
"597 426 OFFCURVE",
"654 288 OFFCURVE",
"756 187 CURVE SMOOTH",
"857 86 OFFCURVE",
"994 29 OFFCURVE",
"1138 29 CURVE SMOOTH",
"1153 29 OFFCURVE",
"1166 16 OFFCURVE",
"1166 0 CURVE SMOOTH",
"1166 -15 OFFCURVE",
"1153 -28 OFFCURVE",
"1138 -28 CURVE SMOOTH",
"979 -28 OFFCURVE",
"827 35 OFFCURVE",
"715 147 CURVE SMOOTH",
"603 259 OFFCURVE",
"540 411 OFFCURVE",
"540 569 CURVE SMOOTH"
);
}
);
width = 1137;
},
{
layerId = "19B6A511-96ED-40AF-BAB7-D1E16DFA4179";
paths = (
{
closed = 1;
nodes = (
"663 6021 OFFCURVE",
"740 5944 OFFCURVE",
"740 5850 CURVE SMOOTH",
"740 5281 LINE SMOOTH",
"740 5187 OFFCURVE",
"663 5111 OFFCURVE",
"569 5110 CURVE SMOOTH",
"475 5111 OFFCURVE",
"398 5187 OFFCURVE",
"398 5281 CURVE SMOOTH",
"398 5850 LINE SMOOTH",
"398 5944 OFFCURVE",
"475 6021 OFFCURVE",
"569 6021 CURVE SMOOTH"
);
},
{
closed = 1;
nodes = (
"663 5452 OFFCURVE",
"740 5375 OFFCURVE",
"740 5281 CURVE SMOOTH",
"740 3494 LINE SMOOTH",
"740 3400 OFFCURVE",
"663 3323 OFFCURVE",
"569 3323 CURVE SMOOTH",
"475 3323 OFFCURVE",
"398 3400 OFFCURVE",
"398 3494 CURVE SMOOTH",
"398 5281 LINE SMOOTH",
"398 5375 OFFCURVE",
"475 5452 OFFCURVE",
"569 5452 CURVE SMOOTH"
);
},
{
closed = 1;
nodes = (
"663 3665 OFFCURVE",
"740 3588 OFFCURVE",
"740 3494 CURVE SMOOTH",
"740 2925 LINE SMOOTH",
"740 2831 OFFCURVE",
"663 2754 OFFCURVE",
"569 2754 CURVE SMOOTH",
"475 2754 OFFCURVE",
"398 2831 OFFCURVE",
"398 2925 CURVE SMOOTH",
"398 3494 LINE SMOOTH",
"398 3588 OFFCURVE",
"475 3665 OFFCURVE",
"569 3665 CURVE SMOOTH"
);
},
{
closed = 1;
nodes = (
"663 3096 OFFCURVE",
"740 3019 OFFCURVE",
"740 2925 CURVE SMOOTH",
"740 2356 LINE SMOOTH",
"740 2262 OFFCURVE",
"663 2186 OFFCURVE",
"569 2185 CURVE SMOOTH",
"475 2186 OFFCURVE",
"398 2262 OFFCURVE",
"398 2356 CURVE SMOOTH",
"398 2925 LINE SMOOTH",
"398 3019 OFFCURVE",
"475 3096 OFFCURVE",
"569 3096 CURVE SMOOTH"
);
},
{
closed = 1;
nodes = (
"663 2527 OFFCURVE",
"740 2450 OFFCURVE",
"740 2356 CURVE SMOOTH",
"740 569 LINE SMOOTH",
"740 475 OFFCURVE",
"663 398 OFFCURVE",
"569 398 CURVE SMOOTH",
"475 398 OFFCURVE",
"398 475 OFFCURVE",
"398 569 CURVE SMOOTH",
"398 2356 LINE SMOOTH",
"398 2450 OFFCURVE",
"475 2527 OFFCURVE",
"569 2527 CURVE SMOOTH"
);
},
{
closed = 1;
nodes = (
"398 663 OFFCURVE",
"475 740 OFFCURVE",
"569 740 CURVE SMOOTH",
"663 740 OFFCURVE",
"740 663 OFFCURVE",
"740 569 CURVE SMOOTH",
"740 463 OFFCURVE",
"781 362 OFFCURVE",
"856 287 CURVE SMOOTH",
"931 213 OFFCURVE",
"1032 171 OFFCURVE",
"1138 171 CURVE SMOOTH",
"1232 171 OFFCURVE",
"1308 94 OFFCURVE",
"1308 0 CURVE SMOOTH",
"1308 -94 OFFCURVE",
"1232 -171 OFFCURVE",
"1138 -171 CURVE SMOOTH",
"942 -171 OFFCURVE",
"754 -93 OFFCURVE",
"615 46 CURVE SMOOTH",
"476 185 OFFCURVE",
"398 373 OFFCURVE",
"398 569 CURVE SMOOTH"
);
}
);
width = 1138;
}
);
leftKerningGroup = c;
unicode = 006C;
},
{
glyphname = d;
lastChange = "2021-01-30 08:49:12 +0000";
layers = (
{
layerId = master01;
paths = (
{
closed = 1;
nodes = (
"585 2385 OFFCURVE",
"597 2372 OFFCURVE",
"597 2356 CURVE SMOOTH",
"597 569 LINE SMOOTH",
"597 553 OFFCURVE",
"585 541 OFFCURVE",
"569 540 CURVE SMOOTH",
"553 541 OFFCURVE",
"540 553 OFFCURVE",
"540 569 CURVE SMOOTH",
"540 2356 LINE SMOOTH",
"540 2372 OFFCURVE",
"553 2385 OFFCURVE",
"569 2385 CURVE SMOOTH"
);
},
{
closed = 1;
nodes = (
"1153 2953 OFFCURVE",
"1166 2941 OFFCURVE",
"1166 2925 CURVE SMOOTH",
"1166 2909 OFFCURVE",
"1153 2897 OFFCURVE",
"1138 2897 CURVE SMOOTH",
"994 2897 OFFCURVE",
"857 2840 OFFCURVE",
"756 2738 CURVE SMOOTH",
"654 2637 OFFCURVE",
"597 2499 OFFCURVE",
"597 2356 CURVE SMOOTH",
"597 2340 OFFCURVE",
"585 2328 OFFCURVE",
"569 2328 CURVE SMOOTH",
"553 2328 OFFCURVE",
"540 2340 OFFCURVE",
"540 2356 CURVE SMOOTH",
"540 2515 OFFCURVE",
"603 2667 OFFCURVE",
"715 2779 CURVE SMOOTH",
"827 2891 OFFCURVE",
"979 2953 OFFCURVE",
"1138 2953 CURVE SMOOTH"
);
},
{
closed = 1;
nodes = (
"1722 597 OFFCURVE",
"1735 585 OFFCURVE",
"1735 569 CURVE SMOOTH",
"1735 411 OFFCURVE",
"1672 259 OFFCURVE",
"1560 147 CURVE SMOOTH",
"1448 34 OFFCURVE",
"1296 -28 OFFCURVE",
"1138 -28 CURVE SMOOTH",
"1122 -28 OFFCURVE",
"1109 -16 OFFCURVE",
"1109 0 CURVE SMOOTH",
"1109 16 OFFCURVE",
"1122 28 OFFCURVE",
"1138 28 CURVE SMOOTH",
"1281 28 OFFCURVE",
"1419 85 OFFCURVE",
"1520 187 CURVE SMOOTH",
"1621 288 OFFCURVE",
"1678 426 OFFCURVE",
"1678 569 CURVE SMOOTH",
"1678 585 OFFCURVE",
"1691 597 OFFCURVE",
"1707 597 CURVE SMOOTH"
);
},
{
closed = 1;
nodes = (
"1296 2953 OFFCURVE",
"1448 2891 OFFCURVE",
"1560 2778 CURVE SMOOTH",
"1672 2666 OFFCURVE",
"1735 2514 OFFCURVE",
"1735 2356 CURVE SMOOTH",
"1735 2340 OFFCURVE",
"1722 2328 OFFCURVE",
"1707 2328 CURVE SMOOTH",
"1691 2328 OFFCURVE",
"1678 2340 OFFCURVE",
"1678 2356 CURVE SMOOTH",
"1678 2499 OFFCURVE",
"1621 2637 OFFCURVE",
"1520 2738 CURVE SMOOTH",
"1419 2840 OFFCURVE",
"1281 2897 OFFCURVE",
"1138 2897 CURVE SMOOTH",
"1122 2897 OFFCURVE",
"1109 2909 OFFCURVE",
"1109 2925 CURVE SMOOTH",
"1109 2941 OFFCURVE",
"1122 2953 OFFCURVE",
"1138 2953 CURVE SMOOTH"
);
},
{
closed = 1;
nodes = (
"585 597 OFFCURVE",
"597 585 OFFCURVE",
"597 569 CURVE SMOOTH",
"597 426 OFFCURVE",
"654 288 OFFCURVE",
"756 187 CURVE SMOOTH",
"857 85 OFFCURVE",
"994 28 OFFCURVE",
"1138 28 CURVE SMOOTH",
"1153 28 OFFCURVE",
"1166 16 OFFCURVE",
"1166 0 CURVE SMOOTH",
"1166 -16 OFFCURVE",
"1153 -28 OFFCURVE",
"1138 -28 CURVE SMOOTH",
"979 -28 OFFCURVE",
"827 34 OFFCURVE",
"715 147 CURVE SMOOTH",
"603 259 OFFCURVE",
"540 411 OFFCURVE",
"540 569 CURVE SMOOTH",
"540 585 OFFCURVE",
"553 597 OFFCURVE",
"569 597 CURVE SMOOTH"
);
},
{
closed = 1;
nodes = (
"1722 5878 OFFCURVE",
"1735 5866 OFFCURVE",
"1735 5850 CURVE SMOOTH",
"1735 5281 LINE SMOOTH",
"1735 5265 OFFCURVE",
"1722 5253 OFFCURVE",
"1707 5253 CURVE SMOOTH",
"1691 5253 OFFCURVE",
"1678 5265 OFFCURVE",
"1678 5281 CURVE SMOOTH",
"1678 5850 LINE SMOOTH",
"1678 5866 OFFCURVE",
"1691 5878 OFFCURVE",
"1707 5878 CURVE SMOOTH"
);
},
{
closed = 1;
nodes = (
"1722 5310 OFFCURVE",
"1735 5297 OFFCURVE",
"1735 5281 CURVE SMOOTH",
"1735 3494 LINE SMOOTH",
"1735 3478 OFFCURVE",
"1722 3466 OFFCURVE",
"1707 3465 CURVE SMOOTH",
"1691 3466 OFFCURVE",
"1678 3478 OFFCURVE",
"1678 3494 CURVE SMOOTH",
"1678 5281 LINE SMOOTH",
"1678 5297 OFFCURVE",
"1691 5310 OFFCURVE",
"1707 5310 CURVE SMOOTH"
);
},
{
closed = 1;
nodes = (
"1722 3522 OFFCURVE",
"1735 3510 OFFCURVE",
"1735 3494 CURVE SMOOTH",
"1735 2925 LINE SMOOTH",
"1735 2909 OFFCURVE",
"1722 2897 OFFCURVE",
"1707 2897 CURVE SMOOTH",
"1691 2897 OFFCURVE",
"1678 2909 OFFCURVE",
"1678 2925 CURVE SMOOTH",
"1678 3494 LINE SMOOTH",
"1678 3510 OFFCURVE",
"1691 3522 OFFCURVE",
"1707 3522 CURVE SMOOTH"
);
},
{
closed = 1;
nodes = (
"1722 2953 OFFCURVE",
"1735 2941 OFFCURVE",
"1735 2925 CURVE SMOOTH",
"1735 2356 LINE SMOOTH",
"1735 2340 OFFCURVE",
"1722 2328 OFFCURVE",
"1707 2328 CURVE SMOOTH",
"1691 2328 OFFCURVE",
"1678 2340 OFFCURVE",
"1678 2356 CURVE SMOOTH",
"1678 2925 LINE SMOOTH",
"1678 2941 OFFCURVE",
"1691 2953 OFFCURVE",
"1707 2953 CURVE SMOOTH"
);
},
{
closed = 1;
nodes = (
"1678 2356 LINE SMOOTH",
"1678 2372 OFFCURVE",
"1691 2385 OFFCURVE",
"1707 2385 CURVE SMOOTH",
"1722 2385 OFFCURVE",
"1735 2372 OFFCURVE",
"1735 2356 CURVE SMOOTH",
"1735 569 LINE SMOOTH",
"1735 554 OFFCURVE",
"1722 541 OFFCURVE",
"1707 541 CURVE SMOOTH",
"1691 541 OFFCURVE",
"1678 554 OFFCURVE",
"1678 569 CURVE SMOOTH"
);
}
);
width = 2275;
},
{
layerId = "19B6A511-96ED-40AF-BAB7-D1E16DFA4179";
paths = (
{
closed = 1;
nodes = (
"663 2527 OFFCURVE",
"740 2450 OFFCURVE",
"740 2356 CURVE SMOOTH",
"740 569 LINE SMOOTH",
"740 475 OFFCURVE",
"663 398 OFFCURVE",
"569 398 CURVE SMOOTH",
"475 398 OFFCURVE",
"398 475 OFFCURVE",
"398 569 CURVE SMOOTH",
"398 2356 LINE SMOOTH",
"398 2450 OFFCURVE",
"475 2527 OFFCURVE",
"569 2527 CURVE SMOOTH"
);
},
{
closed = 1;
nodes = (
"1232 3096 OFFCURVE",
"1308 3019 OFFCURVE",
"1308 2925 CURVE SMOOTH",
"1308 2831 OFFCURVE",
"1232 2754 OFFCURVE",
"1138 2754 CURVE SMOOTH",
"1032 2754 OFFCURVE",
"931 2712 OFFCURVE",
"856 2638 CURVE SMOOTH",
"781 2563 OFFCURVE",
"740 2462 OFFCURVE",
"740 2356 CURVE SMOOTH",
"740 2262 OFFCURVE",
"663 2186 OFFCURVE",
"569 2185 CURVE SMOOTH",
"475 2186 OFFCURVE",
"398 2262 OFFCURVE",
"398 2356 CURVE SMOOTH",
"398 2552 OFFCURVE",
"476 2740 OFFCURVE",
"615 2879 CURVE SMOOTH",
"754 3018 OFFCURVE",
"942 3096 OFFCURVE",
"1138 3096 CURVE SMOOTH"
);
},
{
closed = 1;
nodes = (
"1801 740 OFFCURVE",
"1877 663 OFFCURVE",
"1877 569 CURVE SMOOTH",
"1877 373 OFFCURVE",
"1799 185 OFFCURVE",
"1661 46 CURVE SMOOTH",
"1522 -93 OFFCURVE",
"1334 -171 OFFCURVE",
"1138 -171 CURVE SMOOTH",
"1044 -171 OFFCURVE",
"967 -94 OFFCURVE",
"967 0 CURVE SMOOTH",
"967 94 OFFCURVE",
"1044 171 OFFCURVE",
"1138 171 CURVE SMOOTH",
"1243 171 OFFCURVE",
"1345 213 OFFCURVE",
"1419 287 CURVE SMOOTH",
"1494 362 OFFCURVE",
"1536 463 OFFCURVE",
"1536 569 CURVE SMOOTH",
"1536 663 OFFCURVE",
"1612 740 OFFCURVE",
"1707 740 CURVE SMOOTH"
);
},
{
closed = 1;
nodes = (
"1334 3096 OFFCURVE",
"1522 3018 OFFCURVE",
"1661 2879 CURVE SMOOTH",
"1799 2740 OFFCURVE",
"1877 2552 OFFCURVE",
"1877 2356 CURVE SMOOTH",
"1877 2262 OFFCURVE",
"1801 2186 OFFCURVE",
"1707 2185 CURVE SMOOTH",
"1612 2186 OFFCURVE",
"1536 2262 OFFCURVE",
"1536 2356 CURVE SMOOTH",
"1536 2462 OFFCURVE",
"1494 2563 OFFCURVE",
"1419 2638 CURVE SMOOTH",
"1345 2712 OFFCURVE",
"1243 2754 OFFCURVE",
"1138 2754 CURVE SMOOTH",
"1044 2754 OFFCURVE",
"967 2831 OFFCURVE",
"967 2925 CURVE SMOOTH",
"967 3019 OFFCURVE",
"1044 3096 OFFCURVE",
"1138 3096 CURVE SMOOTH"
);
},
{
closed = 1;
nodes = (
"663 740 OFFCURVE",
"740 663 OFFCURVE",
"740 569 CURVE SMOOTH",
"740 463 OFFCURVE",
"781 362 OFFCURVE",
"856 287 CURVE SMOOTH",
"931 213 OFFCURVE",
"1032 171 OFFCURVE",
"1138 171 CURVE SMOOTH",
"1232 171 OFFCURVE",
"1308 94 OFFCURVE",
"1308 0 CURVE SMOOTH",
"1308 -94 OFFCURVE",
"1232 -171 OFFCURVE",
"1138 -171 CURVE SMOOTH",
"942 -171 OFFCURVE",
"754 -93 OFFCURVE",
"615 46 CURVE SMOOTH",
"476 185 OFFCURVE",
"398 373 OFFCURVE",
"398 569 CURVE SMOOTH",
"398 663 OFFCURVE",
"475 740 OFFCURVE",
"569 740 CURVE SMOOTH"
);
},
{
closed = 1;
nodes = (
"1801 6021 OFFCURVE",
"1877 5944 OFFCURVE",
"1877 5850 CURVE SMOOTH",
"1877 5281 LINE SMOOTH",
"1877 5187 OFFCURVE",
"1801 5111 OFFCURVE",
"1707 5110 CURVE SMOOTH",
"1612 5111 OFFCURVE",
"1536 5187 OFFCURVE",
"1536 5281 CURVE SMOOTH",
"1536 5850 LINE SMOOTH",
"1536 5944 OFFCURVE",
"1612 6021 OFFCURVE",
"1707 6021 CURVE SMOOTH"
);
},
{
closed = 1;
nodes = (
"1801 5452 OFFCURVE",
"1877 5375 OFFCURVE",
"1877 5281 CURVE SMOOTH",
"1877 3494 LINE SMOOTH",
"1877 3400 OFFCURVE",
"1801 3323 OFFCURVE",
"1707 3323 CURVE SMOOTH",
"1612 3323 OFFCURVE",
"1536 3400 OFFCURVE",
"1536 3494 CURVE SMOOTH",
"1536 5281 LINE SMOOTH",
"1536 5375 OFFCURVE",
"1612 5452 OFFCURVE",
"1707 5452 CURVE SMOOTH"
);
},
{
closed = 1;
nodes = (
"1801 3665 OFFCURVE",
"1877 3588 OFFCURVE",
"1877 3494 CURVE SMOOTH",
"1877 2925 LINE SMOOTH",
"1877 2831 OFFCURVE",
"1801 2754 OFFCURVE",
"1707 2754 CURVE SMOOTH",
"1612 2754 OFFCURVE",
"1536 2831 OFFCURVE",
"1536 2925 CURVE SMOOTH",
"1536 3494 LINE SMOOTH",
"1536 3588 OFFCURVE",
"1612 3665 OFFCURVE",
"1707 3665 CURVE SMOOTH"
);
},
{
closed = 1;
nodes = (
"1801 3096 OFFCURVE",
"1877 3019 OFFCURVE",
"1877 2925 CURVE SMOOTH",
"1877 2356 LINE SMOOTH",
"1877 2262 OFFCURVE",
"1801 2186 OFFCURVE",
"1707 2185 CURVE SMOOTH",
"1612 2186 OFFCURVE",
"1536 2262 OFFCURVE",
"1536 2356 CURVE SMOOTH",
"1536 2925 LINE SMOOTH",
"1536 3019 OFFCURVE",
"1612 3096 OFFCURVE",
"1707 3096 CURVE SMOOTH"
);
},
{
closed = 1;
nodes = (
"1536 2356 LINE SMOOTH",
"1536 2450 OFFCURVE",
"1612 2527 OFFCURVE",
"1707 2527 CURVE SMOOTH",
"1801 2527 OFFCURVE",
"1877 2450 OFFCURVE",
"1877 2356 CURVE SMOOTH",
"1877 569 LINE SMOOTH",
"1877 475 OFFCURVE",
"1801 398 OFFCURVE",
"1707 398 CURVE SMOOTH",
"1612 398 OFFCURVE",
"1536 475 OFFCURVE",
"1536 569 CURVE SMOOTH"
);
}
);
width = 2275;
}
);
leftKerningGroup = c;
rightKerningGroup = c;
unicode = 0064;
},
